STARTFONT 2.1
COMMENT
COMMENT Converted from OpenType font "ipaexm.ttf" by "otf2bdf 3.0".
COMMENT
FONT -FreeType-IPAexMincho-Medium-R-Normal--12-120-72-72-P-103-ISO10646-1
SIZE 12 72 72
FONTBOUNDINGBOX 15 15 -3 -3
STARTPROPERTIES 19
FOUNDRY "FreeType"
FAMILY_NAME "IPAexMincho"
WEIGHT_NAME "Medium"
SLANT "R"
SETWIDTH_NAME "Normal"
ADD_STYLE_NAME ""
PIXEL_SIZE 12
POINT_SIZE 120
RESOLUTION_X 72
RESOLUTION_Y 72
SPACING "P"
AVERAGE_WIDTH 103
CHARSET_REGISTRY "ISO10646"
CHARSET_ENCODING "1"
FONT_ASCENT 10
FONT_DESCENT 1
COPYRIGHT "Copyright(c) Information-technology Promotion Agency, Japan (IPA), 2003-2019. You must accept "https://opensource.org/licenses/IPA/" to use this product."
_OTF_FONTFILE "ipaexm.ttf"
_OTF_PSNAME "IPAexMincho"
ENDPROPERTIES
CHARS 11691
STARTCHAR 0020
ENCODING 32
SWIDTH 250 0
DWIDTH 3 0
BBX 0 0 0 0
BITMAP
ENDCHAR
STARTCHAR 0021
ENCODING 33
SWIDTH 250 0
DWIDTH 3 0
BBX 1 9 1 0
BITMAP
80
80
80
80
80
80
00
00
80
ENDCHAR
STARTCHAR 0022
ENCODING 34
SWIDTH 333 0
DWIDTH 4 0
BBX 3 3 1 6
BITMAP
A0
C0
C0
ENDCHAR
STARTCHAR 0023
ENCODING 35
SWIDTH 583 0
DWIDTH 7 0
BBX 6 9 1 0
BITMAP
28
48
48
FC
50
FC
50
90
A0
ENDCHAR
STARTCHAR 0024
ENCODING 36
SWIDTH 583 0
DWIDTH 7 0
BBX 5 10 1 -1
BITMAP
20
F8
A8
A0
60
38
28
A8
A8
70
ENDCHAR
STARTCHAR 0025
ENCODING 37
SWIDTH 750 0
DWIDTH 9 0
BBX 8 9 1 0
BITMAP
C2
A4
A8
A8
D6
29
29
49
86
ENDCHAR
STARTCHAR 0026
ENCODING 38
SWIDTH 750 0
DWIDTH 9 0
BBX 7 9 1 0
BITMAP
70
48
48
50
66
94
8C
8C
76
ENDCHAR
STARTCHAR 0027
ENCODING 39
SWIDTH 250 0
DWIDTH 3 0
BBX 1 3 1 6
BITMAP
80
80
80
ENDCHAR
STARTCHAR 0028
ENCODING 40
SWIDTH 333 0
DWIDTH 4 0
BBX 3 12 1 -3
BITMAP
40
40
80
80
80
80
80
80
80
40
40
20
ENDCHAR
STARTCHAR 0029
ENCODING 41
SWIDTH 333 0
DWIDTH 4 0
BBX 2 11 1 -3
BITMAP
80
80
40
40
40
40
40
40
40
80
80
ENDCHAR
STARTCHAR 002A
ENCODING 42
SWIDTH 250 0
DWIDTH 3 0
BBX 3 4 0 5
BITMAP
40
E0
E0
40
ENDCHAR
STARTCHAR 002B
ENCODING 43
SWIDTH 666 0
DWIDTH 8 0
BBX 6 6 1 1
BITMAP
20
20
FC
20
20
20
ENDCHAR
STARTCHAR 002C
ENCODING 44
SWIDTH 250 0
DWIDTH 3 0
BBX 1 2 1 -1
BITMAP
80
80
ENDCHAR
STARTCHAR 002D
ENCODING 45
SWIDTH 333 0
DWIDTH 4 0
BBX 3 1 0 3
BITMAP
E0
ENDCHAR
STARTCHAR 002E
ENCODING 46
SWIDTH 250 0
DWIDTH 3 0
BBX 1 1 1 0
BITMAP
80
ENDCHAR
STARTCHAR 002F
ENCODING 47
SWIDTH 500 0
DWIDTH 6 0
BBX 4 10 1 -2
BITMAP
10
10
20
20
20
40
40
80
80
80
ENDCHAR
STARTCHAR 0030
ENCODING 48
SWIDTH 583 0
DWIDTH 7 0
BBX 6 9 1 0
BITMAP
70
C8
88
84
84
84
88
C8
70
ENDCHAR
STARTCHAR 0031
ENCODING 49
SWIDTH 583 0
DWIDTH 7 0
BBX 2 9 3 0
BITMAP
80
80
80
80
80
80
80
80
C0
ENDCHAR
STARTCHAR 0032
ENCODING 50
SWIDTH 583 0
DWIDTH 7 0
BBX 6 9 1 0
BITMAP
70
88
C8
08
10
20
C4
88
F8
ENDCHAR
STARTCHAR 0033
ENCODING 51
SWIDTH 583 0
DWIDTH 7 0
BBX 5 9 1 0
BITMAP
70
88
88
08
30
08
08
88
70
ENDCHAR
STARTCHAR 0034
ENCODING 52
SWIDTH 583 0
DWIDTH 7 0
BBX 6 9 1 0
BITMAP
10
10
30
50
90
90
FC
10
18
ENDCHAR
STARTCHAR 0035
ENCODING 53
SWIDTH 583 0
DWIDTH 7 0
BBX 6 9 1 0
BITMAP
78
80
80
B0
C8
04
84
88
70
ENDCHAR
STARTCHAR 0036
ENCODING 54
SWIDTH 583 0
DWIDTH 7 0
BBX 6 9 1 0
BITMAP
38
48
80
B0
C8
84
84
48
78
ENDCHAR
STARTCHAR 0037
ENCODING 55
SWIDTH 583 0
DWIDTH 7 0
BBX 6 9 1 0
BITMAP
FC
88
88
10
10
10
20
20
20
ENDCHAR
STARTCHAR 0038
ENCODING 56
SWIDTH 583 0
DWIDTH 7 0
BBX 6 9 1 0
BITMAP
70
88
88
48
B0
88
84
88
78
ENDCHAR
STARTCHAR 0039
ENCODING 57
SWIDTH 583 0
DWIDTH 7 0
BBX 5 9 1 0
BITMAP
70
88
88
88
98
78
08
88
70
ENDCHAR
STARTCHAR 003A
ENCODING 58
SWIDTH 250 0
DWIDTH 3 0
BBX 1 6 1 0
BITMAP
80
00
00
00
00
80
ENDCHAR
STARTCHAR 003B
ENCODING 59
SWIDTH 250 0
DWIDTH 3 0
BBX 1 7 1 -1
BITMAP
80
00
00
00
80
80
80
ENDCHAR
STARTCHAR 003C
ENCODING 60
SWIDTH 666 0
DWIDTH 8 0
BBX 6 6 1 1
BITMAP
04
18
60
80
60
1C
ENDCHAR
STARTCHAR 003D
ENCODING 61
SWIDTH 666 0
DWIDTH 8 0
BBX 6 3 1 2
BITMAP
FC
00
FC
ENDCHAR
STARTCHAR 003E
ENCODING 62
SWIDTH 666 0
DWIDTH 8 0
BBX 6 6 1 1
BITMAP
80
60
18
04
18
E0
ENDCHAR
STARTCHAR 003F
ENCODING 63
SWIDTH 500 0
DWIDTH 6 0
BBX 4 9 1 0
BITMAP
F0
90
90
10
20
40
40
00
40
ENDCHAR
STARTCHAR 0040
ENCODING 64
SWIDTH 916 0
DWIDTH 11 0
BBX 9 9 1 0
BITMAP
3E00
6100
8E80
9480
A480
A480
BF00
4000
3E00
ENDCHAR
STARTCHAR 0041
ENCODING 65
SWIDTH 750 0
DWIDTH 9 0
BBX 7 9 1 0
BITMAP
10
10
30
48
48
7C
84
84
82
ENDCHAR
STARTCHAR 0042
ENCODING 66
SWIDTH 750 0
DWIDTH 9 0
BBX 7 9 1 0
BITMAP
F8
44
44
44
78
4C
42
42
7C
ENDCHAR
STARTCHAR 0043
ENCODING 67
SWIDTH 750 0
DWIDTH 9 0
BBX 7 9 1 0
BITMAP
3C
42
80
80
80
80
82
42
3C
ENDCHAR
STARTCHAR 0044
ENCODING 68
SWIDTH 750 0
DWIDTH 9 0
BBX 8 9 1 0
BITMAP
FC
42
42
41
41
41
42
42
FC
ENDCHAR
STARTCHAR 0045
ENCODING 69
SWIDTH 666 0
DWIDTH 8 0
BBX 7 9 1 0
BITMAP
FC
40
40
48
78
48
42
42
7E
ENDCHAR
STARTCHAR 0046
ENCODING 70
SWIDTH 666 0
DWIDTH 8 0
BBX 6 9 1 0
BITMAP
FC
40
40
48
78
48
40
40
40
ENDCHAR
STARTCHAR 0047
ENCODING 71
SWIDTH 750 0
DWIDTH 9 0
BBX 7 9 1 0
BITMAP
3C
42
80
80
80
82
82
42
3C
ENDCHAR
STARTCHAR 0048
ENCODING 72
SWIDTH 833 0
DWIDTH 10 0
BBX 7 9 1 0
BITMAP
C2
42
42
42
7E
42
42
42
42
ENDCHAR
STARTCHAR 0049
ENCODING 73
SWIDTH 416 0
DWIDTH 5 0
BBX 2 9 1 0
BITMAP
C0
40
40
40
40
40
40
40
C0
ENDCHAR
STARTCHAR 004A
ENCODING 74
SWIDTH 500 0
DWIDTH 6 0
BBX 4 9 0 0
BITMAP
10
10
10
10
10
10
10
90
60
ENDCHAR
STARTCHAR 004B
ENCODING 75
SWIDTH 750 0
DWIDTH 9 0
BBX 7 9 1 0
BITMAP
C6
48
50
60
50
50
48
44
C6
ENDCHAR
STARTCHAR 004C
ENCODING 76
SWIDTH 583 0
DWIDTH 7 0
BBX 6 9 1 0
BITMAP
C0
40
40
40
40
40
40
44
FC
ENDCHAR
STARTCHAR 004D
ENCODING 77
SWIDTH 916 0
DWIDTH 11 0
BBX 9 9 1 0
BITMAP
C180
A280
A280
A280
9480
9480
9480
8880
C980
ENDCHAR
STARTCHAR 004E
ENCODING 78
SWIDTH 833 0
DWIDTH 10 0
BBX 8 9 1 0
BITMAP
C3
A2
A2
92
8A
8A
86
82
C2
ENDCHAR
STARTCHAR 004F
ENCODING 79
SWIDTH 833 0
DWIDTH 10 0
BBX 8 9 1 0
BITMAP
3C
42
83
81
81
81
83
42
3C
ENDCHAR
STARTCHAR 0050
ENCODING 80
SWIDTH 666 0
DWIDTH 8 0
BBX 7 9 1 0
BITMAP
F8
44
42
44
44
78
40
40
40
ENDCHAR
STARTCHAR 0051
ENCODING 81
SWIDTH 833 0
DWIDTH 10 0
BBX 8 10 1 -1
BITMAP
3C
46
83
81
81
81
99
A6
7C
03
ENDCHAR
STARTCHAR 0052
ENCODING 82
SWIDTH 666 0
DWIDTH 8 0
BBX 7 9 1 0
BITMAP
F8
44
44
44
78
48
44
44
C2
ENDCHAR
STARTCHAR 0053
ENCODING 83
SWIDTH 583 0
DWIDTH 7 0
BBX 6 9 1 0
BITMAP
78
88
80
80
60
18
04
88
78
ENDCHAR
STARTCHAR 0054
ENCODING 84
SWIDTH 583 0
DWIDTH 7 0
BBX 7 9 0 0
BITMAP
FE
90
10
10
10
10
10
10
18
ENDCHAR
STARTCHAR 0055
ENCODING 85
SWIDTH 833 0
DWIDTH 10 0
BBX 8 9 1 0
BITMAP
C3
82
82
82
82
82
42
42
3C
ENDCHAR
STARTCHAR 0056
ENCODING 86
SWIDTH 750 0
DWIDTH 9 0
BBX 7 9 1 0
BITMAP
82
84
44
44
48
28
30
30
10
ENDCHAR
STARTCHAR 0057
ENCODING 87
SWIDTH 1000 0
DWIDTH 12 0
BBX 10 9 1 0
BITMAP
8840
8880
8C80
4C80
5500
5300
3300
2300
2200
ENDCHAR
STARTCHAR 0058
ENCODING 88
SWIDTH 750 0
DWIDTH 9 0
BBX 7 9 1 0
BITMAP
C6
44
28
30
10
28
48
84
86
ENDCHAR
STARTCHAR 0059
ENCODING 89
SWIDTH 666 0
DWIDTH 8 0
BBX 7 9 1 0
BITMAP
86
84
48
28
30
10
10
10
30
ENDCHAR
STARTCHAR 005A
ENCODING 90
SWIDTH 666 0
DWIDTH 8 0
BBX 7 9 0 0
BITMAP
7E
44
04
08
10
10
20
42
FE
ENDCHAR
STARTCHAR 005B
ENCODING 91
SWIDTH 333 0
DWIDTH 4 0
BBX 3 11 1 -2
BITMAP
E0
80
80
80
80
80
80
80
80
80
E0
ENDCHAR
STARTCHAR 005C
ENCODING 92
SWIDTH 500 0
DWIDTH 6 0
BBX 4 10 1 -2
BITMAP
80
80
80
40
40
40
20
20
10
10
ENDCHAR
STARTCHAR 005D
ENCODING 93
SWIDTH 333 0
DWIDTH 4 0
BBX 2 11 1 -2
BITMAP
C0
40
40
40
40
40
40
40
40
40
C0
ENDCHAR
STARTCHAR 005E
ENCODING 94
SWIDTH 500 0
DWIDTH 6 0
BBX 5 3 0 4
BITMAP
30
48
88
ENDCHAR
STARTCHAR 005F
ENCODING 95
SWIDTH 500 0
DWIDTH 6 0
BBX 6 1 0 -1
BITMAP
FC
ENDCHAR
STARTCHAR 0060
ENCODING 96
SWIDTH 500 0
DWIDTH 6 0
BBX 1 1 2 8
BITMAP
80
ENDCHAR
STARTCHAR 0061
ENCODING 97
SWIDTH 583 0
DWIDTH 7 0
BBX 5 6 1 0
BITMAP
70
90
30
D0
90
E8
ENDCHAR
STARTCHAR 0062
ENCODING 98
SWIDTH 583 0
DWIDTH 7 0
BBX 7 9 0 0
BITMAP
C0
40
40
58
64
42
42
44
78
ENDCHAR
STARTCHAR 0063
ENCODING 99
SWIDTH 500 0
DWIDTH 6 0
BBX 5 6 1 0
BITMAP
70
88
80
80
88
70
ENDCHAR
STARTCHAR 0064
ENCODING 100
SWIDTH 583 0
DWIDTH 7 0
BBX 5 9 1 0
BITMAP
18
08
08
78
88
88
88
88
78
ENDCHAR
STARTCHAR 0065
ENCODING 101
SWIDTH 583 0
DWIDTH 7 0
BBX 5 6 1 0
BITMAP
70
88
F8
80
80
78
ENDCHAR
STARTCHAR 0066
ENCODING 102
SWIDTH 333 0
DWIDTH 4 0
BBX 5 9 0 0
BITMAP
38
40
40
F0
40
40
40
40
40
ENDCHAR
STARTCHAR 0067
ENCODING 103
SWIDTH 583 0
DWIDTH 7 0
BBX 5 8 1 -2
BITMAP
70
88
88
70
80
F8
88
F0
ENDCHAR
STARTCHAR 0068
ENCODING 104
SWIDTH 583 0
DWIDTH 7 0
BBX 6 9 0 0
BITMAP
C0
40
40
5C
64
44
44
44
44
ENDCHAR
STARTCHAR 0069
ENCODING 105
SWIDTH 333 0
DWIDTH 4 0
BBX 2 9 1 0
BITMAP
C0
00
00
80
80
80
80
80
C0
ENDCHAR
STARTCHAR 006A
ENCODING 106
SWIDTH 333 0
DWIDTH 4 0
BBX 4 11 -1 -2
BITMAP
30
00
00
20
20
20
20
20
20
20
E0
ENDCHAR
STARTCHAR 006B
ENCODING 107
SWIDTH 583 0
DWIDTH 7 0
BBX 6 9 0 0
BITMAP
C0
40
40
44
58
50
70
48
44
ENDCHAR
STARTCHAR 006C
ENCODING 108
SWIDTH 333 0
DWIDTH 4 0
BBX 1 9 1 0
BITMAP
80
80
80
80
80
80
80
80
80
ENDCHAR
STARTCHAR 006D
ENCODING 109
SWIDTH 916 0
DWIDTH 11 0
BBX 9 6 1 0
BITMAP
B700
4880
8880
8880
8880
C880
ENDCHAR
STARTCHAR 006E
ENCODING 110
SWIDTH 666 0
DWIDTH 8 0
BBX 6 6 1 0
BITMAP
B8
48
88
88
88
CC
ENDCHAR
STARTCHAR 006F
ENCODING 111
SWIDTH 583 0
DWIDTH 7 0
BBX 5 6 1 0
BITMAP
70
88
88
88
88
70
ENDCHAR
STARTCHAR 0070
ENCODING 112
SWIDTH 583 0
DWIDTH 7 0
BBX 6 8 1 -2
BITMAP
B8
C8
84
84
88
F8
80
80
ENDCHAR
STARTCHAR 0071
ENCODING 113
SWIDTH 583 0
DWIDTH 7 0
BBX 5 8 1 -2
BITMAP
78
88
88
88
88
78
08
08
ENDCHAR
STARTCHAR 0072
ENCODING 114
SWIDTH 416 0
DWIDTH 5 0
BBX 4 6 1 0
BITMAP
F0
40
80
80
80
C0
ENDCHAR
STARTCHAR 0073
ENCODING 115
SWIDTH 500 0
DWIDTH 6 0
BBX 4 6 1 0
BITMAP
F0
90
80
60
90
F0
ENDCHAR
STARTCHAR 0074
ENCODING 116
SWIDTH 333 0
DWIDTH 4 0
BBX 4 7 0 1
BITMAP
40
F0
40
40
40
40
70
ENDCHAR
STARTCHAR 0075
ENCODING 117
SWIDTH 583 0
DWIDTH 7 0
BBX 5 6 1 0
BITMAP
88
88
88
88
88
78
ENDCHAR
STARTCHAR 0076
ENCODING 118
SWIDTH 500 0
DWIDTH 6 0
BBX 5 6 1 0
BITMAP
88
90
90
60
60
20
ENDCHAR
STARTCHAR 0077
ENCODING 119
SWIDTH 750 0
DWIDTH 9 0
BBX 8 6 1 0
BITMAP
91
92
9A
6A
6C
44
ENDCHAR
STARTCHAR 0078
ENCODING 120
SWIDTH 500 0
DWIDTH 6 0
BBX 5 6 1 0
BITMAP
88
50
60
60
90
98
ENDCHAR
STARTCHAR 0079
ENCODING 121
SWIDTH 500 0
DWIDTH 6 0
BBX 5 8 1 -2
BITMAP
88
90
90
60
60
20
40
C0
ENDCHAR
STARTCHAR 007A
ENCODING 122
SWIDTH 500 0
DWIDTH 6 0
BBX 5 6 0 0
BITMAP
78
10
10
20
40
F8
ENDCHAR
STARTCHAR 007B
ENCODING 123
SWIDTH 333 0
DWIDTH 4 0
BBX 1 11 1 -2
BITMAP
80
80
80
80
80
80
80
80
80
80
80
ENDCHAR
STARTCHAR 007C
ENCODING 124
SWIDTH 166 0
DWIDTH 2 0
BBX 1 9 0 -1
BITMAP
80
80
80
80
80
80
80
80
80
ENDCHAR
STARTCHAR 007D
ENCODING 125
SWIDTH 333 0
DWIDTH 4 0
BBX 3 11 1 -2
BITMAP
80
40
40
40
40
20
40
40
40
40
40
ENDCHAR
STARTCHAR 007E
ENCODING 126
SWIDTH 500 0
DWIDTH 6 0
BBX 3 1 2 8
BITMAP
E0
ENDCHAR
STARTCHAR 00A0
ENCODING 160
SWIDTH 250 0
DWIDTH 3 0
BBX 0 0 0 0
BITMAP
ENDCHAR
STARTCHAR 00A1
ENCODING 161
SWIDTH 250 0
DWIDTH 3 0
BBX 1 9 1 0
BITMAP
80
00
00
80
80
80
80
80
80
ENDCHAR
STARTCHAR 00A2
ENCODING 162
SWIDTH 583 0
DWIDTH 7 0
BBX 5 8 1 1
BITMAP
10
70
A8
A0
A0
C0
78
40
ENDCHAR
STARTCHAR 00A3
ENCODING 163
SWIDTH 750 0
DWIDTH 9 0
BBX 7 9 1 0
BITMAP
3C
24
20
20
78
20
20
F0
EE
ENDCHAR
STARTCHAR 00A4
ENCODING 164
SWIDTH 583 0
DWIDTH 7 0
BBX 5 5 1 1
BITMAP
F8
88
88
88
F0
ENDCHAR
STARTCHAR 00A5
ENCODING 165
SWIDTH 583 0
DWIDTH 7 0
BBX 6 9 1 0
BITMAP
84
88
50
50
FC
20
FC
20
20
ENDCHAR
STARTCHAR 00A6
ENCODING 166
SWIDTH 166 0
DWIDTH 2 0
BBX 1 9 0 -1
BITMAP
80
80
80
00
00
00
80
80
80
ENDCHAR
STARTCHAR 00A7
ENCODING 167
SWIDTH 666 0
DWIDTH 8 0
BBX 5 11 2 -1
BITMAP
70
90
90
80
F0
90
88
70
10
88
F0
ENDCHAR
STARTCHAR 00A8
ENCODING 168
SWIDTH 500 0
DWIDTH 6 0
BBX 4 1 1 8
BITMAP
90
ENDCHAR
STARTCHAR 00A9
ENCODING 169
SWIDTH 1000 0
DWIDTH 12 0
BBX 10 10 1 -1
BITMAP
1E00
7D80
5280
A040
A040
A040
9240
4E80
6180
1E00
ENDCHAR
STARTCHAR 00AA
ENCODING 170
SWIDTH 416 0
DWIDTH 5 0
BBX 3 6 1 3
BITMAP
E0
20
E0
E0
00
E0
ENDCHAR
STARTCHAR 00AB
ENCODING 171
SWIDTH 500 0
DWIDTH 6 0
BBX 4 5 1 1
BITMAP
50
A0
A0
90
40
ENDCHAR
STARTCHAR 00AC
ENCODING 172
SWIDTH 666 0
DWIDTH 8 0
BBX 6 3 1 2
BITMAP
FC
04
04
ENDCHAR
STARTCHAR 00AD
ENCODING 173
SWIDTH 666 0
DWIDTH 8 0
BBX 6 1 1 3
BITMAP
FC
ENDCHAR
STARTCHAR 00AE
ENCODING 174
SWIDTH 1000 0
DWIDTH 12 0
BBX 10 10 1 -1
BITMAP
1E00
6180
5E80
9240
9240
9C40
9240
5180
6180
1E00
ENDCHAR
STARTCHAR 00AF
ENCODING 175
SWIDTH 500 0
DWIDTH 6 0
BBX 4 1 1 7
BITMAP
F0
ENDCHAR
STARTCHAR 00B0
ENCODING 176
SWIDTH 333 0
DWIDTH 4 0
BBX 2 2 1 8
BITMAP
C0
C0
ENDCHAR
STARTCHAR 00B1
ENCODING 177
SWIDTH 666 0
DWIDTH 8 0
BBX 6 6 1 1
BITMAP
20
20
FC
20
00
FC
ENDCHAR
STARTCHAR 00B2
ENCODING 178
SWIDTH 333 0
DWIDTH 4 0
BBX 3 5 1 4
BITMAP
C0
A0
40
A0
E0
ENDCHAR
STARTCHAR 00B3
ENCODING 179
SWIDTH 333 0
DWIDTH 4 0
BBX 3 5 1 4
BITMAP
C0
A0
40
A0
E0
ENDCHAR
STARTCHAR 00B4
ENCODING 180
SWIDTH 500 0
DWIDTH 6 0
BBX 1 1 3 8
BITMAP
80
ENDCHAR
STARTCHAR 00B6
ENCODING 182
SWIDTH 1000 0
DWIDTH 12 0
BBX 5 11 3 -1
BITMAP
78
E8
E8
E8
68
28
28
28
28
28
28
ENDCHAR
STARTCHAR 00B7
ENCODING 183
SWIDTH 250 0
DWIDTH 3 0
BBX 1 1 1 3
BITMAP
80
ENDCHAR
STARTCHAR 00B8
ENCODING 184
SWIDTH 500 0
DWIDTH 6 0
BBX 2 3 2 -3
BITMAP
80
40
C0
ENDCHAR
STARTCHAR 00B9
ENCODING 185
SWIDTH 333 0
DWIDTH 4 0
BBX 1 4 2 4
BITMAP
80
80
80
80
ENDCHAR
STARTCHAR 00BA
ENCODING 186
SWIDTH 416 0
DWIDTH 5 0
BBX 3 6 1 3
BITMAP
E0
A0
A0
E0
00
E0
ENDCHAR
STARTCHAR 00BB
ENCODING 187
SWIDTH 500 0
DWIDTH 6 0
BBX 4 5 1 1
BITMAP
A0
90
50
A0
20
ENDCHAR
STARTCHAR 00BC
ENCODING 188
SWIDTH 750 0
DWIDTH 9 0
BBX 8 9 1 0
BITMAP
42
44
44
48
50
26
2A
4F
82
ENDCHAR
STARTCHAR 00BD
ENCODING 189
SWIDTH 750 0
DWIDTH 9 0
BBX 8 9 1 0
BITMAP
42
44
44
48
50
26
22
4D
8E
ENDCHAR
STARTCHAR 00BE
ENCODING 190
SWIDTH 750 0
DWIDTH 9 0
BBX 8 9 1 0
BITMAP
C2
A4
48
A8
F2
26
2A
4F
82
ENDCHAR
STARTCHAR 00BF
ENCODING 191
SWIDTH 500 0
DWIDTH 6 0
BBX 5 9 1 0
BITMAP
20
00
20
20
40
80
98
90
70
ENDCHAR
STARTCHAR 00C0
ENCODING 192
SWIDTH 750 0
DWIDTH 9 0
BBX 7 11 1 0
BITMAP
20
10
10
10
30
48
48
7C
84
84
82
ENDCHAR
STARTCHAR 00C1
ENCODING 193
SWIDTH 750 0
DWIDTH 9 0
BBX 7 11 1 0
BITMAP
08
10
10
10
30
48
48
7C
84
84
82
ENDCHAR
STARTCHAR 00C2
ENCODING 194
SWIDTH 750 0
DWIDTH 9 0
BBX 7 11 1 0
BITMAP
30
00
10
10
28
48
48
7C
84
84
82
ENDCHAR
STARTCHAR 00C3
ENCODING 195
SWIDTH 750 0
DWIDTH 9 0
BBX 7 11 1 0
BITMAP
38
00
10
10
28
48
48
7C
84
84
82
ENDCHAR
STARTCHAR 00C4
ENCODING 196
SWIDTH 750 0
DWIDTH 9 0
BBX 7 11 1 0
BITMAP
28
00
10
10
28
48
48
7C
84
84
82
ENDCHAR
STARTCHAR 00C5
ENCODING 197
SWIDTH 750 0
DWIDTH 9 0
BBX 7 11 1 0
BITMAP
10
10
10
10
30
48
48
7C
84
84
82
ENDCHAR
STARTCHAR 00C6
ENCODING 198
SWIDTH 1000 0
DWIDTH 12 0
BBX 10 9 1 0
BITMAP
1FC0
1840
2800
2900
3F00
4800
4800
8840
8FC0
ENDCHAR
STARTCHAR 00C7
ENCODING 199
SWIDTH 750 0
DWIDTH 9 0
BBX 7 12 1 -3
BITMAP
3C
42
80
80
80
80
82
42
3C
10
08
30
ENDCHAR
STARTCHAR 00C8
ENCODING 200
SWIDTH 666 0
DWIDTH 8 0
BBX 7 11 1 0
BITMAP
20
10
EC
40
40
48
78
48
42
42
7E
ENDCHAR
STARTCHAR 00C9
ENCODING 201
SWIDTH 666 0
DWIDTH 8 0
BBX 7 11 1 0
BITMAP
08
10
EC
40
40
48
78
48
42
42
7E
ENDCHAR
STARTCHAR 00CA
ENCODING 202
SWIDTH 666 0
DWIDTH 8 0
BBX 7 11 1 0
BITMAP
38
00
FC
40
40
48
78
48
42
42
7E
ENDCHAR
STARTCHAR 00CB
ENCODING 203
SWIDTH 666 0
DWIDTH 8 0
BBX 7 11 1 0
BITMAP
28
00
FC
40
40
48
78
48
42
42
7E
ENDCHAR
STARTCHAR 00CC
ENCODING 204
SWIDTH 416 0
DWIDTH 5 0
BBX 2 11 1 0
BITMAP
80
40
C0
40
40
40
40
40
40
40
C0
ENDCHAR
STARTCHAR 00CD
ENCODING 205
SWIDTH 416 0
DWIDTH 5 0
BBX 3 11 1 0
BITMAP
20
40
C0
40
40
40
40
40
40
40
C0
ENDCHAR
STARTCHAR 00CE
ENCODING 206
SWIDTH 416 0
DWIDTH 5 0
BBX 2 11 1 0
BITMAP
C0
00
C0
40
40
40
40
40
40
40
C0
ENDCHAR
STARTCHAR 00CF
ENCODING 207
SWIDTH 416 0
DWIDTH 5 0
BBX 4 11 0 0
BITMAP
D0
00
60
20
20
20
20
20
20
20
60
ENDCHAR
STARTCHAR 00D0
ENCODING 208
SWIDTH 750 0
DWIDTH 9 0
BBX 8 9 1 0
BITMAP
7C
42
42
41
F1
41
42
42
7C
ENDCHAR
STARTCHAR 00D1
ENCODING 209
SWIDTH 833 0
DWIDTH 10 0
BBX 8 11 1 0
BITMAP
3C
00
C3
A2
A2
92
8A
8A
86
82
C2
ENDCHAR
STARTCHAR 00D2
ENCODING 210
SWIDTH 833 0
DWIDTH 10 0
BBX 8 11 1 0
BITMAP
20
10
3C
C2
83
81
81
81
83
42
3C
ENDCHAR
STARTCHAR 00D3
ENCODING 211
SWIDTH 833 0
DWIDTH 10 0
BBX 8 11 1 0
BITMAP
08
10
3C
C2
83
81
81
81
83
42
3C
ENDCHAR
STARTCHAR 00D4
ENCODING 212
SWIDTH 833 0
DWIDTH 10 0
BBX 8 11 1 0
BITMAP
18
00
3C
C2
83
81
81
81
83
42
3C
ENDCHAR
STARTCHAR 00D5
ENCODING 213
SWIDTH 833 0
DWIDTH 10 0
BBX 8 11 1 0
BITMAP
3C
00
3C
C2
83
81
81
81
83
42
3C
ENDCHAR
STARTCHAR 00D6
ENCODING 214
SWIDTH 833 0
DWIDTH 10 0
BBX 8 11 1 0
BITMAP
24
00
3C
C2
83
81
81
81
83
42
3C
ENDCHAR
STARTCHAR 00D7
ENCODING 215
SWIDTH 666 0
DWIDTH 8 0
BBX 5 5 2 1
BITMAP
90
60
20
D0
08
ENDCHAR
STARTCHAR 00D8
ENCODING 216
SWIDTH 833 0
DWIDTH 10 0
BBX 8 9 1 0
BITMAP
3E
42
85
89
91
A1
A3
42
BC
ENDCHAR
STARTCHAR 00D9
ENCODING 217
SWIDTH 833 0
DWIDTH 10 0
BBX 8 11 1 0
BITMAP
20
10
C3
82
82
82
82
82
42
42
3C
ENDCHAR
STARTCHAR 00DA
ENCODING 218
SWIDTH 833 0
DWIDTH 10 0
BBX 8 11 1 0
BITMAP
04
08
C3
82
82
82
82
82
42
42
3C
ENDCHAR
STARTCHAR 00DB
ENCODING 219
SWIDTH 833 0
DWIDTH 10 0
BBX 8 11 1 0
BITMAP
18
00
C3
82
82
82
82
82
42
42
3C
ENDCHAR
STARTCHAR 00DC
ENCODING 220
SWIDTH 833 0
DWIDTH 10 0
BBX 8 11 1 0
BITMAP
24
00
C3
82
82
82
82
82
42
42
3C
ENDCHAR
STARTCHAR 00DD
ENCODING 221
SWIDTH 666 0
DWIDTH 8 0
BBX 7 11 1 0
BITMAP
08
10
86
84
48
28
30
10
10
10
30
ENDCHAR
STARTCHAR 00DE
ENCODING 222
SWIDTH 666 0
DWIDTH 8 0
BBX 7 9 1 0
BITMAP
C0
40
7C
42
42
42
4C
70
C0
ENDCHAR
STARTCHAR 00DF
ENCODING 223
SWIDTH 583 0
DWIDTH 7 0
BBX 5 9 1 0
BITMAP
70
90
90
90
B0
88
88
88
B0
ENDCHAR
STARTCHAR 00E0
ENCODING 224
SWIDTH 583 0
DWIDTH 7 0
BBX 5 9 1 0
BITMAP
40
20
00
70
90
30
D0
90
E8
ENDCHAR
STARTCHAR 00E1
ENCODING 225
SWIDTH 583 0
DWIDTH 7 0
BBX 5 8 1 1
BITMAP
20
00
70
90
30
D0
90
E8
ENDCHAR
STARTCHAR 00E2
ENCODING 226
SWIDTH 583 0
DWIDTH 7 0
BBX 5 8 1 1
BITMAP
60
00
70
90
30
D0
90
E8
ENDCHAR
STARTCHAR 00E3
ENCODING 227
SWIDTH 583 0
DWIDTH 7 0
BBX 5 9 1 0
BITMAP
70
00
00
70
90
30
D0
90
E8
ENDCHAR
STARTCHAR 00E4
ENCODING 228
SWIDTH 583 0
DWIDTH 7 0
BBX 5 9 1 0
BITMAP
50
00
00
70
90
30
D0
90
E8
ENDCHAR
STARTCHAR 00E5
ENCODING 229
SWIDTH 583 0
DWIDTH 7 0
BBX 5 9 1 0
BITMAP
60
60
00
70
90
30
D0
90
E8
ENDCHAR
STARTCHAR 00E6
ENCODING 230
SWIDTH 833 0
DWIDTH 10 0
BBX 9 6 1 0
BITMAP
7F00
9900
7F80
9000
8800
FF00
ENDCHAR
STARTCHAR 00E7
ENCODING 231
SWIDTH 500 0
DWIDTH 6 0
BBX 5 9 1 -3
BITMAP
70
88
80
80
88
70
40
30
60
ENDCHAR
STARTCHAR 00E8
ENCODING 232
SWIDTH 583 0
DWIDTH 7 0
BBX 5 9 1 0
BITMAP
40
20
00
70
88
F8
80
80
78
ENDCHAR
STARTCHAR 00E9
ENCODING 233
SWIDTH 583 0
DWIDTH 7 0
BBX 5 9 1 0
BITMAP
10
20
00
70
88
F8
80
80
78
ENDCHAR
STARTCHAR 00EA
ENCODING 234
SWIDTH 583 0
DWIDTH 7 0
BBX 5 9 1 0
BITMAP
20
50
00
70
88
F8
80
80
78
ENDCHAR
STARTCHAR 00EB
ENCODING 235
SWIDTH 583 0
DWIDTH 7 0
BBX 5 9 1 0
BITMAP
50
00
00
70
88
F8
80
80
78
ENDCHAR
STARTCHAR 00EC
ENCODING 236
SWIDTH 333 0
DWIDTH 4 0
BBX 1 8 1 1
BITMAP
80
00
80
80
80
80
80
80
ENDCHAR
STARTCHAR 00ED
ENCODING 237
SWIDTH 333 0
DWIDTH 4 0
BBX 2 9 1 0
BITMAP
40
80
00
80
80
80
80
80
80
ENDCHAR
STARTCHAR 00EE
ENCODING 238
SWIDTH 333 0
DWIDTH 4 0
BBX 3 8 0 0
BITMAP
E0
00
40
40
40
40
40
40
ENDCHAR
STARTCHAR 00EF
ENCODING 239
SWIDTH 333 0
DWIDTH 4 0
BBX 3 9 0 0
BITMAP
A0
00
00
40
40
40
40
40
40
ENDCHAR
STARTCHAR 00F0
ENCODING 240
SWIDTH 583 0
DWIDTH 7 0
BBX 5 9 1 0
BITMAP
60
50
10
78
88
88
88
88
70
ENDCHAR
STARTCHAR 00F1
ENCODING 241
SWIDTH 666 0
DWIDTH 8 0
BBX 6 9 1 0
BITMAP
60
10
00
B8
48
88
88
88
CC
ENDCHAR
STARTCHAR 00F2
ENCODING 242
SWIDTH 583 0
DWIDTH 7 0
BBX 5 9 1 0
BITMAP
40
20
00
70
88
88
88
88
70
ENDCHAR
STARTCHAR 00F3
ENCODING 243
SWIDTH 583 0
DWIDTH 7 0
BBX 5 9 1 0
BITMAP
10
20
00
70
88
88
88
88
70
ENDCHAR
STARTCHAR 00F4
ENCODING 244
SWIDTH 583 0
DWIDTH 7 0
BBX 5 9 1 0
BITMAP
20
50
00
70
88
88
88
88
70
ENDCHAR
STARTCHAR 00F5
ENCODING 245
SWIDTH 583 0
DWIDTH 7 0
BBX 5 9 1 0
BITMAP
70
00
00
70
88
88
88
88
70
ENDCHAR
STARTCHAR 00F6
ENCODING 246
SWIDTH 583 0
DWIDTH 7 0
BBX 5 9 1 0
BITMAP
50
00
00
70
88
88
88
88
70
ENDCHAR
STARTCHAR 00F7
ENCODING 247
SWIDTH 666 0
DWIDTH 8 0
BBX 6 5 1 1
BITMAP
30
30
FC
30
30
ENDCHAR
STARTCHAR 00F8
ENCODING 248
SWIDTH 583 0
DWIDTH 7 0
BBX 5 6 1 0
BITMAP
78
98
A8
C8
C8
F0
ENDCHAR
STARTCHAR 00F9
ENCODING 249
SWIDTH 583 0
DWIDTH 7 0
BBX 5 9 1 0
BITMAP
40
20
00
88
88
88
88
88
78
ENDCHAR
STARTCHAR 00FA
ENCODING 250
SWIDTH 583 0
DWIDTH 7 0
BBX 5 9 1 0
BITMAP
10
20
00
88
88
88
88
88
78
ENDCHAR
STARTCHAR 00FB
ENCODING 251
SWIDTH 583 0
DWIDTH 7 0
BBX 5 8 1 0
BITMAP
70
00
88
88
88
88
88
78
ENDCHAR
STARTCHAR 00FC
ENCODING 252
SWIDTH 583 0
DWIDTH 7 0
BBX 5 9 1 0
BITMAP
50
00
00
88
88
88
88
88
78
ENDCHAR
STARTCHAR 00FD
ENCODING 253
SWIDTH 500 0
DWIDTH 6 0
BBX 5 11 1 -2
BITMAP
10
20
00
88
90
90
60
60
20
40
C0
ENDCHAR
STARTCHAR 00FE
ENCODING 254
SWIDTH 583 0
DWIDTH 7 0
BBX 7 11 0 -2
BITMAP
C0
40
40
78
44
42
42
44
78
40
40
ENDCHAR
STARTCHAR 00FF
ENCODING 255
SWIDTH 500 0
DWIDTH 6 0
BBX 5 11 1 -2
BITMAP
50
00
00
88
90
90
60
60
20
40
C0
ENDCHAR
STARTCHAR 0100
ENCODING 256
SWIDTH 750 0
DWIDTH 9 0
BBX 7 10 1 0
BITMAP
38
00
10
10
68
48
7C
84
84
82
ENDCHAR
STARTCHAR 0101
ENCODING 257
SWIDTH 583 0
DWIDTH 7 0
BBX 5 8 1 0
BITMAP
70
00
70
90
70
90
90
E8
ENDCHAR
STARTCHAR 0102
ENCODING 258
SWIDTH 750 0
DWIDTH 9 0
BBX 7 11 1 0
BITMAP
38
00
10
10
28
48
48
7C
84
84
82
ENDCHAR
STARTCHAR 0103
ENCODING 259
SWIDTH 583 0
DWIDTH 7 0
BBX 5 9 1 0
BITMAP
10
60
00
70
90
70
90
90
E8
ENDCHAR
STARTCHAR 0104
ENCODING 260
SWIDTH 750 0
DWIDTH 9 0
BBX 7 12 1 -3
BITMAP
10
10
28
48
48
7C
84
84
82
04
08
06
ENDCHAR
STARTCHAR 0105
ENCODING 261
SWIDTH 583 0
DWIDTH 7 0
BBX 5 9 1 -3
BITMAP
70
90
30
D0
90
F0
10
20
18
ENDCHAR
STARTCHAR 0106
ENCODING 262
SWIDTH 750 0
DWIDTH 9 0
BBX 7 11 1 0
BITMAP
08
10
3C
42
80
80
80
80
82
42
3C
ENDCHAR
STARTCHAR 0107
ENCODING 263
SWIDTH 500 0
DWIDTH 6 0
BBX 5 9 1 0
BITMAP
10
20
00
70
88
80
80
88
70
ENDCHAR
STARTCHAR 0108
ENCODING 264
SWIDTH 750 0
DWIDTH 9 0
BBX 7 11 1 0
BITMAP
18
00
3C
42
80
80
80
80
82
42
3C
ENDCHAR
STARTCHAR 0109
ENCODING 265
SWIDTH 500 0
DWIDTH 6 0
BBX 5 9 1 0
BITMAP
20
50
00
70
88
80
80
88
70
ENDCHAR
STARTCHAR 010C
ENCODING 268
SWIDTH 750 0
DWIDTH 9 0
BBX 7 11 1 0
BITMAP
38
00
3C
42
80
80
80
80
82
42
3C
ENDCHAR
STARTCHAR 010D
ENCODING 269
SWIDTH 500 0
DWIDTH 6 0
BBX 5 9 1 0
BITMAP
50
20
00
70
88
80
80
88
70
ENDCHAR
STARTCHAR 010E
ENCODING 270
SWIDTH 750 0
DWIDTH 9 0
BBX 8 11 1 0
BITMAP
28
10
FC
42
42
41
41
41
42
42
FC
ENDCHAR
STARTCHAR 010F
ENCODING 271
SWIDTH 583 0
DWIDTH 7 0
BBX 7 9 1 0
BITMAP
1A
0A
08
78
88
88
88
88
78
ENDCHAR
STARTCHAR 0111
ENCODING 273
SWIDTH 583 0
DWIDTH 7 0
BBX 6 8 1 1
BITMAP
08
3C
78
88
88
88
88
78
ENDCHAR
STARTCHAR 0112
ENCODING 274
SWIDTH 666 0
DWIDTH 8 0
BBX 7 10 1 0
BITMAP
38
C4
40
40
48
78
48
42
42
7E
ENDCHAR
STARTCHAR 0113
ENCODING 275
SWIDTH 583 0
DWIDTH 7 0
BBX 5 8 1 0
BITMAP
70
00
70
88
F8
80
80
78
ENDCHAR
STARTCHAR 0118
ENCODING 280
SWIDTH 666 0
DWIDTH 8 0
BBX 7 12 1 -3
BITMAP
FC
40
40
48
78
48
42
42
46
38
40
30
ENDCHAR
STARTCHAR 0119
ENCODING 281
SWIDTH 583 0
DWIDTH 7 0
BBX 5 9 1 -3
BITMAP
70
88
F8
80
80
98
60
40
70
ENDCHAR
STARTCHAR 011A
ENCODING 282
SWIDTH 666 0
DWIDTH 8 0
BBX 7 11 1 0
BITMAP
28
10
FC
40
40
48
78
48
42
42
7E
ENDCHAR
STARTCHAR 011B
ENCODING 283
SWIDTH 583 0
DWIDTH 7 0
BBX 5 9 1 0
BITMAP
50
20
00
70
88
F8
80
80
78
ENDCHAR
STARTCHAR 011C
ENCODING 284
SWIDTH 750 0
DWIDTH 9 0
BBX 7 11 1 0
BITMAP
18
00
3C
42
80
80
80
82
82
42
3C
ENDCHAR
STARTCHAR 011D
ENCODING 285
SWIDTH 583 0
DWIDTH 7 0
BBX 5 10 1 -2
BITMAP
60
00
70
88
88
70
80
F8
88
F0
ENDCHAR
STARTCHAR 0124
ENCODING 292
SWIDTH 833 0
DWIDTH 10 0
BBX 7 11 1 0
BITMAP
18
00
C2
42
42
42
7E
42
42
42
42
ENDCHAR
STARTCHAR 0125
ENCODING 293
SWIDTH 583 0
DWIDTH 7 0
BBX 6 10 0 1
BITMAP
60
C0
40
40
5C
64
44
44
44
44
ENDCHAR
STARTCHAR 0127
ENCODING 295
SWIDTH 583 0
DWIDTH 7 0
BBX 6 8 0 1
BITMAP
40
F0
5C
64
44
44
44
44
ENDCHAR
STARTCHAR 012A
ENCODING 298
SWIDTH 416 0
DWIDTH 5 0
BBX 3 10 1 0
BITMAP
E0
C0
40
40
40
40
40
40
40
C0
ENDCHAR
STARTCHAR 012B
ENCODING 299
SWIDTH 333 0
DWIDTH 4 0
BBX 3 8 0 0
BITMAP
E0
00
C0
40
40
40
40
40
ENDCHAR
STARTCHAR 0134
ENCODING 308
SWIDTH 500 0
DWIDTH 6 0
BBX 5 11 0 0
BITMAP
38
00
10
10
10
10
10
10
10
90
60
ENDCHAR
STARTCHAR 0135
ENCODING 309
SWIDTH 333 0
DWIDTH 4 0
BBX 4 10 -1 -2
BITMAP
30
00
20
20
20
20
20
20
20
E0
ENDCHAR
STARTCHAR 0139
ENCODING 313
SWIDTH 583 0
DWIDTH 7 0
BBX 6 11 1 0
BITMAP
20
40
C0
40
40
40
40
40
40
44
FC
ENDCHAR
STARTCHAR 013A
ENCODING 314
SWIDTH 333 0
DWIDTH 4 0
BBX 3 11 0 0
BITMAP
20
40
C0
40
40
40
40
40
40
40
40
ENDCHAR
STARTCHAR 013D
ENCODING 317
SWIDTH 583 0
DWIDTH 7 0
BBX 6 9 1 0
BITMAP
C8
48
40
40
40
40
40
44
FC
ENDCHAR
STARTCHAR 013E
ENCODING 318
SWIDTH 333 0
DWIDTH 4 0
BBX 4 9 0 0
BITMAP
D0
50
40
40
40
40
40
40
40
ENDCHAR
STARTCHAR 0141
ENCODING 321
SWIDTH 583 0
DWIDTH 7 0
BBX 6 9 1 0
BITMAP
E0
40
40
40
60
C0
40
44
7C
ENDCHAR
STARTCHAR 0142
ENCODING 322
SWIDTH 333 0
DWIDTH 4 0
BBX 3 9 0 0
BITMAP
C0
40
40
60
40
C0
40
40
40
ENDCHAR
STARTCHAR 0143
ENCODING 323
SWIDTH 833 0
DWIDTH 10 0
BBX 8 11 1 0
BITMAP
08
10
C3
A2
A2
92
8A
8A
86
82
C2
ENDCHAR
STARTCHAR 0144
ENCODING 324
SWIDTH 666 0
DWIDTH 8 0
BBX 6 6 1 3
BITMAP
B8
48
88
88
88
CC
ENDCHAR
STARTCHAR 0147
ENCODING 327
SWIDTH 833 0
DWIDTH 10 0
BBX 8 11 1 0
BITMAP
18
00
C3
A2
A2
92
8A
8A
86
82
C2
ENDCHAR
STARTCHAR 0148
ENCODING 328
SWIDTH 666 0
DWIDTH 8 0
BBX 6 9 1 0
BITMAP
50
20
00
B8
48
88
88
88
CC
ENDCHAR
STARTCHAR 014B
ENCODING 331
SWIDTH 666 0
DWIDTH 8 0
BBX 5 8 1 -2
BITMAP
B8
48
88
88
88
C8
08
38
ENDCHAR
STARTCHAR 014C
ENCODING 332
SWIDTH 833 0
DWIDTH 10 0
BBX 8 10 1 0
BITMAP
38
3C
C2
83
81
81
81
83
42
3C
ENDCHAR
STARTCHAR 014D
ENCODING 333
SWIDTH 583 0
DWIDTH 7 0
BBX 5 8 1 0
BITMAP
70
00
70
88
88
88
88
70
ENDCHAR
STARTCHAR 0150
ENCODING 336
SWIDTH 833 0
DWIDTH 10 0
BBX 8 11 1 0
BITMAP
14
08
3C
C2
83
81
81
81
83
42
3C
ENDCHAR
STARTCHAR 0151
ENCODING 337
SWIDTH 583 0
DWIDTH 7 0
BBX 5 9 1 0
BITMAP
28
10
00
70
88
88
88
88
70
ENDCHAR
STARTCHAR 0152
ENCODING 338
SWIDTH 1083 0
DWIDTH 13 0
BBX 11 9 1 0
BITMAP
3FE0
4420
8400
8480
8780
8480
8400
8420
7FE0
ENDCHAR
STARTCHAR 0153
ENCODING 339
SWIDTH 916 0
DWIDTH 11 0
BBX 9 6 1 0
BITMAP
7700
8880
8F80
8800
8800
7780
ENDCHAR
STARTCHAR 0154
ENCODING 340
SWIDTH 666 0
DWIDTH 8 0
BBX 7 11 1 0
BITMAP
08
10
F8
44
44
44
78
48
44
44
C2
ENDCHAR
STARTCHAR 0155
ENCODING 341
SWIDTH 416 0
DWIDTH 5 0
BBX 4 9 1 0
BITMAP
20
40
00
F0
40
80
80
80
C0
ENDCHAR
STARTCHAR 0158
ENCODING 344
SWIDTH 666 0
DWIDTH 8 0
BBX 7 11 1 0
BITMAP
30
00
F8
44
44
44
78
48
44
44
C2
ENDCHAR
STARTCHAR 0159
ENCODING 345
SWIDTH 416 0
DWIDTH 5 0
BBX 4 9 1 0
BITMAP
A0
40
00
F0
40
80
80
80
C0
ENDCHAR
STARTCHAR 015A
ENCODING 346
SWIDTH 583 0
DWIDTH 7 0
BBX 6 11 1 0
BITMAP
10
20
78
88
80
80
70
08
84
88
78
ENDCHAR
STARTCHAR 015B
ENCODING 347
SWIDTH 500 0
DWIDTH 6 0
BBX 4 9 1 0
BITMAP
20
40
00
F0
90
80
60
90
F0
ENDCHAR
STARTCHAR 015C
ENCODING 348
SWIDTH 583 0
DWIDTH 7 0
BBX 6 11 1 0
BITMAP
30
00
78
88
80
80
70
08
84
88
78
ENDCHAR
STARTCHAR 015D
ENCODING 349
SWIDTH 500 0
DWIDTH 6 0
BBX 4 8 1 1
BITMAP
60
00
F0
90
80
60
90
F0
ENDCHAR
STARTCHAR 015E
ENCODING 350
SWIDTH 583 0
DWIDTH 7 0
BBX 6 12 1 -3
BITMAP
78
88
80
80
70
08
84
88
78
00
20
20
ENDCHAR
STARTCHAR 015F
ENCODING 351
SWIDTH 500 0
DWIDTH 6 0
BBX 4 9 1 -3
BITMAP
F0
90
80
60
90
F0
00
20
40
ENDCHAR
STARTCHAR 0160
ENCODING 352
SWIDTH 583 0
DWIDTH 7 0
BBX 6 11 1 0
BITMAP
50
20
78
88
80
80
70
08
04
88
78
ENDCHAR
STARTCHAR 0161
ENCODING 353
SWIDTH 500 0
DWIDTH 6 0
BBX 4 9 1 0
BITMAP
A0
40
00
F0
90
80
60
90
F0
ENDCHAR
STARTCHAR 0162
ENCODING 354
SWIDTH 583 0
DWIDTH 7 0
BBX 7 12 0 -3
BITMAP
FE
90
10
10
10
10
10
10
18
00
10
10
ENDCHAR
STARTCHAR 0163
ENCODING 355
SWIDTH 333 0
DWIDTH 4 0
BBX 4 9 0 -2
BITMAP
40
F0
40
40
40
40
70
00
20
ENDCHAR
STARTCHAR 0164
ENCODING 356
SWIDTH 583 0
DWIDTH 7 0
BBX 7 11 0 0
BITMAP
28
10
FE
90
10
10
10
10
10
10
18
ENDCHAR
STARTCHAR 0165
ENCODING 357
SWIDTH 333 0
DWIDTH 4 0
BBX 4 9 0 0
BITMAP
10
10
40
F0
40
40
40
40
70
ENDCHAR
STARTCHAR 016A
ENCODING 362
SWIDTH 833 0
DWIDTH 10 0
BBX 8 10 1 0
BITMAP
3C
C3
82
82
82
82
82
42
42
3C
ENDCHAR
STARTCHAR 016B
ENCODING 363
SWIDTH 583 0
DWIDTH 7 0
BBX 6 8 0 0
BITMAP
38
00
CC
44
44
44
44
3C
ENDCHAR
STARTCHAR 016C
ENCODING 364
SWIDTH 833 0
DWIDTH 10 0
BBX 8 11 1 0
BITMAP
18
00
C3
82
82
82
82
82
42
42
3C
ENDCHAR
STARTCHAR 016D
ENCODING 365
SWIDTH 583 0
DWIDTH 7 0
BBX 6 8 0 0
BITMAP
38
00
CC
44
44
44
44
3C
ENDCHAR
STARTCHAR 016E
ENCODING 366
SWIDTH 833 0
DWIDTH 10 0
BBX 8 11 1 0
BITMAP
18
18
C3
82
82
82
82
82
42
42
3C
ENDCHAR
STARTCHAR 016F
ENCODING 367
SWIDTH 583 0
DWIDTH 7 0
BBX 5 9 1 0
BITMAP
20
20
00
88
88
88
88
88
78
ENDCHAR
STARTCHAR 0170
ENCODING 368
SWIDTH 833 0
DWIDTH 10 0
BBX 8 11 1 0
BITMAP
14
08
C3
82
82
82
82
82
42
42
3C
ENDCHAR
STARTCHAR 0171
ENCODING 369
SWIDTH 583 0
DWIDTH 7 0
BBX 6 9 0 0
BITMAP
14
08
00
CC
44
44
44
44
3C
ENDCHAR
STARTCHAR 0179
ENCODING 377
SWIDTH 666 0
DWIDTH 8 0
BBX 7 11 0 0
BITMAP
08
10
7E
84
04
08
10
20
60
42
FE
ENDCHAR
STARTCHAR 017A
ENCODING 378
SWIDTH 500 0
DWIDTH 6 0
BBX 5 8 0 1
BITMAP
10
00
78
08
10
20
40
F8
ENDCHAR
STARTCHAR 017B
ENCODING 379
SWIDTH 666 0
DWIDTH 8 0
BBX 7 11 0 0
BITMAP
10
00
7E
84
04
08
10
20
60
42
FE
ENDCHAR
STARTCHAR 017C
ENCODING 380
SWIDTH 500 0
DWIDTH 6 0
BBX 5 9 0 0
BITMAP
30
00
00
78
08
10
20
40
F8
ENDCHAR
STARTCHAR 017D
ENCODING 381
SWIDTH 666 0
DWIDTH 8 0
BBX 7 11 0 0
BITMAP
28
10
7E
84
04
08
10
20
60
42
FE
ENDCHAR
STARTCHAR 017E
ENCODING 382
SWIDTH 500 0
DWIDTH 6 0
BBX 5 9 0 0
BITMAP
50
20
00
78
08
10
20
40
F8
ENDCHAR
STARTCHAR 0193
ENCODING 403
SWIDTH 750 0
DWIDTH 9 0
BBX 9 10 1 0
BITMAP
0180
3E00
4200
8000
8000
8000
8200
8200
4200
3C00
ENDCHAR
STARTCHAR 01C2
ENCODING 450
SWIDTH 500 0
DWIDTH 6 0
BBX 4 8 1 1
BITMAP
40
40
F0
40
F0
40
40
40
ENDCHAR
STARTCHAR 01CD
ENCODING 461
SWIDTH 750 0
DWIDTH 9 0
BBX 7 11 1 0
BITMAP
38
00
10
10
28
48
48
7C
84
84
82
ENDCHAR
STARTCHAR 01CE
ENCODING 462
SWIDTH 583 0
DWIDTH 7 0
BBX 5 9 1 0
BITMAP
60
00
00
70
90
70
90
90
E8
ENDCHAR
STARTCHAR 01D0
ENCODING 464
SWIDTH 333 0
DWIDTH 4 0
BBX 3 9 0 0
BITMAP
A0
40
00
40
40
40
40
40
60
ENDCHAR
STARTCHAR 01D1
ENCODING 465
SWIDTH 833 0
DWIDTH 10 0
BBX 8 11 1 0
BITMAP
18
00
3C
42
83
81
81
81
83
42
3C
ENDCHAR
STARTCHAR 01D2
ENCODING 466
SWIDTH 583 0
DWIDTH 7 0
BBX 5 9 1 0
BITMAP
50
20
00
70
88
88
88
88
70
ENDCHAR
STARTCHAR 01D4
ENCODING 468
SWIDTH 583 0
DWIDTH 7 0
BBX 5 9 1 0
BITMAP
50
20
00
88
88
88
88
88
78
ENDCHAR
STARTCHAR 01D6
ENCODING 470
SWIDTH 583 0
DWIDTH 7 0
BBX 5 10 1 0
BITMAP
70
50
00
00
88
88
88
88
88
78
ENDCHAR
STARTCHAR 01D8
ENCODING 472
SWIDTH 583 0
DWIDTH 7 0
BBX 5 11 1 0
BITMAP
10
20
50
00
00
88
88
88
88
88
78
ENDCHAR
STARTCHAR 01DA
ENCODING 474
SWIDTH 583 0
DWIDTH 7 0
BBX 5 10 1 1
BITMAP
60
50
00
00
88
88
88
88
88
78
ENDCHAR
STARTCHAR 01DC
ENCODING 476
SWIDTH 583 0
DWIDTH 7 0
BBX 5 11 1 0
BITMAP
40
20
50
00
00
88
88
88
88
88
78
ENDCHAR
STARTCHAR 01F8
ENCODING 504
SWIDTH 833 0
DWIDTH 10 0
BBX 8 11 1 0
BITMAP
20
10
C3
A2
A2
92
8A
8A
86
82
C2
ENDCHAR
STARTCHAR 01F9
ENCODING 505
SWIDTH 666 0
DWIDTH 8 0
BBX 6 9 1 0
BITMAP
40
20
00
B8
48
88
88
88
CC
ENDCHAR
STARTCHAR 01FD
ENCODING 509
SWIDTH 833 0
DWIDTH 10 0
BBX 9 9 1 0
BITMAP
0400
0800
0000
7F00
9900
7F80
9000
9800
EF00
ENDCHAR
STARTCHAR 0250
ENCODING 592
SWIDTH 583 0
DWIDTH 7 0
BBX 6 6 0 0
BITMAP
FC
44
44
78
44
38
ENDCHAR
STARTCHAR 0251
ENCODING 593
SWIDTH 583 0
DWIDTH 7 0
BBX 6 6 1 0
BITMAP
78
88
88
88
88
7C
ENDCHAR
STARTCHAR 0252
ENCODING 594
SWIDTH 583 0
DWIDTH 7 0
BBX 6 6 0 0
BITMAP
F8
44
44
44
44
78
ENDCHAR
STARTCHAR 0253
ENCODING 595
SWIDTH 583 0
DWIDTH 7 0
BBX 6 9 1 0
BITMAP
70
88
80
F0
88
84
84
88
F0
ENDCHAR
STARTCHAR 0254
ENCODING 596
SWIDTH 500 0
DWIDTH 6 0
BBX 5 6 1 0
BITMAP
F0
10
08
08
90
F0
ENDCHAR
STARTCHAR 0255
ENCODING 597
SWIDTH 500 0
DWIDTH 6 0
BBX 5 7 1 -1
BITMAP
70
88
80
80
98
78
40
ENDCHAR
STARTCHAR 0256
ENCODING 598
SWIDTH 583 0
DWIDTH 7 0
BBX 7 11 1 -2
BITMAP
18
08
08
78
88
88
88
88
78
08
06
ENDCHAR
STARTCHAR 0257
ENCODING 599
SWIDTH 583 0
DWIDTH 7 0
BBX 7 9 1 0
BITMAP
06
08
08
78
88
88
88
88
78
ENDCHAR
STARTCHAR 0258
ENCODING 600
SWIDTH 583 0
DWIDTH 7 0
BBX 5 6 1 0
BITMAP
70
88
F8
08
08
F0
ENDCHAR
STARTCHAR 0259
ENCODING 601
SWIDTH 583 0
DWIDTH 7 0
BBX 5 6 1 0
BITMAP
70
88
08
F8
88
70
ENDCHAR
STARTCHAR 025A
ENCODING 602
SWIDTH 750 0
DWIDTH 9 0
BBX 8 6 1 0
BITMAP
70
8E
1A
29
C8
70
ENDCHAR
STARTCHAR 025C
ENCODING 604
SWIDTH 500 0
DWIDTH 6 0
BBX 4 6 1 0
BITMAP
F0
10
70
10
10
F0
ENDCHAR
STARTCHAR 025E
ENCODING 606
SWIDTH 583 0
DWIDTH 7 0
BBX 5 6 1 0
BITMAP
70
88
F0
88
88
70
ENDCHAR
STARTCHAR 025F
ENCODING 607
SWIDTH 333 0
DWIDTH 4 0
BBX 5 8 -1 -2
BITMAP
10
20
20
20
20
78
20
E0
ENDCHAR
STARTCHAR 0260
ENCODING 608
SWIDTH 583 0
DWIDTH 7 0
BBX 7 11 1 -2
BITMAP
06
08
08
78
88
88
88
88
78
88
70
ENDCHAR
STARTCHAR 0261
ENCODING 609
SWIDTH 583 0
DWIDTH 7 0
BBX 5 8 1 -2
BITMAP
78
88
88
88
88
78
88
70
ENDCHAR
STARTCHAR 0264
ENCODING 612
SWIDTH 583 0
DWIDTH 7 0
BBX 7 6 0 0
BITMAP
E6
38
28
28
28
38
ENDCHAR
STARTCHAR 0265
ENCODING 613
SWIDTH 583 0
DWIDTH 7 0
BBX 5 8 1 -2
BITMAP
88
88
88
88
88
78
08
08
ENDCHAR
STARTCHAR 0266
ENCODING 614
SWIDTH 583 0
DWIDTH 7 0
BBX 5 9 1 0
BITMAP
78
48
80
B8
C8
88
88
88
88
ENDCHAR
STARTCHAR 0267
ENCODING 615
SWIDTH 583 0
DWIDTH 7 0
BBX 5 11 1 -2
BITMAP
78
48
80
B8
C8
88
88
88
88
08
38
ENDCHAR
STARTCHAR 0268
ENCODING 616
SWIDTH 333 0
DWIDTH 4 0
BBX 4 9 0 0
BITMAP
60
00
00
40
40
F0
40
40
60
ENDCHAR
STARTCHAR 026C
ENCODING 620
SWIDTH 416 0
DWIDTH 5 0
BBX 4 8 0 1
BITMAP
20
E0
A0
60
30
20
20
30
ENDCHAR
STARTCHAR 026D
ENCODING 621
SWIDTH 333 0
DWIDTH 4 0
BBX 4 11 0 -2
BITMAP
C0
40
40
40
40
40
40
40
40
40
30
ENDCHAR
STARTCHAR 026E
ENCODING 622
SWIDTH 583 0
DWIDTH 7 0
BBX 7 12 0 -3
BITMAP
C0
40
40
7E
44
48
50
5C
42
02
22
3C
ENDCHAR
STARTCHAR 026F
ENCODING 623
SWIDTH 916 0
DWIDTH 11 0
BBX 9 6 1 0
BITMAP
8980
8900
8900
8900
8900
7E80
ENDCHAR
STARTCHAR 0270
ENCODING 624
SWIDTH 916 0
DWIDTH 11 0
BBX 9 9 1 -3
BITMAP
8980
8900
8900
8900
8900
7F00
0100
0100
0080
ENDCHAR
STARTCHAR 0271
ENCODING 625
SWIDTH 916 0
DWIDTH 11 0
BBX 9 8 1 -2
BITMAP
B700
4880
8880
8880
8880
C880
0080
0300
ENDCHAR
STARTCHAR 0272
ENCODING 626
SWIDTH 666 0
DWIDTH 8 0
BBX 8 8 -1 -2
BITMAP
2E
12
22
22
22
23
20
E0
ENDCHAR
STARTCHAR 0273
ENCODING 627
SWIDTH 666 0
DWIDTH 8 0
BBX 7 8 1 -2
BITMAP
B8
48
88
88
88
C8
08
06
ENDCHAR
STARTCHAR 0275
ENCODING 629
SWIDTH 583 0
DWIDTH 7 0
BBX 5 6 1 0
BITMAP
70
88
88
F8
88
70
ENDCHAR
STARTCHAR 0279
ENCODING 633
SWIDTH 416 0
DWIDTH 5 0
BBX 4 6 0 0
BITMAP
10
20
20
20
20
D0
ENDCHAR
STARTCHAR 027A
ENCODING 634
SWIDTH 416 0
DWIDTH 5 0
BBX 5 9 0 0
BITMAP
30
20
20
20
20
20
20
20
D8
ENDCHAR
STARTCHAR 027B
ENCODING 635
SWIDTH 416 0
DWIDTH 5 0
BBX 5 8 0 -2
BITMAP
30
20
20
20
20
E0
20
18
ENDCHAR
STARTCHAR 027D
ENCODING 637
SWIDTH 416 0
DWIDTH 5 0
BBX 4 8 1 -2
BITMAP
F0
40
80
80
80
80
80
60
ENDCHAR
STARTCHAR 027E
ENCODING 638
SWIDTH 333 0
DWIDTH 4 0
BBX 3 6 1 0
BITMAP
60
80
80
80
80
C0
ENDCHAR
STARTCHAR 0281
ENCODING 641
SWIDTH 500 0
DWIDTH 6 0
BBX 5 6 1 0
BITMAP
88
90
A0
D0
88
F0
ENDCHAR
STARTCHAR 0282
ENCODING 642
SWIDTH 500 0
DWIDTH 6 0
BBX 4 8 1 -2
BITMAP
F0
90
80
60
90
F0
80
C0
ENDCHAR
STARTCHAR 0283
ENCODING 643
SWIDTH 416 0
DWIDTH 5 0
BBX 5 11 0 -2
BITMAP
18
20
20
20
20
20
20
20
20
20
C0
ENDCHAR
STARTCHAR 0284
ENCODING 644
SWIDTH 333 0
DWIDTH 4 0
BBX 6 11 -1 -2
BITMAP
1C
20
20
20
20
20
20
20
78
20
E0
ENDCHAR
STARTCHAR 0288
ENCODING 648
SWIDTH 333 0
DWIDTH 4 0
BBX 4 9 0 -1
BITMAP
40
F0
40
40
40
40
40
40
30
ENDCHAR
STARTCHAR 0289
ENCODING 649
SWIDTH 583 0
DWIDTH 7 0
BBX 7 6 0 0
BITMAP
44
44
FE
44
44
3C
ENDCHAR
STARTCHAR 028A
ENCODING 650
SWIDTH 583 0
DWIDTH 7 0
BBX 6 6 1 0
BITMAP
DC
88
88
88
88
70
ENDCHAR
STARTCHAR 028B
ENCODING 651
SWIDTH 583 0
DWIDTH 7 0
BBX 6 6 0 0
BITMAP
C4
44
44
44
44
38
ENDCHAR
STARTCHAR 028C
ENCODING 652
SWIDTH 500 0
DWIDTH 6 0
BBX 5 6 1 0
BITMAP
20
60
A0
90
90
88
ENDCHAR
STARTCHAR 028D
ENCODING 653
SWIDTH 750 0
DWIDTH 9 0
BBX 8 6 1 0
BITMAP
44
64
AA
B2
92
91
ENDCHAR
STARTCHAR 028E
ENCODING 654
SWIDTH 500 0
DWIDTH 6 0
BBX 5 9 1 0
BITMAP
18
28
20
20
60
A0
90
90
88
ENDCHAR
STARTCHAR 0290
ENCODING 656
SWIDTH 583 0
DWIDTH 7 0
BBX 7 8 0 -2
BITMAP
78
08
10
20
48
F8
08
06
ENDCHAR
STARTCHAR 0291
ENCODING 657
SWIDTH 500 0
DWIDTH 6 0
BBX 6 7 0 -1
BITMAP
78
08
10
20
5C
FC
20
ENDCHAR
STARTCHAR 0292
ENCODING 658
SWIDTH 500 0
DWIDTH 6 0
BBX 6 9 0 -3
BITMAP
78
08
10
38
08
04
08
88
70
ENDCHAR
STARTCHAR 0294
ENCODING 660
SWIDTH 500 0
DWIDTH 6 0
BBX 5 9 1 0
BITMAP
F0
90
88
10
20
40
40
40
60
ENDCHAR
STARTCHAR 0295
ENCODING 661
SWIDTH 500 0
DWIDTH 6 0
BBX 5 9 1 0
BITMAP
F0
90
98
80
60
20
20
20
20
ENDCHAR
STARTCHAR 0298
ENCODING 664
SWIDTH 666 0
DWIDTH 8 0
BBX 6 6 1 0
BITMAP
70
88
A4
A4
88
78
ENDCHAR
STARTCHAR 029D
ENCODING 669
SWIDTH 333 0
DWIDTH 4 0
BBX 4 11 -1 -2
BITMAP
30
00
00
20
20
20
20
20
20
F0
E0
ENDCHAR
STARTCHAR 02A1
ENCODING 673
SWIDTH 500 0
DWIDTH 6 0
BBX 5 9 1 0
BITMAP
F0
98
88
10
60
F0
40
40
60
ENDCHAR
STARTCHAR 02A2
ENCODING 674
SWIDTH 500 0
DWIDTH 6 0
BBX 5 9 1 0
BITMAP
F0
90
98
80
60
F0
20
20
20
ENDCHAR
STARTCHAR 02BB
ENCODING 699
SWIDTH 1000 0
DWIDTH 12 0
BBX 2 3 9 7
BITMAP
40
80
C0
ENDCHAR
STARTCHAR 02BC
ENCODING 700
SWIDTH 1000 0
DWIDTH 12 0
BBX 2 3 1 7
BITMAP
C0
C0
80
ENDCHAR
STARTCHAR 02C6
ENCODING 710
SWIDTH 500 0
DWIDTH 6 0
BBX 2 1 2 7
BITMAP
C0
ENDCHAR
STARTCHAR 02C7
ENCODING 711
SWIDTH 500 0
DWIDTH 6 0
BBX 2 1 2 8
BITMAP
C0
ENDCHAR
STARTCHAR 02C8
ENCODING 712
SWIDTH 166 0
DWIDTH 2 0
BBX 1 3 0 5
BITMAP
80
80
80
ENDCHAR
STARTCHAR 02CC
ENCODING 716
SWIDTH 166 0
DWIDTH 2 0
BBX 1 3 0 -1
BITMAP
80
80
80
ENDCHAR
STARTCHAR 02D0
ENCODING 720
SWIDTH 250 0
DWIDTH 3 0
BBX 1 6 1 0
BITMAP
80
00
00
00
00
80
ENDCHAR
STARTCHAR 02D1
ENCODING 721
SWIDTH 250 0
DWIDTH 3 0
BBX 1 1 1 5
BITMAP
80
ENDCHAR
STARTCHAR 02D8
ENCODING 728
SWIDTH 500 0
DWIDTH 6 0
BBX 2 1 2 7
BITMAP
C0
ENDCHAR
STARTCHAR 02D9
ENCODING 729
SWIDTH 500 0
DWIDTH 6 0
BBX 2 1 2 8
BITMAP
C0
ENDCHAR
STARTCHAR 02DB
ENCODING 731
SWIDTH 500 0
DWIDTH 6 0
BBX 2 3 2 -3
BITMAP
C0
80
C0
ENDCHAR
STARTCHAR 02DC
ENCODING 732
SWIDTH 500 0
DWIDTH 6 0
BBX 3 1 2 8
BITMAP
E0
ENDCHAR
STARTCHAR 02DD
ENCODING 733
SWIDTH 500 0
DWIDTH 6 0
BBX 3 2 2 7
BITMAP
A0
40
ENDCHAR
STARTCHAR 02DE
ENCODING 734
SWIDTH 500 0
DWIDTH 6 0
BBX 2 3 2 0
BITMAP
C0
80
40
ENDCHAR
STARTCHAR 02E5
ENCODING 741
SWIDTH 500 0
DWIDTH 6 0
BBX 2 8 1 0
BITMAP
C0
40
40
40
40
40
40
40
ENDCHAR
STARTCHAR 02E6
ENCODING 742
SWIDTH 500 0
DWIDTH 6 0
BBX 2 7 1 1
BITMAP
40
C0
40
40
40
40
40
ENDCHAR
STARTCHAR 02E7
ENCODING 743
SWIDTH 500 0
DWIDTH 6 0
BBX 2 7 1 1
BITMAP
40
40
40
C0
40
40
40
ENDCHAR
STARTCHAR 02E8
ENCODING 744
SWIDTH 500 0
DWIDTH 6 0
BBX 2 7 1 1
BITMAP
40
40
40
40
40
C0
40
ENDCHAR
STARTCHAR 02E9
ENCODING 745
SWIDTH 500 0
DWIDTH 6 0
BBX 2 8 1 1
BITMAP
40
40
40
40
40
40
40
C0
ENDCHAR
STARTCHAR 0300
ENCODING 768
SWIDTH 500 0
DWIDTH 6 0
BBX 1 1 2 8
BITMAP
80
ENDCHAR
STARTCHAR 0301
ENCODING 769
SWIDTH 500 0
DWIDTH 6 0
BBX 1 1 3 8
BITMAP
80
ENDCHAR
STARTCHAR 0302
ENCODING 770
SWIDTH 500 0
DWIDTH 6 0
BBX 2 1 2 7
BITMAP
C0
ENDCHAR
STARTCHAR 0303
ENCODING 771
SWIDTH 500 0
DWIDTH 6 0
BBX 3 1 2 8
BITMAP
E0
ENDCHAR
STARTCHAR 0304
ENCODING 772
SWIDTH 500 0
DWIDTH 6 0
BBX 4 1 1 7
BITMAP
F0
ENDCHAR
STARTCHAR 0305
ENCODING 773
SWIDTH 500 0
DWIDTH 6 0
BBX 4 1 1 7
BITMAP
F0
ENDCHAR
STARTCHAR 0306
ENCODING 774
SWIDTH 500 0
DWIDTH 6 0
BBX 2 1 2 7
BITMAP
C0
ENDCHAR
STARTCHAR 0308
ENCODING 776
SWIDTH 500 0
DWIDTH 6 0
BBX 4 1 1 8
BITMAP
90
ENDCHAR
STARTCHAR 030B
ENCODING 779
SWIDTH 500 0
DWIDTH 6 0
BBX 3 2 2 7
BITMAP
A0
40
ENDCHAR
STARTCHAR 030C
ENCODING 780
SWIDTH 500 0
DWIDTH 6 0
BBX 2 1 2 8
BITMAP
C0
ENDCHAR
STARTCHAR 030F
ENCODING 783
SWIDTH 500 0
DWIDTH 6 0
BBX 3 2 1 7
BITMAP
A0
40
ENDCHAR
STARTCHAR 0318
ENCODING 792
SWIDTH 500 0
DWIDTH 6 0
BBX 2 3 2 -3
BITMAP
40
C0
40
ENDCHAR
STARTCHAR 0319
ENCODING 793
SWIDTH 500 0
DWIDTH 6 0
BBX 2 3 2 -3
BITMAP
80
C0
80
ENDCHAR
STARTCHAR 031A
ENCODING 794
SWIDTH 500 0
DWIDTH 6 0
BBX 2 3 1 6
BITMAP
C0
40
40
ENDCHAR
STARTCHAR 031C
ENCODING 796
SWIDTH 500 0
DWIDTH 6 0
BBX 2 3 2 -3
BITMAP
40
80
80
ENDCHAR
STARTCHAR 031D
ENCODING 797
SWIDTH 500 0
DWIDTH 6 0
BBX 4 2 1 -2
BITMAP
40
F0
ENDCHAR
STARTCHAR 031E
ENCODING 798
SWIDTH 500 0
DWIDTH 6 0
BBX 4 2 1 -2
BITMAP
F0
40
ENDCHAR
STARTCHAR 031F
ENCODING 799
SWIDTH 500 0
DWIDTH 6 0
BBX 4 3 1 -3
BITMAP
40
F0
40
ENDCHAR
STARTCHAR 0320
ENCODING 800
SWIDTH 500 0
DWIDTH 6 0
BBX 4 1 1 -1
BITMAP
F0
ENDCHAR
STARTCHAR 0324
ENCODING 804
SWIDTH 500 0
DWIDTH 6 0
BBX 4 1 1 -1
BITMAP
90
ENDCHAR
STARTCHAR 0325
ENCODING 805
SWIDTH 500 0
DWIDTH 6 0
BBX 2 2 2 -2
BITMAP
C0
C0
ENDCHAR
STARTCHAR 0327
ENCODING 807
SWIDTH 500 0
DWIDTH 6 0
BBX 2 3 2 -3
BITMAP
80
40
C0
ENDCHAR
STARTCHAR 0329
ENCODING 809
SWIDTH 500 0
DWIDTH 6 0
BBX 1 2 2 -2
BITMAP
80
80
ENDCHAR
STARTCHAR 032A
ENCODING 810
SWIDTH 500 0
DWIDTH 6 0
BBX 4 2 1 -2
BITMAP
F0
90
ENDCHAR
STARTCHAR 032C
ENCODING 812
SWIDTH 500 0
DWIDTH 6 0
BBX 2 1 2 -1
BITMAP
C0
ENDCHAR
STARTCHAR 032F
ENCODING 815
SWIDTH 500 0
DWIDTH 6 0
BBX 2 1 2 -2
BITMAP
C0
ENDCHAR
STARTCHAR 0330
ENCODING 816
SWIDTH 500 0
DWIDTH 6 0
BBX 3 1 2 -1
BITMAP
E0
ENDCHAR
STARTCHAR 0332
ENCODING 818
SWIDTH 500 0
DWIDTH 6 0
BBX 6 1 0 -1
BITMAP
FC
ENDCHAR
STARTCHAR 0334
ENCODING 820
SWIDTH 500 0
DWIDTH 6 0
BBX 3 1 2 3
BITMAP
E0
ENDCHAR
STARTCHAR 0336
ENCODING 822
SWIDTH 916 0
DWIDTH 11 0
BBX 11 1 0 4
BITMAP
FFE0
ENDCHAR
STARTCHAR 0339
ENCODING 825
SWIDTH 500 0
DWIDTH 6 0
BBX 2 3 2 -3
BITMAP
80
40
40
ENDCHAR
STARTCHAR 033A
ENCODING 826
SWIDTH 500 0
DWIDTH 6 0
BBX 4 2 1 -3
BITMAP
90
F0
ENDCHAR
STARTCHAR 033B
ENCODING 827
SWIDTH 500 0
DWIDTH 6 0
BBX 4 3 1 -3
BITMAP
F0
90
F0
ENDCHAR
STARTCHAR 033C
ENCODING 828
SWIDTH 500 0
DWIDTH 6 0
BBX 2 1 2 -1
BITMAP
C0
ENDCHAR
STARTCHAR 033D
ENCODING 829
SWIDTH 500 0
DWIDTH 6 0
BBX 2 2 2 7
BITMAP
C0
C0
ENDCHAR
STARTCHAR 0361
ENCODING 865
SWIDTH 0 0
DWIDTH 0 0
BBX 6 2 -3 9
BITMAP
78
84
ENDCHAR
STARTCHAR 0391
ENCODING 913
SWIDTH 1000 0
DWIDTH 12 0
BBX 8 8 2 1
BITMAP
10
18
28
24
44
7E
42
83
ENDCHAR
STARTCHAR 0392
ENCODING 914
SWIDTH 1000 0
DWIDTH 12 0
BBX 7 8 3 1
BITMAP
F8
84
84
8C
F8
84
82
FC
ENDCHAR
STARTCHAR 0393
ENCODING 915
SWIDTH 1000 0
DWIDTH 12 0
BBX 8 8 2 1
BITMAP
FF
41
41
40
40
40
40
60
ENDCHAR
STARTCHAR 0394
ENCODING 916
SWIDTH 1000 0
DWIDTH 12 0
BBX 8 8 2 2
BITMAP
18
28
24
44
42
82
82
FF
ENDCHAR
STARTCHAR 0395
ENCODING 917
SWIDTH 1000 0
DWIDTH 12 0
BBX 7 8 2 1
BITMAP
FE
42
40
44
7C
44
42
FE
ENDCHAR
STARTCHAR 0396
ENCODING 918
SWIDTH 1000 0
DWIDTH 12 0
BBX 6 8 3 1
BITMAP
FC
84
08
10
20
40
84
FC
ENDCHAR
STARTCHAR 0397
ENCODING 919
SWIDTH 1000 0
DWIDTH 12 0
BBX 6 8 3 1
BITMAP
84
84
84
84
FC
84
84
84
ENDCHAR
STARTCHAR 0398
ENCODING 920
SWIDTH 1000 0
DWIDTH 12 0
BBX 8 9 2 0
BITMAP
3C
42
83
81
BD
81
81
42
3C
ENDCHAR
STARTCHAR 0399
ENCODING 921
SWIDTH 1000 0
DWIDTH 12 0
BBX 2 8 5 1
BITMAP
C0
80
80
80
80
80
80
C0
ENDCHAR
STARTCHAR 039A
ENCODING 922
SWIDTH 1000 0
DWIDTH 12 0
BBX 7 8 3 1
BITMAP
84
88
90
A0
D0
88
84
86
ENDCHAR
STARTCHAR 039B
ENCODING 923
SWIDTH 1000 0
DWIDTH 12 0
BBX 8 8 2 2
BITMAP
18
28
28
24
44
42
82
C3
ENDCHAR
STARTCHAR 039C
ENCODING 924
SWIDTH 1000 0
DWIDTH 12 0
BBX 8 8 2 1
BITMAP
81
C3
C5
A5
A9
99
99
91
ENDCHAR
STARTCHAR 039D
ENCODING 925
SWIDTH 1000 0
DWIDTH 12 0
BBX 7 8 2 1
BITMAP
42
A2
B2
92
8A
86
82
82
ENDCHAR
STARTCHAR 039E
ENCODING 926
SWIDTH 1000 0
DWIDTH 12 0
BBX 6 8 3 1
BITMAP
FC
00
00
00
78
00
00
FC
ENDCHAR
STARTCHAR 039F
ENCODING 927
SWIDTH 1000 0
DWIDTH 12 0
BBX 8 9 2 0
BITMAP
3C
42
81
81
81
81
81
42
3C
ENDCHAR
STARTCHAR 03A0
ENCODING 928
SWIDTH 1000 0
DWIDTH 12 0
BBX 8 8 2 1
BITMAP
FF
42
42
42
42
42
42
42
ENDCHAR
STARTCHAR 03A1
ENCODING 929
SWIDTH 1000 0
DWIDTH 12 0
BBX 6 8 4 1
BITMAP
F8
84
84
8C
F8
80
80
80
ENDCHAR
STARTCHAR 03A3
ENCODING 931
SWIDTH 1000 0
DWIDTH 12 0
BBX 8 8 2 1
BITMAP
FE
42
20
18
10
21
41
FF
ENDCHAR
STARTCHAR 03A4
ENCODING 932
SWIDTH 1000 0
DWIDTH 12 0
BBX 8 8 2 1
BITMAP
FF
91
10
10
10
10
10
18
ENDCHAR
STARTCHAR 03A5
ENCODING 933
SWIDTH 1000 0
DWIDTH 12 0
BBX 8 8 2 1
BITMAP
66
99
10
10
10
10
10
18
ENDCHAR
STARTCHAR 03A6
ENCODING 934
SWIDTH 1000 0
DWIDTH 12 0
BBX 8 8 2 1
BITMAP
18
3C
D2
91
91
92
7C
18
ENDCHAR
STARTCHAR 03A7
ENCODING 935
SWIDTH 1000 0
DWIDTH 12 0
BBX 8 8 2 1
BITMAP
42
24
28
10
18
24
42
C3
ENDCHAR
STARTCHAR 03A8
ENCODING 936
SWIDTH 1000 0
DWIDTH 12 0
BBX 8 8 2 1
BITMAP
99
52
52
52
52
34
18
18
ENDCHAR
STARTCHAR 03A9
ENCODING 937
SWIDTH 1000 0
DWIDTH 12 0
BBX 8 8 2 1
BITMAP
3C
42
C3
81
82
42
AC
E7
ENDCHAR
STARTCHAR 03B1
ENCODING 945
SWIDTH 1000 0
DWIDTH 12 0
BBX 6 6 3 0
BITMAP
34
58
88
90
AC
CC
ENDCHAR
STARTCHAR 03B2
ENCODING 946
SWIDTH 1000 0
DWIDTH 12 0
BBX 5 10 3 -1
BITMAP
38
48
48
48
90
88
88
98
F0
80
ENDCHAR
STARTCHAR 03B3
ENCODING 947
SWIDTH 1000 0
DWIDTH 12 0
BBX 6 7 3 -1
BITMAP
C4
28
30
30
20
20
20
ENDCHAR
STARTCHAR 03B4
ENCODING 948
SWIDTH 1000 0
DWIDTH 12 0
BBX 5 9 3 0
BITMAP
38
40
20
50
88
88
88
98
70
ENDCHAR
STARTCHAR 03B5
ENCODING 949
SWIDTH 1000 0
DWIDTH 12 0
BBX 5 6 3 0
BITMAP
78
40
70
80
88
70
ENDCHAR
STARTCHAR 03B6
ENCODING 950
SWIDTH 1000 0
DWIDTH 12 0
BBX 5 10 3 -1
BITMAP
48
50
60
40
80
80
80
60
10
30
ENDCHAR
STARTCHAR 03B7
ENCODING 951
SWIDTH 1000 0
DWIDTH 12 0
BBX 5 7 3 -1
BITMAP
F8
68
48
48
88
90
10
ENDCHAR
STARTCHAR 03B8
ENCODING 952
SWIDTH 1000 0
DWIDTH 12 0
BBX 6 9 3 0
BITMAP
38
28
44
84
F8
88
88
90
60
ENDCHAR
STARTCHAR 03B9
ENCODING 953
SWIDTH 1000 0
DWIDTH 12 0
BBX 3 6 4 0
BITMAP
40
40
80
80
80
E0
ENDCHAR
STARTCHAR 03BA
ENCODING 954
SWIDTH 1000 0
DWIDTH 12 0
BBX 6 6 3 0
BITMAP
4C
50
60
90
94
18
ENDCHAR
STARTCHAR 03BB
ENCODING 955
SWIDTH 1000 0
DWIDTH 12 0
BBX 6 9 3 0
BITMAP
60
10
10
10
30
50
50
94
08
ENDCHAR
STARTCHAR 03BC
ENCODING 956
SWIDTH 1000 0
DWIDTH 12 0
BBX 7 7 2 0
BITMAP
24
44
44
48
C8
B6
80
ENDCHAR
STARTCHAR 03BD
ENCODING 957
SWIDTH 1000 0
DWIDTH 12 0
BBX 6 6 3 0
BITMAP
C4
44
44
48
70
40
ENDCHAR
STARTCHAR 03BE
ENCODING 958
SWIDTH 1000 0
DWIDTH 12 0
BBX 4 10 4 -1
BITMAP
B0
40
80
80
E0
80
80
40
20
E0
ENDCHAR
STARTCHAR 03BF
ENCODING 959
SWIDTH 1000 0
DWIDTH 12 0
BBX 5 6 4 0
BITMAP
70
90
88
88
90
E0
ENDCHAR
STARTCHAR 03C0
ENCODING 960
SWIDTH 1000 0
DWIDTH 12 0
BBX 6 6 3 0
BITMAP
FC
50
50
50
94
98
ENDCHAR
STARTCHAR 03C1
ENCODING 961
SWIDTH 1000 0
DWIDTH 12 0
BBX 6 7 3 -1
BITMAP
38
48
84
C8
F8
80
80
ENDCHAR
STARTCHAR 03C2
ENCODING 962
SWIDTH 500 0
DWIDTH 6 0
BBX 5 8 1 -2
BITMAP
70
88
98
80
40
20
20
E0
ENDCHAR
STARTCHAR 03C3
ENCODING 963
SWIDTH 1000 0
DWIDTH 12 0
BBX 5 7 4 0
BITMAP
78
90
88
88
90
90
E0
ENDCHAR
STARTCHAR 03C4
ENCODING 964
SWIDTH 1000 0
DWIDTH 12 0
BBX 6 6 3 0
BITMAP
FC
20
20
40
48
30
ENDCHAR
STARTCHAR 03C5
ENCODING 965
SWIDTH 1000 0
DWIDTH 12 0
BBX 6 6 3 0
BITMAP
C8
44
44
84
88
70
ENDCHAR
STARTCHAR 03C6
ENCODING 966
SWIDTH 1000 0
DWIDTH 12 0
BBX 6 9 3 -1
BITMAP
10
10
7C
A4
A4
A4
A8
50
40
ENDCHAR
STARTCHAR 03C7
ENCODING 967
SWIDTH 1000 0
DWIDTH 12 0
BBX 6 7 3 -1
BITMAP
C4
28
10
20
20
54
98
ENDCHAR
STARTCHAR 03C8
ENCODING 968
SWIDTH 1000 0
DWIDTH 12 0
BBX 6 9 3 -1
BITMAP
08
10
D4
94
A4
A4
A8
70
40
ENDCHAR
STARTCHAR 03C9
ENCODING 969
SWIDTH 1000 0
DWIDTH 12 0
BBX 8 6 2 0
BITMAP
42
49
89
91
92
6C
ENDCHAR
STARTCHAR 0401
ENCODING 1025
SWIDTH 1000 0
DWIDTH 12 0
BBX 7 9 2 1
BITMAP
24
FE
42
40
44
7C
44
42
FE
ENDCHAR
STARTCHAR 0410
ENCODING 1040
SWIDTH 1000 0
DWIDTH 12 0
BBX 8 8 2 1
BITMAP
10
18
28
24
44
7E
42
83
ENDCHAR
STARTCHAR 0411
ENCODING 1041
SWIDTH 1000 0
DWIDTH 12 0
BBX 8 8 2 1
BITMAP
FE
42
40
40
7E
43
41
7E
ENDCHAR
STARTCHAR 0412
ENCODING 1042
SWIDTH 1000 0
DWIDTH 12 0
BBX 7 8 3 1
BITMAP
F8
84
84
8C
F8
84
82
FC
ENDCHAR
STARTCHAR 0413
ENCODING 1043
SWIDTH 1000 0
DWIDTH 12 0
BBX 8 8 2 1
BITMAP
FF
41
41
40
40
40
40
60
ENDCHAR
STARTCHAR 0414
ENCODING 1044
SWIDTH 1000 0
DWIDTH 12 0
BBX 8 9 2 -1
BITMAP
7F
22
22
22
42
42
82
FF
81
ENDCHAR
STARTCHAR 0415
ENCODING 1045
SWIDTH 1000 0
DWIDTH 12 0
BBX 7 8 2 1
BITMAP
FE
42
40
44
7C
44
42
FE
ENDCHAR
STARTCHAR 0416
ENCODING 1046
SWIDTH 1000 0
DWIDTH 12 0
BBX 10 8 1 1
BITMAP
CCC0
4900
2900
1A00
1E00
2900
4880
CCC0
ENDCHAR
STARTCHAR 0417
ENCODING 1047
SWIDTH 1000 0
DWIDTH 12 0
BBX 6 9 3 0
BITMAP
78
84
04
0C
30
0C
04
84
78
ENDCHAR
STARTCHAR 0418
ENCODING 1048
SWIDTH 1000 0
DWIDTH 12 0
BBX 6 8 3 1
BITMAP
84
84
8C
94
E4
84
84
84
ENDCHAR
STARTCHAR 0419
ENCODING 1049
SWIDTH 1000 0
DWIDTH 12 0
BBX 6 9 3 1
BITMAP
78
84
84
8C
94
E4
84
84
84
ENDCHAR
STARTCHAR 041A
ENCODING 1050
SWIDTH 1000 0
DWIDTH 12 0
BBX 7 8 3 1
BITMAP
86
88
90
A0
D0
88
84
86
ENDCHAR
STARTCHAR 041B
ENCODING 1051
SWIDTH 1000 0
DWIDTH 12 0
BBX 8 9 1 0
BITMAP
1F
11
11
11
11
11
D1
91
60
ENDCHAR
STARTCHAR 041C
ENCODING 1052
SWIDTH 1000 0
DWIDTH 12 0
BBX 9 8 1 1
BITMAP
6180
6280
5280
5480
5480
4C80
8880
4080
ENDCHAR
STARTCHAR 041D
ENCODING 1053
SWIDTH 1000 0
DWIDTH 12 0
BBX 6 8 3 1
BITMAP
84
84
84
84
FC
84
84
84
ENDCHAR
STARTCHAR 041E
ENCODING 1054
SWIDTH 1000 0
DWIDTH 12 0
BBX 8 9 2 0
BITMAP
3C
42
81
81
81
81
81
42
3C
ENDCHAR
STARTCHAR 041F
ENCODING 1055
SWIDTH 1000 0
DWIDTH 12 0
BBX 8 8 2 1
BITMAP
FF
42
42
42
42
42
42
42
ENDCHAR
STARTCHAR 0420
ENCODING 1056
SWIDTH 1000 0
DWIDTH 12 0
BBX 6 8 4 1
BITMAP
F8
84
84
8C
F8
80
80
80
ENDCHAR
STARTCHAR 0421
ENCODING 1057
SWIDTH 1000 0
DWIDTH 12 0
BBX 8 9 2 0
BITMAP
3E
41
80
80
80
80
C1
63
3E
ENDCHAR
STARTCHAR 0422
ENCODING 1058
SWIDTH 1000 0
DWIDTH 12 0
BBX 8 8 2 1
BITMAP
FF
91
10
10
10
10
10
18
ENDCHAR
STARTCHAR 0423
ENCODING 1059
SWIDTH 1000 0
DWIDTH 12 0
BBX 7 9 2 0
BITMAP
42
22
24
14
18
08
10
D0
60
ENDCHAR
STARTCHAR 0424
ENCODING 1060
SWIDTH 1000 0
DWIDTH 12 0
BBX 8 8 2 1
BITMAP
18
3C
D2
91
91
92
7C
18
ENDCHAR
STARTCHAR 0425
ENCODING 1061
SWIDTH 1000 0
DWIDTH 12 0
BBX 8 8 2 1
BITMAP
42
24
28
10
18
24
42
C3
ENDCHAR
STARTCHAR 0426
ENCODING 1062
SWIDTH 1000 0
DWIDTH 12 0
BBX 8 9 2 -1
BITMAP
42
42
42
42
42
42
42
FF
01
ENDCHAR
STARTCHAR 0427
ENCODING 1063
SWIDTH 1000 0
DWIDTH 12 0
BBX 6 8 3 1
BITMAP
84
84
84
84
7C
04
04
04
ENDCHAR
STARTCHAR 0428
ENCODING 1064
SWIDTH 1000 0
DWIDTH 12 0
BBX 8 8 2 1
BITMAP
99
91
91
91
91
91
91
FF
ENDCHAR
STARTCHAR 0429
ENCODING 1065
SWIDTH 1000 0
DWIDTH 12 0
BBX 9 9 2 -1
BITMAP
9100
9100
9100
9100
9100
9100
9100
9100
6E80
ENDCHAR
STARTCHAR 042A
ENCODING 1066
SWIDTH 1000 0
DWIDTH 12 0
BBX 9 8 2 1
BITMAP
E000
A000
2000
2000
3F00
2180
2080
3F00
ENDCHAR
STARTCHAR 042B
ENCODING 1067
SWIDTH 1000 0
DWIDTH 12 0
BBX 8 8 2 1
BITMAP
81
81
81
81
F9
85
85
F9
ENDCHAR
STARTCHAR 042C
ENCODING 1068
SWIDTH 1000 0
DWIDTH 12 0
BBX 7 8 3 1
BITMAP
C0
80
80
80
7C
86
82
FC
ENDCHAR
STARTCHAR 042D
ENCODING 1069
SWIDTH 1000 0
DWIDTH 12 0
BBX 8 9 2 0
BITMAP
7C
86
01
31
0F
01
83
C6
7C
ENDCHAR
STARTCHAR 042E
ENCODING 1070
SWIDTH 1000 0
DWIDTH 12 0
BBX 9 9 2 0
BITMAP
8E00
9100
A080
A080
E080
A080
B080
9100
0E00
ENDCHAR
STARTCHAR 042F
ENCODING 1071
SWIDTH 1000 0
DWIDTH 12 0
BBX 7 8 2 1
BITMAP
3E
42
42
42
3E
12
22
C2
ENDCHAR
STARTCHAR 0430
ENCODING 1072
SWIDTH 1000 0
DWIDTH 12 0
BBX 6 6 3 0
BITMAP
78
48
38
C8
88
7C
ENDCHAR
STARTCHAR 0431
ENCODING 1073
SWIDTH 1000 0
DWIDTH 12 0
BBX 6 9 3 0
BITMAP
04
38
C0
F8
84
84
84
4C
78
ENDCHAR
STARTCHAR 0432
ENCODING 1074
SWIDTH 1000 0
DWIDTH 12 0
BBX 6 5 3 1
BITMAP
78
88
78
84
78
ENDCHAR
STARTCHAR 0433
ENCODING 1075
SWIDTH 1000 0
DWIDTH 12 0
BBX 6 5 3 1
BITMAP
FC
44
40
40
40
ENDCHAR
STARTCHAR 0434
ENCODING 1076
SWIDTH 1000 0
DWIDTH 12 0
BBX 6 6 3 -1
BITMAP
78
48
48
88
FC
84
ENDCHAR
STARTCHAR 0435
ENCODING 1077
SWIDTH 1000 0
DWIDTH 12 0
BBX 6 6 3 0
BITMAP
78
88
FC
80
C8
78
ENDCHAR
STARTCHAR 0436
ENCODING 1078
SWIDTH 1000 0
DWIDTH 12 0
BBX 8 5 2 1
BITMAP
91
56
7C
52
91
ENDCHAR
STARTCHAR 0437
ENCODING 1079
SWIDTH 1000 0
DWIDTH 12 0
BBX 4 6 4 0
BITMAP
F0
10
60
10
90
F0
ENDCHAR
STARTCHAR 0438
ENCODING 1080
SWIDTH 1000 0
DWIDTH 12 0
BBX 6 5 3 1
BITMAP
84
98
A8
C8
84
ENDCHAR
STARTCHAR 0439
ENCODING 1081
SWIDTH 1000 0
DWIDTH 12 0
BBX 6 8 3 1
BITMAP
48
30
00
84
98
A8
C8
84
ENDCHAR
STARTCHAR 043A
ENCODING 1082
SWIDTH 1000 0
DWIDTH 12 0
BBX 5 5 4 1
BITMAP
98
A0
E0
90
88
ENDCHAR
STARTCHAR 043B
ENCODING 1083
SWIDTH 1000 0
DWIDTH 12 0
BBX 6 6 2 0
BITMAP
3C
24
24
24
A4
C0
ENDCHAR
STARTCHAR 043C
ENCODING 1084
SWIDTH 1000 0
DWIDTH 12 0
BBX 7 5 2 1
BITMAP
C2
A6
AA
9A
52
ENDCHAR
STARTCHAR 043D
ENCODING 1085
SWIDTH 1000 0
DWIDTH 12 0
BBX 6 5 3 1
BITMAP
84
88
78
88
8C
ENDCHAR
STARTCHAR 043E
ENCODING 1086
SWIDTH 1000 0
DWIDTH 12 0
BBX 6 6 3 0
BITMAP
78
C4
84
84
CC
78
ENDCHAR
STARTCHAR 043F
ENCODING 1087
SWIDTH 1000 0
DWIDTH 12 0
BBX 6 5 3 1
BITMAP
FC
88
88
88
88
ENDCHAR
STARTCHAR 0440
ENCODING 1088
SWIDTH 1000 0
DWIDTH 12 0
BBX 6 7 3 -1
BITMAP
B8
44
44
44
78
40
40
ENDCHAR
STARTCHAR 0441
ENCODING 1089
SWIDTH 1000 0
DWIDTH 12 0
BBX 5 6 3 0
BITMAP
78
48
80
80
48
78
ENDCHAR
STARTCHAR 0442
ENCODING 1090
SWIDTH 1000 0
DWIDTH 12 0
BBX 6 5 3 1
BITMAP
FC
A4
20
20
10
ENDCHAR
STARTCHAR 0443
ENCODING 1091
SWIDTH 1000 0
DWIDTH 12 0
BBX 6 7 3 -1
BITMAP
C4
48
28
30
10
20
E0
ENDCHAR
STARTCHAR 0444
ENCODING 1092
SWIDTH 1000 0
DWIDTH 12 0
BBX 6 10 3 -1
BITMAP
20
20
20
FC
A4
A4
A4
FC
20
10
ENDCHAR
STARTCHAR 0445
ENCODING 1093
SWIDTH 1000 0
DWIDTH 12 0
BBX 6 5 3 1
BITMAP
48
30
30
48
8C
ENDCHAR
STARTCHAR 0446
ENCODING 1094
SWIDTH 1000 0
DWIDTH 12 0
BBX 6 6 3 -1
BITMAP
88
88
88
88
FC
04
ENDCHAR
STARTCHAR 0447
ENCODING 1095
SWIDTH 1000 0
DWIDTH 12 0
BBX 5 5 3 1
BITMAP
88
88
78
08
08
ENDCHAR
STARTCHAR 0448
ENCODING 1096
SWIDTH 1000 0
DWIDTH 12 0
BBX 8 5 2 1
BITMAP
91
91
91
91
FF
ENDCHAR
STARTCHAR 0449
ENCODING 1097
SWIDTH 1000 0
DWIDTH 12 0
BBX 9 7 2 -1
BITMAP
9100
9100
9100
9100
9100
6E80
0080
ENDCHAR
STARTCHAR 044A
ENCODING 1098
SWIDTH 1000 0
DWIDTH 12 0
BBX 6 5 3 1
BITMAP
C0
40
7C
44
7C
ENDCHAR
STARTCHAR 044B
ENCODING 1099
SWIDTH 1000 0
DWIDTH 12 0
BBX 6 5 3 1
BITMAP
84
84
F4
8C
F4
ENDCHAR
STARTCHAR 044C
ENCODING 1100
SWIDTH 1000 0
DWIDTH 12 0
BBX 5 5 4 1
BITMAP
80
80
F0
88
F0
ENDCHAR
STARTCHAR 044D
ENCODING 1101
SWIDTH 1000 0
DWIDTH 12 0
BBX 6 6 3 0
BITMAP
F8
84
7C
04
88
78
ENDCHAR
STARTCHAR 044E
ENCODING 1102
SWIDTH 1000 0
DWIDTH 12 0
BBX 8 6 2 0
BITMAP
8E
91
71
91
91
0E
ENDCHAR
STARTCHAR 044F
ENCODING 1103
SWIDTH 1000 0
DWIDTH 12 0
BBX 5 5 3 1
BITMAP
78
88
78
28
C8
ENDCHAR
STARTCHAR 0451
ENCODING 1105
SWIDTH 1000 0
DWIDTH 12 0
BBX 6 9 3 0
BITMAP
48
00
00
78
88
FC
80
C8
78
ENDCHAR
STARTCHAR 1E3E
ENCODING 7742
SWIDTH 916 0
DWIDTH 11 0
BBX 9 11 1 0
BITMAP
0400
0800
C180
A280
A280
A280
9480
9480
9480
8880
C980
ENDCHAR
STARTCHAR 1E3F
ENCODING 7743
SWIDTH 916 0
DWIDTH 11 0
BBX 9 9 1 0
BITMAP
0400
0800
0000
B700
4880
8880
8880
8880
C880
ENDCHAR
STARTCHAR 1F70
ENCODING 8048
SWIDTH 583 0
DWIDTH 7 0
BBX 6 9 1 0
BITMAP
40
20
00
78
88
88
88
88
7C
ENDCHAR
STARTCHAR 1F71
ENCODING 8049
SWIDTH 583 0
DWIDTH 7 0
BBX 6 9 1 0
BITMAP
10
20
00
78
88
88
88
88
7C
ENDCHAR
STARTCHAR 1F72
ENCODING 8050
SWIDTH 500 0
DWIDTH 6 0
BBX 4 8 1 1
BITMAP
40
00
70
80
60
80
80
F0
ENDCHAR
STARTCHAR 1F73
ENCODING 8051
SWIDTH 500 0
DWIDTH 6 0
BBX 4 9 1 0
BITMAP
10
20
00
70
80
60
80
80
F0
ENDCHAR
STARTCHAR 2002
ENCODING 8194
SWIDTH 500 0
DWIDTH 6 0
BBX 0 0 0 0
BITMAP
ENDCHAR
STARTCHAR 2003
ENCODING 8195
SWIDTH 1000 0
DWIDTH 12 0
BBX 0 0 0 0
BITMAP
ENDCHAR
STARTCHAR 2010
ENCODING 8208
SWIDTH 333 0
DWIDTH 4 0
BBX 3 1 0 3
BITMAP
E0
ENDCHAR
STARTCHAR 2011
ENCODING 8209
SWIDTH 333 0
DWIDTH 4 0
BBX 3 1 0 3
BITMAP
E0
ENDCHAR
STARTCHAR 2012
ENCODING 8210
SWIDTH 333 0
DWIDTH 4 0
BBX 3 1 0 3
BITMAP
E0
ENDCHAR
STARTCHAR 2013
ENCODING 8211
SWIDTH 583 0
DWIDTH 7 0
BBX 5 1 1 3
BITMAP
F8
ENDCHAR
STARTCHAR 2014
ENCODING 8212
SWIDTH 916 0
DWIDTH 11 0
BBX 11 1 0 4
BITMAP
FFE0
ENDCHAR
STARTCHAR 2015
ENCODING 8213
SWIDTH 1000 0
DWIDTH 12 0
BBX 10 1 1 4
BITMAP
FFC0
ENDCHAR
STARTCHAR 2016
ENCODING 8214
SWIDTH 1000 0
DWIDTH 12 0
BBX 2 11 5 0
BITMAP
C0
C0
C0
C0
C0
C0
C0
C0
C0
C0
C0
ENDCHAR
STARTCHAR 2018
ENCODING 8216
SWIDTH 1000 0
DWIDTH 12 0
BBX 2 3 9 7
BITMAP
40
80
C0
ENDCHAR
STARTCHAR 2019
ENCODING 8217
SWIDTH 1000 0
DWIDTH 12 0
BBX 2 3 1 7
BITMAP
C0
C0
80
ENDCHAR
STARTCHAR 201C
ENCODING 8220
SWIDTH 1000 0
DWIDTH 12 0
BBX 4 3 7 7
BITMAP
90
A0
B0
ENDCHAR
STARTCHAR 201D
ENCODING 8221
SWIDTH 1000 0
DWIDTH 12 0
BBX 4 3 1 7
BITMAP
D0
D0
A0
ENDCHAR
STARTCHAR 2020
ENCODING 8224
SWIDTH 1000 0
DWIDTH 12 0
BBX 4 10 4 -1
BITMAP
60
60
F0
D0
60
40
40
40
40
40
ENDCHAR
STARTCHAR 2021
ENCODING 8225
SWIDTH 1000 0
DWIDTH 12 0
BBX 4 11 4 -1
BITMAP
60
40
F0
40
40
40
40
40
F0
40
60
ENDCHAR
STARTCHAR 2022
ENCODING 8226
SWIDTH 333 0
DWIDTH 4 0
BBX 2 2 1 3
BITMAP
C0
C0
ENDCHAR
STARTCHAR 2025
ENCODING 8229
SWIDTH 1000 0
DWIDTH 12 0
BBX 8 2 2 4
BITMAP
C3
C3
ENDCHAR
STARTCHAR 2026
ENCODING 8230
SWIDTH 1000 0
DWIDTH 12 0
BBX 10 1 1 4
BITMAP
CCC0
ENDCHAR
STARTCHAR 2030
ENCODING 8240
SWIDTH 1000 0
DWIDTH 12 0
BBX 10 11 1 -1
BITMAP
C400
A800
A800
B000
D000
2000
2CC0
5540
5540
8CC0
8000
ENDCHAR
STARTCHAR 2032
ENCODING 8242
SWIDTH 250 0
DWIDTH 3 0
BBX 1 3 1 7
BITMAP
80
80
80
ENDCHAR
STARTCHAR 2033
ENCODING 8243
SWIDTH 416 0
DWIDTH 5 0
BBX 3 3 1 7
BITMAP
A0
A0
C0
ENDCHAR
STARTCHAR 203B
ENCODING 8251
SWIDTH 1000 0
DWIDTH 12 0
BBX 10 10 1 0
BITMAP
0C00
8C80
4100
2200
D4C0
C8C0
1400
2200
4D00
8C80
ENDCHAR
STARTCHAR 203C
ENCODING 8252
SWIDTH 500 0
DWIDTH 6 0
BBX 4 9 1 0
BITMAP
A0
A0
A0
A0
A0
A0
00
00
B0
ENDCHAR
STARTCHAR 203E
ENCODING 8254
SWIDTH 500 0
DWIDTH 6 0
BBX 4 1 1 7
BITMAP
F0
ENDCHAR
STARTCHAR 203F
ENCODING 8255
SWIDTH 416 0
DWIDTH 5 0
BBX 5 1 0 -1
BITMAP
F8
ENDCHAR
STARTCHAR 2042
ENCODING 8258
SWIDTH 1000 0
DWIDTH 12 0
BBX 8 9 2 0
BITMAP
10
38
34
10
00
42
E7
E7
42
ENDCHAR
STARTCHAR 2047
ENCODING 8263
SWIDTH 916 0
DWIDTH 11 0
BBX 10 9 1 0
BITMAP
F380
94C0
9440
1080
2100
4200
4000
0000
4300
ENDCHAR
STARTCHAR 2048
ENCODING 8264
SWIDTH 750 0
DWIDTH 9 0
BBX 7 9 1 0
BITMAP
F4
94
94
14
24
44
40
00
46
ENDCHAR
STARTCHAR 2049
ENCODING 8265
SWIDTH 750 0
DWIDTH 9 0
BBX 7 9 1 0
BITMAP
9C
A2
A2
82
84
88
00
00
88
ENDCHAR
STARTCHAR 2051
ENCODING 8273
SWIDTH 1000 0
DWIDTH 12 0
BBX 4 9 4 0
BITMAP
40
60
D0
40
00
40
D0
60
40
ENDCHAR
STARTCHAR 205A
ENCODING 8282
SWIDTH 1000 0
DWIDTH 12 0
BBX 2 8 5 1
BITMAP
C0
C0
00
00
00
00
C0
C0
ENDCHAR
STARTCHAR 205D
ENCODING 8285
SWIDTH 1000 0
DWIDTH 12 0
BBX 2 9 5 0
BITMAP
C0
00
00
00
C0
00
00
00
C0
ENDCHAR
STARTCHAR 20AC
ENCODING 8364
SWIDTH 583 0
DWIDTH 7 0
BBX 7 9 0 0
BITMAP
1E
22
42
40
F8
F8
40
62
3C
ENDCHAR
STARTCHAR 2103
ENCODING 8451
SWIDTH 1000 0
DWIDTH 12 0
BBX 9 10 1 0
BITMAP
C000
CF00
1080
2000
2000
2000
2000
2000
1080
0F00
ENDCHAR
STARTCHAR 210F
ENCODING 8463
SWIDTH 583 0
DWIDTH 7 0
BBX 6 9 0 0
BITMAP
60
38
20
5C
64
48
48
88
8C
ENDCHAR
STARTCHAR 2113
ENCODING 8467
SWIDTH 1000 0
DWIDTH 12 0
BBX 4 9 4 0
BITMAP
30
70
50
90
A0
A0
C0
90
60
ENDCHAR
STARTCHAR 2116
ENCODING 8470
SWIDTH 1000 0
DWIDTH 12 0
BBX 10 8 1 1
BITMAP
9000
D000
D300
B480
B480
9480
9480
9340
ENDCHAR
STARTCHAR 2121
ENCODING 8481
SWIDTH 1000 0
DWIDTH 12 0
BBX 10 8 1 1
BITMAP
F000
4000
4F00
4900
4D00
4900
4B00
4FC0
ENDCHAR
STARTCHAR 2127
ENCODING 8487
SWIDTH 833 0
DWIDTH 10 0
BBX 8 9 1 0
BITMAP
F7
A5
42
42
81
81
C3
42
3C
ENDCHAR
STARTCHAR 212B
ENCODING 8491
SWIDTH 1000 0
DWIDTH 12 0
BBX 7 9 2 1
BITMAP
38
10
18
28
28
44
3C
42
82
ENDCHAR
STARTCHAR 2135
ENCODING 8501
SWIDTH 666 0
DWIDTH 8 0
BBX 7 8 1 1
BITMAP
84
8A
48
B0
88
84
84
84
ENDCHAR
STARTCHAR 2153
ENCODING 8531
SWIDTH 750 0
DWIDTH 9 0
BBX 8 9 1 0
BITMAP
42
44
44
48
50
26
22
41
8E
ENDCHAR
STARTCHAR 2154
ENCODING 8532
SWIDTH 750 0
DWIDTH 9 0
BBX 8 9 1 0
BITMAP
C2
A4
48
A8
F6
2A
22
41
8E
ENDCHAR
STARTCHAR 2155
ENCODING 8533
SWIDTH 750 0
DWIDTH 9 0
BBX 7 9 1 0
BITMAP
42
44
44
48
50
26
28
46
8E
ENDCHAR
STARTCHAR 2160
ENCODING 8544
SWIDTH 1000 0
DWIDTH 12 0
BBX 2 8 5 1
BITMAP
C0
80
80
80
80
80
80
C0
ENDCHAR
STARTCHAR 2161
ENCODING 8545
SWIDTH 1000 0
DWIDTH 12 0
BBX 8 8 2 1
BITMAP
FF
44
44
44
44
44
44
FF
ENDCHAR
STARTCHAR 2162
ENCODING 8546
SWIDTH 1000 0
DWIDTH 12 0
BBX 8 8 2 1
BITMAP
FF
91
91
91
91
91
91
FF
ENDCHAR
STARTCHAR 2163
ENCODING 8547
SWIDTH 1000 0
DWIDTH 12 0
BBX 9 8 2 1
BITMAP
F080
9100
9100
8900
8A00
8A00
8400
8400
ENDCHAR
STARTCHAR 2164
ENCODING 8548
SWIDTH 1000 0
DWIDTH 12 0
BBX 8 8 2 0
BITMAP
C3
42
42
24
24
18
18
18
ENDCHAR
STARTCHAR 2165
ENCODING 8549
SWIDTH 1000 0
DWIDTH 12 0
BBX 9 8 1 1
BITMAP
C380
4480
4480
4880
2880
3080
3080
1080
ENDCHAR
STARTCHAR 2166
ENCODING 8550
SWIDTH 1000 0
DWIDTH 12 0
BBX 10 8 1 1
BITMAP
87C0
8A80
4A80
5280
5280
3280
2280
23C0
ENDCHAR
STARTCHAR 2167
ENCODING 8551
SWIDTH 1000 0
DWIDTH 12 0
BBX 10 8 1 1
BITMAP
8FC0
8B40
5340
5340
5340
6340
2340
23C0
ENDCHAR
STARTCHAR 2168
ENCODING 8552
SWIDTH 1000 0
DWIDTH 12 0
BBX 8 8 2 1
BITMAP
F1
8A
8A
84
8C
8A
91
F1
ENDCHAR
STARTCHAR 2169
ENCODING 8553
SWIDTH 1000 0
DWIDTH 12 0
BBX 8 8 2 1
BITMAP
42
24
28
10
18
24
42
C3
ENDCHAR
STARTCHAR 216A
ENCODING 8554
SWIDTH 1000 0
DWIDTH 12 0
BBX 8 8 2 1
BITMAP
8F
51
61
21
21
51
91
8F
ENDCHAR
STARTCHAR 216B
ENCODING 8555
SWIDTH 1000 0
DWIDTH 12 0
BBX 10 8 1 1
BITMAP
CFC0
5280
3280
2280
3280
5280
8A80
8FC0
ENDCHAR
STARTCHAR 2170
ENCODING 8560
SWIDTH 1000 0
DWIDTH 12 0
BBX 2 8 5 1
BITMAP
C0
00
80
80
80
80
80
C0
ENDCHAR
STARTCHAR 2171
ENCODING 8561
SWIDTH 1000 0
DWIDTH 12 0
BBX 5 8 3 1
BITMAP
48
00
C8
48
48
48
48
48
ENDCHAR
STARTCHAR 2172
ENCODING 8562
SWIDTH 1000 0
DWIDTH 12 0
BBX 8 8 2 1
BITMAP
DB
00
92
92
92
92
92
FF
ENDCHAR
STARTCHAR 2173
ENCODING 8563
SWIDTH 1000 0
DWIDTH 12 0
BBX 7 8 3 1
BITMAP
80
00
00
A2
92
94
94
88
ENDCHAR
STARTCHAR 2174
ENCODING 8564
SWIDTH 1000 0
DWIDTH 12 0
BBX 6 5 3 0
BITMAP
84
48
48
30
30
ENDCHAR
STARTCHAR 2175
ENCODING 8565
SWIDTH 1000 0
DWIDTH 12 0
BBX 8 8 2 1
BITMAP
03
00
00
8E
92
52
62
21
ENDCHAR
STARTCHAR 2176
ENCODING 8566
SWIDTH 1000 0
DWIDTH 12 0
BBX 10 8 1 1
BITMAP
02C0
0000
0000
8E80
4A80
5280
3280
23C0
ENDCHAR
STARTCHAR 2177
ENCODING 8567
SWIDTH 1000 0
DWIDTH 12 0
BBX 10 8 1 1
BITMAP
0540
0000
0000
8D40
9540
5540
6540
27C0
ENDCHAR
STARTCHAR 2178
ENCODING 8568
SWIDTH 1000 0
DWIDTH 12 0
BBX 7 8 3 1
BITMAP
80
00
00
92
94
88
94
E2
ENDCHAR
STARTCHAR 2179
ENCODING 8569
SWIDTH 1000 0
DWIDTH 12 0
BBX 6 5 3 1
BITMAP
48
30
30
48
8C
ENDCHAR
STARTCHAR 217A
ENCODING 8570
SWIDTH 1000 0
DWIDTH 12 0
BBX 8 8 2 1
BITMAP
03
00
00
92
62
22
52
8F
ENDCHAR
STARTCHAR 217B
ENCODING 8571
SWIDTH 1000 0
DWIDTH 12 0
BBX 10 8 1 1
BITMAP
02C0
0000
0000
4E80
3280
2280
5280
8FC0
ENDCHAR
STARTCHAR 2190
ENCODING 8592
SWIDTH 1000 0
DWIDTH 12 0
BBX 10 5 1 2
BITMAP
2000
4000
FFC0
4000
2000
ENDCHAR
STARTCHAR 2191
ENCODING 8593
SWIDTH 1000 0
DWIDTH 12 0
BBX 4 9 4 0
BITMAP
60
D0
40
40
40
40
40
40
40
ENDCHAR
STARTCHAR 2192
ENCODING 8594
SWIDTH 1000 0
DWIDTH 12 0
BBX 10 5 1 2
BITMAP
0100
0080
FFC0
0080
0100
ENDCHAR
STARTCHAR 2193
ENCODING 8595
SWIDTH 1000 0
DWIDTH 12 0
BBX 4 9 4 0
BITMAP
40
40
40
40
40
40
40
D0
60
ENDCHAR
STARTCHAR 2194
ENCODING 8596
SWIDTH 750 0
DWIDTH 9 0
BBX 7 5 1 1
BITMAP
48
84
FE
84
44
ENDCHAR
STARTCHAR 2196
ENCODING 8598
SWIDTH 1000 0
DWIDTH 12 0
BBX 8 8 2 0
BITMAP
E0
C0
A0
90
08
04
02
01
ENDCHAR
STARTCHAR 2197
ENCODING 8599
SWIDTH 1000 0
DWIDTH 12 0
BBX 8 8 2 0
BITMAP
07
03
05
09
10
20
40
80
ENDCHAR
STARTCHAR 2198
ENCODING 8600
SWIDTH 1000 0
DWIDTH 12 0
BBX 8 8 2 1
BITMAP
80
40
20
10
09
05
03
07
ENDCHAR
STARTCHAR 2199
ENCODING 8601
SWIDTH 1000 0
DWIDTH 12 0
BBX 8 8 2 1
BITMAP
03
04
08
10
A0
C0
80
E0
ENDCHAR
STARTCHAR 21C4
ENCODING 8644
SWIDTH 1000 0
DWIDTH 12 0
BBX 10 9 1 0
BITMAP
0100
0080
FFC0
0080
0000
4000
FFC0
4000
2000
ENDCHAR
STARTCHAR 21D2
ENCODING 8658
SWIDTH 750 0
DWIDTH 9 0
BBX 7 4 1 2
BITMAP
04
FE
FE
04
ENDCHAR
STARTCHAR 21D4
ENCODING 8660
SWIDTH 750 0
DWIDTH 9 0
BBX 7 4 1 2
BITMAP
44
FE
FE
44
ENDCHAR
STARTCHAR 21E6
ENCODING 8678
SWIDTH 1000 0
DWIDTH 12 0
BBX 10 3 1 3
BITMAP
6000
9FC0
7F80
ENDCHAR
STARTCHAR 21E7
ENCODING 8679
SWIDTH 1000 0
DWIDTH 12 0
BBX 4 9 4 0
BITMAP
40
A0
90
60
60
60
60
60
60
ENDCHAR
STARTCHAR 21E8
ENCODING 8680
SWIDTH 1000 0
DWIDTH 12 0
BBX 10 3 1 3
BITMAP
0300
FCC0
7F80
ENDCHAR
STARTCHAR 21E9
ENCODING 8681
SWIDTH 1000 0
DWIDTH 12 0
BBX 4 9 4 0
BITMAP
60
60
60
60
60
60
90
A0
60
ENDCHAR
STARTCHAR 2200
ENCODING 8704
SWIDTH 750 0
DWIDTH 9 0
BBX 8 9 0 0
BITMAP
81
41
42
3E
22
24
14
18
08
ENDCHAR
STARTCHAR 2202
ENCODING 8706
SWIDTH 583 0
DWIDTH 7 0
BBX 5 9 1 0
BITMAP
30
48
08
08
78
88
88
90
E0
ENDCHAR
STARTCHAR 2203
ENCODING 8707
SWIDTH 750 0
DWIDTH 9 0
BBX 6 9 1 0
BITMAP
FC
04
04
04
FC
04
04
04
FC
ENDCHAR
STARTCHAR 2205
ENCODING 8709
SWIDTH 750 0
DWIDTH 9 0
BBX 7 8 1 0
BITMAP
3C
42
8E
92
A2
C2
46
BC
ENDCHAR
STARTCHAR 2207
ENCODING 8711
SWIDTH 750 0
DWIDTH 9 0
BBX 7 9 1 0
BITMAP
FE
82
84
44
48
28
28
10
10
ENDCHAR
STARTCHAR 2208
ENCODING 8712
SWIDTH 666 0
DWIDTH 8 0
BBX 6 6 1 1
BITMAP
7C
80
80
FC
80
7C
ENDCHAR
STARTCHAR 2209
ENCODING 8713
SWIDTH 666 0
DWIDTH 8 0
BBX 6 8 1 0
BITMAP
08
7C
90
90
FC
A0
7C
40
ENDCHAR
STARTCHAR 220B
ENCODING 8715
SWIDTH 666 0
DWIDTH 8 0
BBX 6 6 1 1
BITMAP
F8
04
04
FC
04
F8
ENDCHAR
STARTCHAR 2212
ENCODING 8722
SWIDTH 666 0
DWIDTH 8 0
BBX 6 1 1 3
BITMAP
FC
ENDCHAR
STARTCHAR 2213
ENCODING 8723
SWIDTH 666 0
DWIDTH 8 0
BBX 6 7 1 -1
BITMAP
FC
00
20
20
FC
20
20
ENDCHAR
STARTCHAR 2219
ENCODING 8729
SWIDTH 250 0
DWIDTH 3 0
BBX 1 1 1 3
BITMAP
80
ENDCHAR
STARTCHAR 221A
ENCODING 8730
SWIDTH 500 0
DWIDTH 6 0
BBX 6 11 1 -1
BITMAP
04
08
08
10
10
10
A0
A0
A0
40
40
ENDCHAR
STARTCHAR 221D
ENCODING 8733
SWIDTH 666 0
DWIDTH 8 0
BBX 6 4 1 2
BITMAP
6C
90
90
6C
ENDCHAR
STARTCHAR 221E
ENCODING 8734
SWIDTH 666 0
DWIDTH 8 0
BBX 7 4 1 2
BITMAP
CC
B2
B2
CC
ENDCHAR
STARTCHAR 221F
ENCODING 8735
SWIDTH 666 0
DWIDTH 8 0
BBX 6 8 1 1
BITMAP
80
80
80
80
80
80
80
FC
ENDCHAR
STARTCHAR 2220
ENCODING 8736
SWIDTH 666 0
DWIDTH 8 0
BBX 7 8 1 1
BITMAP
10
20
20
40
40
80
80
FE
ENDCHAR
STARTCHAR 2225
ENCODING 8741
SWIDTH 666 0
DWIDTH 8 0
BBX 6 11 1 -1
BITMAP
04
14
28
28
28
50
50
60
A0
A0
80
ENDCHAR
STARTCHAR 2226
ENCODING 8742
SWIDTH 666 0
DWIDTH 8 0
BBX 6 11 1 -1
BITMAP
14
14
A8
68
30
50
58
68
A0
A0
80
ENDCHAR
STARTCHAR 2227
ENCODING 8743
SWIDTH 666 0
DWIDTH 8 0
BBX 6 5 1 1
BITMAP
30
50
48
88
84
ENDCHAR
STARTCHAR 2228
ENCODING 8744
SWIDTH 666 0
DWIDTH 8 0
BBX 6 6 1 1
BITMAP
84
84
48
48
50
30
ENDCHAR
STARTCHAR 2229
ENCODING 8745
SWIDTH 666 0
DWIDTH 8 0
BBX 6 7 1 0
BITMAP
78
84
84
84
84
84
84
ENDCHAR
STARTCHAR 222A
ENCODING 8746
SWIDTH 666 0
DWIDTH 8 0
BBX 6 7 1 0
BITMAP
84
84
84
84
84
44
78
ENDCHAR
STARTCHAR 222B
ENCODING 8747
SWIDTH 583 0
DWIDTH 7 0
BBX 6 11 0 -2
BITMAP
0C
10
10
10
10
10
10
10
10
A0
60
ENDCHAR
STARTCHAR 222C
ENCODING 8748
SWIDTH 916 0
DWIDTH 11 0
BBX 10 11 0 -2
BITMAP
0CC0
1100
1100
1100
1100
1100
1100
1200
1200
AA00
6E00
ENDCHAR
STARTCHAR 222E
ENCODING 8750
SWIDTH 583 0
DWIDTH 7 0
BBX 6 11 0 -2
BITMAP
0C
10
10
10
78
58
38
10
10
A0
60
ENDCHAR
STARTCHAR 2234
ENCODING 8756
SWIDTH 666 0
DWIDTH 8 0
BBX 6 6 1 1
BITMAP
30
30
00
00
84
84
ENDCHAR
STARTCHAR 2235
ENCODING 8757
SWIDTH 666 0
DWIDTH 8 0
BBX 6 6 1 1
BITMAP
84
84
00
00
30
30
ENDCHAR
STARTCHAR 223C
ENCODING 8764
SWIDTH 500 0
DWIDTH 6 0
BBX 3 1 2 8
BITMAP
E0
ENDCHAR
STARTCHAR 223D
ENCODING 8765
SWIDTH 666 0
DWIDTH 8 0
BBX 7 4 1 2
BITMAP
CC
92
A2
EC
ENDCHAR
STARTCHAR 2243
ENCODING 8771
SWIDTH 666 0
DWIDTH 8 0
BBX 6 4 1 2
BITMAP
E0
1C
00
FC
ENDCHAR
STARTCHAR 2245
ENCODING 8773
SWIDTH 666 0
DWIDTH 8 0
BBX 6 5 1 1
BITMAP
FC
00
FC
00
FC
ENDCHAR
STARTCHAR 2248
ENCODING 8776
SWIDTH 666 0
DWIDTH 8 0
BBX 6 3 1 2
BITMAP
FC
00
FC
ENDCHAR
STARTCHAR 2252
ENCODING 8786
SWIDTH 666 0
DWIDTH 8 0
BBX 6 8 1 0
BITMAP
C0
C0
00
FC
00
FC
0C
0C
ENDCHAR
STARTCHAR 2260
ENCODING 8800
SWIDTH 666 0
DWIDTH 8 0
BBX 6 6 1 0
BITMAP
10
10
FC
20
FC
20
ENDCHAR
STARTCHAR 2261
ENCODING 8801
SWIDTH 666 0
DWIDTH 8 0
BBX 6 4 1 2
BITMAP
FC
00
FC
FC
ENDCHAR
STARTCHAR 2262
ENCODING 8802
SWIDTH 666 0
DWIDTH 8 0
BBX 6 6 1 0
BITMAP
10
FC
10
FC
FC
40
ENDCHAR
STARTCHAR 2266
ENCODING 8806
SWIDTH 666 0
DWIDTH 8 0
BBX 6 8 1 0
BITMAP
0C
70
C0
38
04
FC
00
FC
ENDCHAR
STARTCHAR 2267
ENCODING 8807
SWIDTH 666 0
DWIDTH 8 0
BBX 6 8 1 0
BITMAP
C0
38
0C
70
80
FC
00
FC
ENDCHAR
STARTCHAR 226A
ENCODING 8810
SWIDTH 666 0
DWIDTH 8 0
BBX 6 6 1 1
BITMAP
14
28
D0
A0
50
3C
ENDCHAR
STARTCHAR 226B
ENCODING 8811
SWIDTH 666 0
DWIDTH 8 0
BBX 6 6 1 1
BITMAP
A0
58
24
14
28
D0
ENDCHAR
STARTCHAR 2276
ENCODING 8822
SWIDTH 666 0
DWIDTH 8 0
BBX 6 8 1 0
BITMAP
04
78
C0
38
E4
1C
18
E0
ENDCHAR
STARTCHAR 2277
ENCODING 8823
SWIDTH 666 0
DWIDTH 8 0
BBX 6 8 1 0
BITMAP
C0
38
0C
70
9C
E0
60
1C
ENDCHAR
STARTCHAR 2282
ENCODING 8834
SWIDTH 666 0
DWIDTH 8 0
BBX 6 6 1 1
BITMAP
7C
80
80
80
80
7C
ENDCHAR
STARTCHAR 2283
ENCODING 8835
SWIDTH 666 0
DWIDTH 8 0
BBX 6 6 1 1
BITMAP
F8
04
04
04
04
F8
ENDCHAR
STARTCHAR 2284
ENCODING 8836
SWIDTH 666 0
DWIDTH 8 0
BBX 6 8 1 0
BITMAP
08
7C
88
90
90
A0
7C
20
ENDCHAR
STARTCHAR 2285
ENCODING 8837
SWIDTH 666 0
DWIDTH 8 0
BBX 6 7 1 1
BITMAP
F8
14
24
24
44
F8
80
ENDCHAR
STARTCHAR 2286
ENCODING 8838
SWIDTH 666 0
DWIDTH 8 0
BBX 6 7 1 1
BITMAP
7C
80
80
80
7C
00
FC
ENDCHAR
STARTCHAR 2287
ENCODING 8839
SWIDTH 666 0
DWIDTH 8 0
BBX 6 7 1 1
BITMAP
F8
04
04
04
FC
00
FC
ENDCHAR
STARTCHAR 228A
ENCODING 8842
SWIDTH 666 0
DWIDTH 8 0
BBX 6 8 1 0
BITMAP
7C
80
80
80
80
7C
FC
20
ENDCHAR
STARTCHAR 228B
ENCODING 8843
SWIDTH 666 0
DWIDTH 8 0
BBX 6 8 1 0
BITMAP
F8
04
04
04
04
F8
FC
20
ENDCHAR
STARTCHAR 2295
ENCODING 8853
SWIDTH 833 0
DWIDTH 10 0
BBX 9 9 1 0
BITMAP
3C00
4200
9100
9100
FE80
9080
9100
4300
3C00
ENDCHAR
STARTCHAR 2296
ENCODING 8854
SWIDTH 833 0
DWIDTH 10 0
BBX 9 9 1 0
BITMAP
3C00
4200
8100
8100
FE80
8080
8100
4300
3C00
ENDCHAR
STARTCHAR 2297
ENCODING 8855
SWIDTH 833 0
DWIDTH 10 0
BBX 9 9 1 0
BITMAP
3C00
4200
A500
9900
8880
9480
A300
4300
3C00
ENDCHAR
STARTCHAR 22A5
ENCODING 8869
SWIDTH 666 0
DWIDTH 8 0
BBX 7 7 1 2
BITMAP
20
20
20
20
20
20
FE
ENDCHAR
STARTCHAR 22BF
ENCODING 8895
SWIDTH 666 0
DWIDTH 8 0
BBX 7 8 1 1
BITMAP
02
06
0A
12
22
42
82
FE
ENDCHAR
STARTCHAR 22DA
ENCODING 8922
SWIDTH 666 0
DWIDTH 8 0
BBX 6 9 1 0
BITMAP
0C
F0
30
0C
FC
00
F0
0C
F0
ENDCHAR
STARTCHAR 22DB
ENCODING 8923
SWIDTH 666 0
DWIDTH 8 0
BBX 6 9 1 0
BITMAP
C0
3C
38
C0
FC
00
3C
C0
3C
ENDCHAR
STARTCHAR 2305
ENCODING 8965
SWIDTH 666 0
DWIDTH 8 0
BBX 6 5 1 0
BITMAP
FC
30
30
48
48
ENDCHAR
STARTCHAR 2306
ENCODING 8966
SWIDTH 666 0
DWIDTH 8 0
BBX 6 6 1 0
BITMAP
FC
00
FC
30
30
48
ENDCHAR
STARTCHAR 2312
ENCODING 8978
SWIDTH 1000 0
DWIDTH 12 0
BBX 12 3 0 7
BITMAP
1F80
6060
8010
ENDCHAR
STARTCHAR 2318
ENCODING 8984
SWIDTH 1000 0
DWIDTH 12 0
BBX 10 11 1 -1
BITMAP
C0C0
A140
A140
FFC0
2100
2100
2100
FFC0
A140
A140
C0C0
ENDCHAR
STARTCHAR 23BE
ENCODING 9150
SWIDTH 1000 0
DWIDTH 12 0
BBX 6 12 6 -2
BITMAP
FC
80
80
80
80
80
80
80
80
80
80
80
ENDCHAR
STARTCHAR 23BF
ENCODING 9151
SWIDTH 1000 0
DWIDTH 12 0
BBX 6 12 6 0
BITMAP
80
80
80
80
80
80
80
80
80
80
80
FC
ENDCHAR
STARTCHAR 23C0
ENCODING 9152
SWIDTH 1000 0
DWIDTH 12 0
BBX 10 10 1 0
BITMAP
0800
1E00
6900
8880
8880
8840
8880
8880
4900
3E00
ENDCHAR
STARTCHAR 23C1
ENCODING 9153
SWIDTH 1000 0
DWIDTH 12 0
BBX 12 12 0 -2
BITMAP
FFF0
0400
0F00
3480
4440
4440
4420
4440
4440
2480
1D00
0600
ENDCHAR
STARTCHAR 23C2
ENCODING 9154
SWIDTH 1000 0
DWIDTH 12 0
BBX 12 12 0 0
BITMAP
0400
0F00
3480
4440
4440
4420
4440
4440
2480
1D00
0600
FFF0
ENDCHAR
STARTCHAR 23C3
ENCODING 9155
SWIDTH 1000 0
DWIDTH 12 0
BBX 10 11 1 -1
BITMAP
0800
0800
0C00
1A00
2A00
2900
4900
4880
8880
FFC0
0800
ENDCHAR
STARTCHAR 23C4
ENCODING 9156
SWIDTH 1000 0
DWIDTH 12 0
BBX 12 12 0 -2
BITMAP
FFF0
0400
0400
0600
0D00
1500
1480
2480
2440
4440
7FE0
0400
ENDCHAR
STARTCHAR 23C5
ENCODING 9157
SWIDTH 1000 0
DWIDTH 12 0
BBX 12 11 0 0
BITMAP
0400
0400
0600
0D00
1500
1480
2480
2440
4440
7FE0
FFF0
ENDCHAR
STARTCHAR 23C6
ENCODING 9158
SWIDTH 1000 0
DWIDTH 12 0
BBX 10 10 1 0
BITMAP
0800
0800
0800
0800
F800
0400
0BC0
0800
0800
0800
ENDCHAR
STARTCHAR 23C7
ENCODING 9159
SWIDTH 1000 0
DWIDTH 12 0
BBX 12 12 0 -2
BITMAP
FFF0
0400
0400
0400
0400
7C00
0600
05E0
0400
0400
0400
0400
ENDCHAR
STARTCHAR 23C8
ENCODING 9160
SWIDTH 1000 0
DWIDTH 12 0
BBX 12 12 0 0
BITMAP
0400
0400
0400
0400
7C00
0600
05E0
0400
0400
0400
0400
FFF0
ENDCHAR
STARTCHAR 23C9
ENCODING 9161
SWIDTH 1000 0
DWIDTH 12 0
BBX 12 12 0 -2
BITMAP
FFF0
0400
0400
0400
0400
0400
0400
0400
0400
0400
0400
0400
ENDCHAR
STARTCHAR 23CA
ENCODING 9162
SWIDTH 1000 0
DWIDTH 12 0
BBX 12 12 0 0
BITMAP
0400
0400
0400
0400
0400
0400
0400
0400
0400
0400
0400
FFF0
ENDCHAR
STARTCHAR 23CB
ENCODING 9163
SWIDTH 1000 0
DWIDTH 12 0
BBX 6 12 0 -2
BITMAP
FC
04
04
04
04
04
04
04
04
04
04
04
ENDCHAR
STARTCHAR 23CC
ENCODING 9164
SWIDTH 1000 0
DWIDTH 12 0
BBX 6 12 0 0
BITMAP
04
04
04
04
04
04
04
04
04
04
04
FC
ENDCHAR
STARTCHAR 23CE
ENCODING 9166
SWIDTH 1000 0
DWIDTH 12 0
BBX 10 10 1 -1
BITMAP
03C0
0240
0240
1240
3240
5E40
8040
5F80
3000
1000
ENDCHAR
STARTCHAR 2423
ENCODING 9251
SWIDTH 1000 0
DWIDTH 12 0
BBX 10 3 1 0
BITMAP
8040
8040
FFC0
ENDCHAR
STARTCHAR 2460
ENCODING 9312
SWIDTH 1000 0
DWIDTH 12 0
BBX 10 11 1 -1
BITMAP
1E00
6180
8840
8840
8840
8840
8840
8840
8480
6080
1F00
ENDCHAR
STARTCHAR 2461
ENCODING 9313
SWIDTH 1000 0
DWIDTH 12 0
BBX 10 11 1 -1
BITMAP
3F00
CF80
9240
9240
8240
8440
8840
9240
9E80
6080
1F00
ENDCHAR
STARTCHAR 2462
ENCODING 9314
SWIDTH 1000 0
DWIDTH 12 0
BBX 10 11 1 -1
BITMAP
1E00
6180
9E40
9240
8240
8C40
8240
9240
9E80
6080
1F00
ENDCHAR
STARTCHAR 2463
ENCODING 9315
SWIDTH 1000 0
DWIDTH 12 0
BBX 10 11 1 -1
BITMAP
3F00
C580
8440
9C40
9440
A440
BF40
8440
8480
6080
1F00
ENDCHAR
STARTCHAR 2464
ENCODING 9316
SWIDTH 1000 0
DWIDTH 12 0
BBX 10 11 1 -1
BITMAP
1E00
6180
9E80
9040
9040
AE40
9240
9140
A240
5E80
3F00
ENDCHAR
STARTCHAR 2465
ENCODING 9317
SWIDTH 1000 0
DWIDTH 12 0
BBX 10 11 1 -1
BITMAP
1E00
6180
8E40
9240
9040
9E40
A240
9240
8E80
6080
1F00
ENDCHAR
STARTCHAR 2466
ENCODING 9318
SWIDTH 1000 0
DWIDTH 12 0
BBX 10 11 1 -1
BITMAP
1E00
6180
9E80
A240
8240
8440
8440
8440
8840
4880
3F00
ENDCHAR
STARTCHAR 2467
ENCODING 9319
SWIDTH 1000 0
DWIDTH 12 0
BBX 10 11 1 -1
BITMAP
1E00
6180
9E40
9240
9240
8C40
B240
A240
9E80
6080
1F00
ENDCHAR
STARTCHAR 2468
ENCODING 9320
SWIDTH 1000 0
DWIDTH 12 0
BBX 10 11 1 -1
BITMAP
1E00
6180
9C40
9240
9240
9E40
8240
9240
9C80
6080
1F00
ENDCHAR
STARTCHAR 2469
ENCODING 9321
SWIDTH 1000 0
DWIDTH 12 0
BBX 10 11 1 -1
BITMAP
1E00
6180
A780
A540
A540
A940
A540
A540
A740
6080
1F00
ENDCHAR
STARTCHAR 246A
ENCODING 9322
SWIDTH 1000 0
DWIDTH 12 0
BBX 10 11 1 -1
BITMAP
1E00
6180
A280
A240
A240
A240
A240
A240
A140
6080
1F00
ENDCHAR
STARTCHAR 246B
ENCODING 9323
SWIDTH 1000 0
DWIDTH 12 0
BBX 10 11 1 -1
BITMAP
3F00
4180
A740
A540
A140
A240
A440
A440
B780
6080
1F00
ENDCHAR
STARTCHAR 246C
ENCODING 9324
SWIDTH 1000 0
DWIDTH 12 0
BBX 10 11 1 -1
BITMAP
1E00
6180
A780
A540
A140
A240
A140
A540
A740
6080
1F00
ENDCHAR
STARTCHAR 246D
ENCODING 9325
SWIDTH 1000 0
DWIDTH 12 0
BBX 10 11 1 -1
BITMAP
3F00
C180
A240
A640
A640
AA40
AFC0
A240
A180
6080
1F00
ENDCHAR
STARTCHAR 246E
ENCODING 9326
SWIDTH 1000 0
DWIDTH 12 0
BBX 10 11 1 -1
BITMAP
1E00
6180
A780
A840
A840
A740
A140
A540
A780
6080
1F00
ENDCHAR
STARTCHAR 246F
ENCODING 9327
SWIDTH 1000 0
DWIDTH 12 0
BBX 10 11 1 -1
BITMAP
1E00
6180
A380
A540
A840
A740
A940
A540
A740
6080
1F00
ENDCHAR
STARTCHAR 2470
ENCODING 9328
SWIDTH 1000 0
DWIDTH 12 0
BBX 10 11 1 -1
BITMAP
1E00
6180
A780
A140
A140
A240
A240
A240
A280
6080
1F00
ENDCHAR
STARTCHAR 2471
ENCODING 9329
SWIDTH 1000 0
DWIDTH 12 0
BBX 10 11 1 -1
BITMAP
1E00
6180
A780
A540
A540
A240
AD40
A940
A740
6080
1F00
ENDCHAR
STARTCHAR 2472
ENCODING 9330
SWIDTH 1000 0
DWIDTH 12 0
BBX 10 11 1 -1
BITMAP
1E00
6180
A780
A940
A940
A740
A140
A540
A640
6080
1F00
ENDCHAR
STARTCHAR 2473
ENCODING 9331
SWIDTH 1000 0
DWIDTH 12 0
BBX 10 11 1 -1
BITMAP
3F00
4180
B340
ED40
94C0
94C0
A4C0
CD40
7B80
6080
1F00
ENDCHAR
STARTCHAR 24D0
ENCODING 9424
SWIDTH 1000 0
DWIDTH 12 0
BBX 10 11 1 -1
BITMAP
1E00
6180
8040
9C40
9240
9E40
9240
9E40
8080
6080
1F00
ENDCHAR
STARTCHAR 24D1
ENCODING 9425
SWIDTH 1000 0
DWIDTH 12 0
BBX 10 11 1 -1
BITMAP
1E00
6180
9040
9040
9E40
9140
9140
9140
9E80
6080
1F00
ENDCHAR
STARTCHAR 24D2
ENCODING 9426
SWIDTH 1000 0
DWIDTH 12 0
BBX 10 11 1 -1
BITMAP
1E00
6180
8040
8C40
9240
9040
9240
8C40
8080
6080
1F00
ENDCHAR
STARTCHAR 24D3
ENCODING 9427
SWIDTH 1000 0
DWIDTH 12 0
BBX 10 11 1 -1
BITMAP
1E00
6180
8240
8240
9E40
9240
A240
A240
9E80
6080
1F00
ENDCHAR
STARTCHAR 24D4
ENCODING 9428
SWIDTH 1000 0
DWIDTH 12 0
BBX 10 11 1 -1
BITMAP
1E00
6180
8080
9E40
9240
AC40
9240
8C40
8080
6080
1F00
ENDCHAR
STARTCHAR 24D5
ENCODING 9429
SWIDTH 1000 0
DWIDTH 12 0
BBX 10 11 1 -1
BITMAP
1E00
6180
8E40
8840
8840
8840
8840
8840
8880
6080
1F00
ENDCHAR
STARTCHAR 24D6
ENCODING 9430
SWIDTH 1000 0
DWIDTH 12 0
BBX 10 11 1 -1
BITMAP
1E00
6180
8F40
9240
9440
9840
9E40
A240
9E80
6080
1F00
ENDCHAR
STARTCHAR 24D7
ENCODING 9431
SWIDTH 1000 0
DWIDTH 12 0
BBX 10 11 1 -1
BITMAP
1E00
6100
9080
9040
9E40
9240
9240
9240
9240
4080
3F00
ENDCHAR
STARTCHAR 24D8
ENCODING 9432
SWIDTH 1000 0
DWIDTH 12 0
BBX 10 11 1 -1
BITMAP
1E00
6100
8C80
8040
8840
8840
8840
8840
8840
4080
3F00
ENDCHAR
STARTCHAR 24D9
ENCODING 9433
SWIDTH 1000 0
DWIDTH 12 0
BBX 10 11 1 -1
BITMAP
1E00
6580
8040
8440
8440
8440
8440
8440
9480
7880
1F00
ENDCHAR
STARTCHAR 24DA
ENCODING 9434
SWIDTH 1000 0
DWIDTH 12 0
BBX 10 11 1 -1
BITMAP
1E00
6180
9040
9040
9240
9440
9C40
9440
9280
4080
3F00
ENDCHAR
STARTCHAR 24DB
ENCODING 9435
SWIDTH 1000 0
DWIDTH 12 0
BBX 10 11 1 -1
BITMAP
1E00
6100
8880
8840
8840
8840
8840
8840
8840
4080
3F00
ENDCHAR
STARTCHAR 24DC
ENCODING 9436
SWIDTH 1000 0
DWIDTH 12 0
BBX 10 11 1 -1
BITMAP
1E00
6100
8080
FB40
A540
A540
A540
A540
8040
4080
3F00
ENDCHAR
STARTCHAR 24DD
ENCODING 9437
SWIDTH 1000 0
DWIDTH 12 0
BBX 10 11 1 -1
BITMAP
1E00
6100
8080
9E40
9240
9240
9240
9240
8040
4080
3F00
ENDCHAR
STARTCHAR 24DE
ENCODING 9438
SWIDTH 1000 0
DWIDTH 12 0
BBX 10 11 1 -1
BITMAP
1E00
6180
8040
9C40
9240
9240
9240
8C40
8080
6080
1F00
ENDCHAR
STARTCHAR 24DF
ENCODING 9439
SWIDTH 1000 0
DWIDTH 12 0
BBX 10 11 1 -1
BITMAP
1E00
6100
8080
9E40
9140
9140
9E40
9040
9040
4080
3F00
ENDCHAR
STARTCHAR 24E0
ENCODING 9440
SWIDTH 1000 0
DWIDTH 12 0
BBX 10 11 1 -1
BITMAP
1E00
6100
8080
9E40
A240
A240
9E40
8240
8240
4080
3F00
ENDCHAR
STARTCHAR 24E1
ENCODING 9441
SWIDTH 1000 0
DWIDTH 12 0
BBX 10 11 1 -1
BITMAP
1E00
6100
8080
9E40
8840
8840
8840
8840
8040
4080
3F00
ENDCHAR
STARTCHAR 24E2
ENCODING 9442
SWIDTH 1000 0
DWIDTH 12 0
BBX 10 11 1 -1
BITMAP
1E00
6180
8040
9E40
9240
8C40
9240
9240
8C80
6080
1F00
ENDCHAR
STARTCHAR 24E3
ENCODING 9443
SWIDTH 1000 0
DWIDTH 12 0
BBX 10 11 1 -1
BITMAP
1E00
6100
8080
8840
8840
8840
8840
8E40
8040
6080
1F00
ENDCHAR
STARTCHAR 24E4
ENCODING 9444
SWIDTH 1000 0
DWIDTH 12 0
BBX 10 11 1 -1
BITMAP
1E00
6180
8040
9240
9240
9240
9240
8F40
8080
6080
1F00
ENDCHAR
STARTCHAR 24E5
ENCODING 9445
SWIDTH 1000 0
DWIDTH 12 0
BBX 10 10 1 0
BITMAP
3F00
C180
8040
9240
9240
8C40
8C40
8040
4080
3F00
ENDCHAR
STARTCHAR 24E6
ENCODING 9446
SWIDTH 1000 0
DWIDTH 12 0
BBX 10 10 1 0
BITMAP
3F00
C180
8040
A540
A540
AE40
9240
8240
4080
3F00
ENDCHAR
STARTCHAR 24E7
ENCODING 9447
SWIDTH 1000 0
DWIDTH 12 0
BBX 10 11 1 -1
BITMAP
1E00
6180
8040
9240
8C40
8440
9C40
9240
8080
4080
3F00
ENDCHAR
STARTCHAR 24E8
ENCODING 9448
SWIDTH 1000 0
DWIDTH 12 0
BBX 10 11 1 -1
BITMAP
1E00
6100
8080
9240
9240
8C40
8440
8840
9840
4080
3F00
ENDCHAR
STARTCHAR 24E9
ENCODING 9449
SWIDTH 1000 0
DWIDTH 12 0
BBX 10 11 1 -1
BITMAP
1E00
6180
8040
9E40
8440
8840
9240
9E40
8080
4080
3F00
ENDCHAR
STARTCHAR 24EB
ENCODING 9451
SWIDTH 1000 0
DWIDTH 12 0
BBX 10 11 1 -1
BITMAP
1E00
7F80
DC80
FEC0
FEC0
FEC0
FEC0
FEC0
DEC0
7F80
1E00
ENDCHAR
STARTCHAR 24EC
ENCODING 9452
SWIDTH 1000 0
DWIDTH 12 0
BBX 10 11 1 -1
BITMAP
3F00
7F80
DAC0
DAC0
DEC0
DFC0
DDC0
DBC0
4880
7F80
1E00
ENDCHAR
STARTCHAR 24ED
ENCODING 9453
SWIDTH 1000 0
DWIDTH 12 0
BBX 10 11 1 -1
BITMAP
1E00
7F80
DA80
DBC0
DEC0
DDC0
DFC0
DBC0
DAC0
7F80
1E00
ENDCHAR
STARTCHAR 24EE
ENCODING 9454
SWIDTH 1000 0
DWIDTH 12 0
BBX 10 11 1 -1
BITMAP
3F00
7E80
DCC0
DEC0
DAC0
DEC0
D040
DEC0
5E80
7F80
1E00
ENDCHAR
STARTCHAR 24EF
ENCODING 9455
SWIDTH 1000 0
DWIDTH 12 0
BBX 10 11 1 -1
BITMAP
1E00
7F80
D8C0
DBC0
DFC0
DAC0
DF40
DBC0
DA80
7F80
1E00
ENDCHAR
STARTCHAR 24F0
ENCODING 9456
SWIDTH 1000 0
DWIDTH 12 0
BBX 10 11 1 -1
BITMAP
1E00
7F80
DF80
DAC0
DBC0
DAC0
DFC0
DBC0
DAC0
7F80
1E00
ENDCHAR
STARTCHAR 24F1
ENCODING 9457
SWIDTH 1000 0
DWIDTH 12 0
BBX 10 11 1 -1
BITMAP
1E00
7F80
D8C0
DFC0
DEC0
DFC0
DDC0
DDC0
DD80
7F80
1E00
ENDCHAR
STARTCHAR 24F2
ENCODING 9458
SWIDTH 1000 0
DWIDTH 12 0
BBX 10 11 1 -1
BITMAP
1E00
7F80
DA80
DBC0
DAC0
DDC0
DEC0
DF40
DAC0
7F80
1E00
ENDCHAR
STARTCHAR 24F3
ENCODING 9459
SWIDTH 1000 0
DWIDTH 12 0
BBX 10 11 1 -1
BITMAP
1E00
7F80
DA80
DBC0
DBC0
DAC0
DFC0
DBC0
DAC0
7F80
1E00
ENDCHAR
STARTCHAR 24F4
ENCODING 9460
SWIDTH 1000 0
DWIDTH 12 0
BBX 10 11 1 -1
BITMAP
3F00
7F80
FDC0
B740
FF40
EF40
DF40
F740
8580
7F80
1E00
ENDCHAR
STARTCHAR 24F5
ENCODING 9461
SWIDTH 1000 0
DWIDTH 12 0
BBX 12 11 0 -1
BITMAP
1F00
7FC0
64E0
C460
C430
8410
C430
C460
6260
51C0
3F80
ENDCHAR
STARTCHAR 24F6
ENCODING 9462
SWIDTH 1000 0
DWIDTH 12 0
BBX 12 11 0 -1
BITMAP
0F00
70C0
6F60
4920
C130
8210
C420
C860
6FA0
5140
3F80
ENDCHAR
STARTCHAR 24F7
ENCODING 9463
SWIDTH 1000 0
DWIDTH 12 0
BBX 12 11 0 -1
BITMAP
1F00
7FC0
6FE0
C960
C130
8610
C130
C960
6F60
51C0
3F80
ENDCHAR
STARTCHAR 24F8
ENCODING 9464
SWIDTH 1000 0
DWIDTH 12 0
BBX 12 12 0 -1
BITMAP
0F00
30C0
60C0
4220
4E20
8A10
9210
5FB0
C260
62A0
5140
3F80
ENDCHAR
STARTCHAR 24F9
ENCODING 9465
SWIDTH 1000 0
DWIDTH 12 0
BBX 12 11 0 -1
BITMAP
1F00
7FC0
6FE0
C860
C830
8F10
C130
C960
6F60
51C0
3F80
ENDCHAR
STARTCHAR 24FA
ENCODING 9466
SWIDTH 1000 0
DWIDTH 12 0
BBX 12 11 0 -1
BITMAP
1F00
7FC0
67E0
C960
C830
8F10
D130
C960
6760
51C0
3F80
ENDCHAR
STARTCHAR 24FB
ENCODING 9467
SWIDTH 1000 0
DWIDTH 12 0
BBX 12 11 0 -1
BITMAP
1F00
7FC0
6FE0
D160
C230
8210
C230
C460
6460
51C0
3F80
ENDCHAR
STARTCHAR 24FC
ENCODING 9468
SWIDTH 1000 0
DWIDTH 12 0
BBX 12 11 0 -1
BITMAP
1F00
7FC0
6FE0
C960
C930
8610
D930
C960
6F60
51C0
3F80
ENDCHAR
STARTCHAR 24FD
ENCODING 9469
SWIDTH 1000 0
DWIDTH 12 0
BBX 12 11 0 -1
BITMAP
1F00
7FC0
6EE0
C960
C930
8F10
C130
C960
6E60
51C0
3F80
ENDCHAR
STARTCHAR 24FE
ENCODING 9470
SWIDTH 1000 0
DWIDTH 12 0
BBX 12 11 0 -1
BITMAP
1F00
7FC0
6BE0
CAE0
CAB0
8C90
CAB0
CAE0
6BE0
5140
3F80
ENDCHAR
STARTCHAR 2500
ENCODING 9472
SWIDTH 1000 0
DWIDTH 12 0
BBX 12 1 0 4
BITMAP
FFF0
ENDCHAR
STARTCHAR 2501
ENCODING 9473
SWIDTH 1000 0
DWIDTH 12 0
BBX 12 1 0 4
BITMAP
FFF0
ENDCHAR
STARTCHAR 2502
ENCODING 9474
SWIDTH 1000 0
DWIDTH 12 0
BBX 1 10 5 0
BITMAP
80
80
80
80
80
80
80
80
80
80
ENDCHAR
STARTCHAR 2503
ENCODING 9475
SWIDTH 1000 0
DWIDTH 12 0
BBX 2 12 5 -1
BITMAP
C0
C0
C0
C0
C0
C0
C0
C0
C0
C0
C0
C0
ENDCHAR
STARTCHAR 250C
ENCODING 9484
SWIDTH 1000 0
DWIDTH 12 0
BBX 6 6 6 -2
BITMAP
FC
80
80
80
80
80
ENDCHAR
STARTCHAR 250F
ENCODING 9487
SWIDTH 1000 0
DWIDTH 12 0
BBX 7 6 5 -1
BITMAP
FE
C0
C0
C0
C0
C0
ENDCHAR
STARTCHAR 2510
ENCODING 9488
SWIDTH 1000 0
DWIDTH 12 0
BBX 6 6 0 -2
BITMAP
FC
04
04
04
04
04
ENDCHAR
STARTCHAR 2513
ENCODING 9491
SWIDTH 1000 0
DWIDTH 12 0
BBX 7 6 0 -1
BITMAP
FE
06
06
06
06
06
ENDCHAR
STARTCHAR 2514
ENCODING 9492
SWIDTH 1000 0
DWIDTH 12 0
BBX 6 6 6 5
BITMAP
80
80
80
80
80
FC
ENDCHAR
STARTCHAR 2517
ENCODING 9495
SWIDTH 1000 0
DWIDTH 12 0
BBX 7 7 5 4
BITMAP
C0
C0
C0
C0
C0
C0
FE
ENDCHAR
STARTCHAR 2518
ENCODING 9496
SWIDTH 1000 0
DWIDTH 12 0
BBX 6 6 0 5
BITMAP
04
04
04
04
04
FC
ENDCHAR
STARTCHAR 251B
ENCODING 9499
SWIDTH 1000 0
DWIDTH 12 0
BBX 7 7 0 4
BITMAP
06
06
06
06
06
06
FE
ENDCHAR
STARTCHAR 251C
ENCODING 9500
SWIDTH 1000 0
DWIDTH 12 0
BBX 6 11 6 -1
BITMAP
80
80
80
80
80
FC
80
80
80
80
80
ENDCHAR
STARTCHAR 251D
ENCODING 9501
SWIDTH 1000 0
DWIDTH 12 0
BBX 6 9 6 0
BITMAP
80
80
80
80
FC
80
80
80
80
ENDCHAR
STARTCHAR 2520
ENCODING 9504
SWIDTH 1000 0
DWIDTH 12 0
BBX 7 12 5 -1
BITMAP
C0
C0
C0
C0
C0
C0
FE
C0
C0
C0
C0
C0
ENDCHAR
STARTCHAR 2523
ENCODING 9507
SWIDTH 1000 0
DWIDTH 12 0
BBX 7 12 5 -1
BITMAP
C0
C0
C0
C0
C0
C0
FE
C0
C0
C0
C0
C0
ENDCHAR
STARTCHAR 2524
ENCODING 9508
SWIDTH 1000 0
DWIDTH 12 0
BBX 6 11 0 -1
BITMAP
04
04
04
04
04
FC
04
04
04
04
04
ENDCHAR
STARTCHAR 2525
ENCODING 9509
SWIDTH 1000 0
DWIDTH 12 0
BBX 6 9 0 0
BITMAP
04
04
04
04
FC
04
04
04
04
ENDCHAR
STARTCHAR 2528
ENCODING 9512
SWIDTH 1000 0
DWIDTH 12 0
BBX 7 12 0 -1
BITMAP
06
06
06
06
06
06
FE
06
06
06
06
06
ENDCHAR
STARTCHAR 252B
ENCODING 9515
SWIDTH 1000 0
DWIDTH 12 0
BBX 7 12 0 -1
BITMAP
06
06
06
06
06
06
FE
06
06
06
06
06
ENDCHAR
STARTCHAR 252C
ENCODING 9516
SWIDTH 1000 0
DWIDTH 12 0
BBX 12 6 0 -2
BITMAP
FFF0
0400
0400
0400
0400
0400
ENDCHAR
STARTCHAR 252F
ENCODING 9519
SWIDTH 1000 0
DWIDTH 12 0
BBX 12 5 0 -1
BITMAP
FFF0
0400
0400
0400
0400
ENDCHAR
STARTCHAR 2530
ENCODING 9520
SWIDTH 1000 0
DWIDTH 12 0
BBX 12 6 0 -1
BITMAP
FFF0
0600
0600
0600
0600
0600
ENDCHAR
STARTCHAR 2533
ENCODING 9523
SWIDTH 1000 0
DWIDTH 12 0
BBX 12 6 0 -1
BITMAP
FFF0
0600
0600
0600
0600
0600
ENDCHAR
STARTCHAR 2534
ENCODING 9524
SWIDTH 1000 0
DWIDTH 12 0
BBX 12 6 0 5
BITMAP
0400
0400
0400
0400
0400
FFF0
ENDCHAR
STARTCHAR 2537
ENCODING 9527
SWIDTH 1000 0
DWIDTH 12 0
BBX 12 5 0 5
BITMAP
0400
0400
0400
0400
FFF0
ENDCHAR
STARTCHAR 2538
ENCODING 9528
SWIDTH 1000 0
DWIDTH 12 0
BBX 12 7 0 4
BITMAP
0600
0600
0600
0600
0600
0600
FFF0
ENDCHAR
STARTCHAR 253B
ENCODING 9531
SWIDTH 1000 0
DWIDTH 12 0
BBX 12 7 0 4
BITMAP
0600
0600
0600
0600
0600
0600
FFF0
ENDCHAR
STARTCHAR 253C
ENCODING 9532
SWIDTH 1000 0
DWIDTH 12 0
BBX 12 11 0 -1
BITMAP
0400
0400
0400
0400
0400
FFF0
0400
0400
0400
0400
0400
ENDCHAR
STARTCHAR 253F
ENCODING 9535
SWIDTH 1000 0
DWIDTH 12 0
BBX 12 9 0 0
BITMAP
0400
0400
0400
0400
FFF0
0400
0400
0400
0400
ENDCHAR
STARTCHAR 2542
ENCODING 9538
SWIDTH 1000 0
DWIDTH 12 0
BBX 12 12 0 -1
BITMAP
0600
0600
0600
0600
0600
0600
FFF0
0600
0600
0600
0600
0600
ENDCHAR
STARTCHAR 254B
ENCODING 9547
SWIDTH 1000 0
DWIDTH 12 0
BBX 12 12 0 -1
BITMAP
0600
0600
0600
0600
0600
0600
FFF0
0600
0600
0600
0600
0600
ENDCHAR
STARTCHAR 25A0
ENCODING 9632
SWIDTH 1000 0
DWIDTH 12 0
BBX 8 9 2 0
BITMAP
FF
FF
FF
FF
FF
FF
FF
FF
FF
ENDCHAR
STARTCHAR 25A1
ENCODING 9633
SWIDTH 1000 0
DWIDTH 12 0
BBX 8 9 2 0
BITMAP
FF
81
81
81
81
81
81
81
FF
ENDCHAR
STARTCHAR 25B1
ENCODING 9649
SWIDTH 1000 0
DWIDTH 12 0
BBX 10 5 1 2
BITMAP
3FC0
4040
8080
8080
FF00
ENDCHAR
STARTCHAR 25B2
ENCODING 9650
SWIDTH 1000 0
DWIDTH 12 0
BBX 10 9 1 0
BITMAP
0800
0C00
0C00
1E00
3F00
3F00
7F80
7F80
FFC0
ENDCHAR
STARTCHAR 25B3
ENCODING 9651
SWIDTH 1000 0
DWIDTH 12 0
BBX 10 9 1 1
BITMAP
0C00
1400
1200
2200
2100
4100
4080
8080
FFC0
ENDCHAR
STARTCHAR 25B6
ENCODING 9654
SWIDTH 1000 0
DWIDTH 12 0
BBX 10 9 1 0
BITMAP
C000
F000
FC00
FF00
FFC0
FF00
FC00
F000
C000
ENDCHAR
STARTCHAR 25B7
ENCODING 9655
SWIDTH 1000 0
DWIDTH 12 0
BBX 10 9 1 0
BITMAP
C000
B000
8C00
8300
80C0
8180
8600
9800
E000
ENDCHAR
STARTCHAR 25BC
ENCODING 9660
SWIDTH 1000 0
DWIDTH 12 0
BBX 10 9 1 0
BITMAP
FFC0
7F80
7F80
3F00
3F00
1E00
0C00
0C00
0800
ENDCHAR
STARTCHAR 25BD
ENCODING 9661
SWIDTH 1000 0
DWIDTH 12 0
BBX 10 9 1 -1
BITMAP
FFC0
8080
4080
4100
2100
2200
1200
1400
0C00
ENDCHAR
STARTCHAR 25C0
ENCODING 9664
SWIDTH 1000 0
DWIDTH 12 0
BBX 10 9 1 0
BITMAP
00C0
03C0
0FC0
3FC0
FFC0
3FC0
0FC0
03C0
00C0
ENDCHAR
STARTCHAR 25C1
ENCODING 9665
SWIDTH 1000 0
DWIDTH 12 0
BBX 10 9 1 0
BITMAP
00C0
0340
0C40
3040
C040
6040
1840
0640
01C0
ENDCHAR
STARTCHAR 25C6
ENCODING 9670
SWIDTH 1000 0
DWIDTH 12 0
BBX 10 9 1 0
BITMAP
0C00
1E00
3F00
7F80
FFC0
7F80
3F00
1E00
0C00
ENDCHAR
STARTCHAR 25C7
ENCODING 9671
SWIDTH 1000 0
DWIDTH 12 0
BBX 10 10 1 0
BITMAP
1C00
2200
4100
8080
8040
8080
4100
2200
1400
0800
ENDCHAR
STARTCHAR 25C9
ENCODING 9673
SWIDTH 1000 0
DWIDTH 12 0
BBX 10 11 1 -1
BITMAP
1E00
6100
5E80
BF40
BF40
BF40
BF40
9E40
4080
2100
1E00
ENDCHAR
STARTCHAR 25CB
ENCODING 9675
SWIDTH 1000 0
DWIDTH 12 0
BBX 10 10 1 0
BITMAP
1E00
6180
4080
8040
8040
8040
8040
8080
4180
3E00
ENDCHAR
STARTCHAR 25CE
ENCODING 9678
SWIDTH 1000 0
DWIDTH 12 0
BBX 10 11 1 -1
BITMAP
1E00
6100
5E80
A140
A140
A140
A140
9E40
4080
2100
1E00
ENDCHAR
STARTCHAR 25CF
ENCODING 9679
SWIDTH 1000 0
DWIDTH 12 0
BBX 10 10 1 0
BITMAP
1E00
7F80
7F80
FFC0
FFC0
FFC0
FFC0
7F80
7F80
1E00
ENDCHAR
STARTCHAR 25D0
ENCODING 9680
SWIDTH 1000 0
DWIDTH 12 0
BBX 10 11 1 -1
BITMAP
1E00
7900
7880
F840
F840
F840
F840
F840
7880
3900
1E00
ENDCHAR
STARTCHAR 25D1
ENCODING 9681
SWIDTH 1000 0
DWIDTH 12 0
BBX 10 11 1 -1
BITMAP
1E00
6700
8780
87C0
87C0
87C0
87C0
87C0
4780
2700
1E00
ENDCHAR
STARTCHAR 25D2
ENCODING 9682
SWIDTH 1000 0
DWIDTH 12 0
BBX 10 10 1 0
BITMAP
1E00
6180
8080
8040
8040
FFC0
FFC0
7F80
7F80
1E00
ENDCHAR
STARTCHAR 25D3
ENCODING 9683
SWIDTH 1000 0
DWIDTH 12 0
BBX 10 10 1 0
BITMAP
1E00
7F80
7F80
FFC0
FFC0
8040
8040
8080
6180
1E00
ENDCHAR
STARTCHAR 25E6
ENCODING 9702
SWIDTH 1000 0
DWIDTH 12 0
BBX 4 4 4 3
BITMAP
60
90
90
60
ENDCHAR
STARTCHAR 25EF
ENCODING 9711
SWIDTH 1000 0
DWIDTH 12 0
BBX 10 11 1 -1
BITMAP
1E00
6180
8040
8040
8040
8040
8040
8040
8080
6080
1F00
ENDCHAR
STARTCHAR 2600
ENCODING 9728
SWIDTH 1000 0
DWIDTH 12 0
BBX 12 9 0 0
BITMAP
2040
1080
0F00
1F80
FFF0
1F80
1F80
1F80
2040
ENDCHAR
STARTCHAR 2601
ENCODING 9729
SWIDTH 1000 0
DWIDTH 12 0
BBX 10 9 1 -1
BITMAP
1C00
3E00
3EC0
3FC0
FFC0
FFC0
FFC0
77C0
0380
ENDCHAR
STARTCHAR 2602
ENCODING 9730
SWIDTH 1000 0
DWIDTH 12 0
BBX 10 10 1 0
BITMAP
3F00
7F80
FFC0
A940
0800
0800
0800
0800
0800
1800
ENDCHAR
STARTCHAR 2603
ENCODING 9731
SWIDTH 1000 0
DWIDTH 12 0
BBX 12 11 0 -1
BITMAP
8520
1280
C440
3BA0
2680
6080
1090
E240
4040
4240
3FC0
ENDCHAR
STARTCHAR 2605
ENCODING 9733
SWIDTH 1000 0
DWIDTH 12 0
BBX 10 10 1 0
BITMAP
0C00
0C00
0C00
FFC0
7F80
1E00
3F00
3300
2100
4080
ENDCHAR
STARTCHAR 2606
ENCODING 9734
SWIDTH 1000 0
DWIDTH 12 0
BBX 10 10 1 -1
BITMAP
0C00
0C00
1400
F3C0
8080
6100
2200
2100
5F00
2100
ENDCHAR
STARTCHAR 260E
ENCODING 9742
SWIDTH 1000 0
DWIDTH 12 0
BBX 10 9 1 0
BITMAP
7F80
D2C0
9240
3F00
3300
6180
E1C0
F3C0
FFC0
ENDCHAR
STARTCHAR 2616
ENCODING 9750
SWIDTH 1000 0
DWIDTH 12 0
BBX 10 10 1 0
BITMAP
0C00
3300
4080
8080
8080
8080
8080
8040
8040
FFC0
ENDCHAR
STARTCHAR 2617
ENCODING 9751
SWIDTH 1000 0
DWIDTH 12 0
BBX 10 9 1 1
BITMAP
1E00
7F80
7F80
7F80
7F80
7F80
FFC0
FFC0
FFC0
ENDCHAR
STARTCHAR 261E
ENCODING 9758
SWIDTH 1000 0
DWIDTH 12 0
BBX 10 5 1 2
BITMAP
FFC0
CF80
FB00
A500
DE00
ENDCHAR
STARTCHAR 2640
ENCODING 9792
SWIDTH 1000 0
DWIDTH 12 0
BBX 8 11 2 -1
BITMAP
3C
24
42
42
24
18
10
FF
10
10
10
ENDCHAR
STARTCHAR 2642
ENCODING 9794
SWIDTH 1000 0
DWIDTH 12 0
BBX 10 10 1 -1
BITMAP
03C0
00C0
0140
0240
0440
7800
8800
8800
8800
7000
ENDCHAR
STARTCHAR 2660
ENCODING 9824
SWIDTH 1000 0
DWIDTH 12 0
BBX 8 11 2 -1
BITMAP
18
18
3C
7E
FF
FF
FF
FF
F7
18
18
ENDCHAR
STARTCHAR 2661
ENCODING 9825
SWIDTH 1000 0
DWIDTH 12 0
BBX 10 10 1 -1
BITMAP
7380
8C40
8840
8040
8080
8080
4100
2100
1200
0C00
ENDCHAR
STARTCHAR 2662
ENCODING 9826
SWIDTH 1000 0
DWIDTH 12 0
BBX 8 11 2 -1
BITMAP
18
28
44
42
81
81
81
42
44
28
18
ENDCHAR
STARTCHAR 2663
ENCODING 9827
SWIDTH 1000 0
DWIDTH 12 0
BBX 10 11 1 -1
BITMAP
0C00
1E00
1E00
1E00
6D80
FFC0
FFC0
FBC0
6980
0C00
0C00
ENDCHAR
STARTCHAR 2664
ENCODING 9828
SWIDTH 1000 0
DWIDTH 12 0
BBX 10 11 1 -1
BITMAP
0C00
1200
2200
4100
4080
8080
8040
8C80
7F80
1400
0C00
ENDCHAR
STARTCHAR 2665
ENCODING 9829
SWIDTH 1000 0
DWIDTH 12 0
BBX 10 9 1 -1
BITMAP
7380
FFC0
FFC0
FFC0
7F80
3F00
3F00
1E00
0C00
ENDCHAR
STARTCHAR 2666
ENCODING 9830
SWIDTH 1000 0
DWIDTH 12 0
BBX 8 11 2 -1
BITMAP
18
18
3C
7E
FF
FF
FF
7E
3C
18
18
ENDCHAR
STARTCHAR 2667
ENCODING 9831
SWIDTH 1000 0
DWIDTH 12 0
BBX 10 11 1 -1
BITMAP
1E00
1200
2100
2200
7380
8040
8040
8C40
7F80
1400
0C00
ENDCHAR
STARTCHAR 2668
ENCODING 9832
SWIDTH 1000 0
DWIDTH 12 0
BBX 10 9 1 1
BITMAP
0800
4A00
2A00
2500
2500
A540
8840
C0C0
3F00
ENDCHAR
STARTCHAR 2669
ENCODING 9833
SWIDTH 1000 0
DWIDTH 12 0
BBX 4 10 3 0
BITMAP
10
10
10
10
10
10
10
10
70
E0
ENDCHAR
STARTCHAR 266A
ENCODING 9834
SWIDTH 1000 0
DWIDTH 12 0
BBX 8 10 2 0
BITMAP
10
10
1C
16
11
11
11
10
70
E0
ENDCHAR
STARTCHAR 266B
ENCODING 9835
SWIDTH 1000 0
DWIDTH 12 0
BBX 9 11 1 -1
BITMAP
0380
1F80
1080
2080
2080
2080
2080
2380
2780
E700
E000
ENDCHAR
STARTCHAR 266C
ENCODING 9836
SWIDTH 1000 0
DWIDTH 12 0
BBX 9 11 1 -1
BITMAP
0380
1F80
1180
1F80
1880
2080
2080
2380
2780
E700
E000
ENDCHAR
STARTCHAR 266D
ENCODING 9837
SWIDTH 1000 0
DWIDTH 12 0
BBX 4 10 4 0
BITMAP
80
80
80
80
F0
90
90
90
A0
C0
ENDCHAR
STARTCHAR 266E
ENCODING 9838
SWIDTH 1000 0
DWIDTH 12 0
BBX 4 10 4 0
BITMAP
80
80
80
F0
D0
90
B0
D0
10
10
ENDCHAR
STARTCHAR 266F
ENCODING 9839
SWIDTH 1000 0
DWIDTH 12 0
BBX 8 11 2 -1
BITMAP
04
24
25
3E
E4
24
27
7C
24
24
20
ENDCHAR
STARTCHAR 2713
ENCODING 10003
SWIDTH 1000 0
DWIDTH 12 0
BBX 8 8 3 1
BITMAP
01
02
04
08
10
90
A0
40
ENDCHAR
STARTCHAR 2756
ENCODING 10070
SWIDTH 1000 0
DWIDTH 12 0
BBX 10 9 1 0
BITMAP
0C00
1E00
0C00
6180
F3C0
6180
0C00
1E00
0C00
ENDCHAR
STARTCHAR 2776
ENCODING 10102
SWIDTH 1000 0
DWIDTH 12 0
BBX 10 11 1 -1
BITMAP
1E00
7F80
F7C0
FFC0
FFC0
FFC0
FFC0
FFC0
FB80
7F80
1E00
ENDCHAR
STARTCHAR 2777
ENCODING 10103
SWIDTH 1000 0
DWIDTH 12 0
BBX 10 11 1 -1
BITMAP
3F00
7180
EDC0
EDC0
FDC0
FBC0
F7C0
EFC0
6180
7F80
1E00
ENDCHAR
STARTCHAR 2778
ENCODING 10104
SWIDTH 1000 0
DWIDTH 12 0
BBX 10 11 1 -1
BITMAP
1E00
7F80
EDC0
EDC0
FDC0
F3C0
FFC0
EFC0
ED80
7F80
1E00
ENDCHAR
STARTCHAR 2779
ENCODING 10105
SWIDTH 1000 0
DWIDTH 12 0
BBX 10 11 1 -1
BITMAP
3F00
7B80
FBC0
FBC0
EBC0
DBC0
C0C0
FBC0
7B80
7F80
1E00
ENDCHAR
STARTCHAR 277A
ENCODING 10106
SWIDTH 1000 0
DWIDTH 12 0
BBX 10 11 1 -1
BITMAP
1E00
7F80
6180
EFC0
EFC0
FDC0
FFC0
EEC0
FDC0
6380
1E00
ENDCHAR
STARTCHAR 277B
ENCODING 10107
SWIDTH 1000 0
DWIDTH 12 0
BBX 10 11 1 -1
BITMAP
1E00
7F80
FDC0
EDC0
FFC0
EDC0
FFC0
EDC0
FD80
7F80
1E00
ENDCHAR
STARTCHAR 277C
ENCODING 10108
SWIDTH 1000 0
DWIDTH 12 0
BBX 10 11 1 -1
BITMAP
1E00
7F80
E180
FFC0
FFC0
FBC0
FBC0
FBC0
FFC0
7F80
1E00
ENDCHAR
STARTCHAR 277D
ENCODING 10109
SWIDTH 1000 0
DWIDTH 12 0
BBX 10 11 1 -1
BITMAP
1E00
7F80
EDC0
EDC0
EDC0
F3C0
FDC0
DFC0
ED80
7F80
1E00
ENDCHAR
STARTCHAR 277E
ENCODING 10110
SWIDTH 1000 0
DWIDTH 12 0
BBX 10 11 1 -1
BITMAP
1E00
7F80
EFC0
EDC0
FFC0
EDC0
FFC0
EDC0
EF80
7F80
1E00
ENDCHAR
STARTCHAR 277F
ENCODING 10111
SWIDTH 1000 0
DWIDTH 12 0
BBX 10 11 1 -1
BITMAP
1E00
7F80
9A80
DAC0
DBC0
DFC0
DBC0
DAC0
DAC0
7F80
1E00
ENDCHAR
STARTCHAR 2934
ENCODING 10548
SWIDTH 1000 0
DWIDTH 12 0
BBX 10 9 1 1
BITMAP
0180
0340
0100
0100
0100
0100
0100
0200
FC00
ENDCHAR
STARTCHAR 2935
ENCODING 10549
SWIDTH 1000 0
DWIDTH 12 0
BBX 10 9 1 0
BITMAP
FE00
0200
0100
0100
0100
0100
0540
0380
0100
ENDCHAR
STARTCHAR 29BF
ENCODING 10687
SWIDTH 1000 0
DWIDTH 12 0
BBX 10 11 1 -1
BITMAP
1E00
6100
4080
8040
8C40
9E40
8C40
8040
4080
2100
1E00
ENDCHAR
STARTCHAR 29FA
ENCODING 10746
SWIDTH 1000 0
DWIDTH 12 0
BBX 6 6 3 1
BITMAP
50
50
FC
50
50
50
ENDCHAR
STARTCHAR 29FB
ENCODING 10747
SWIDTH 1000 0
DWIDTH 12 0
BBX 6 7 3 0
BITMAP
48
68
68
FC
68
68
68
ENDCHAR
STARTCHAR 2E83
ENCODING 11907
SWIDTH 1000 0
DWIDTH 12 0
BBX 8 9 3 0
BITMAP
80
80
80
80
80
80
82
82
FF
ENDCHAR
STARTCHAR 2E85
ENCODING 11909
SWIDTH 1000 0
DWIDTH 12 0
BBX 6 10 2 -1
BITMAP
04
04
08
10
30
50
90
10
10
10
ENDCHAR
STARTCHAR 2E87
ENCODING 11911
SWIDTH 1000 0
DWIDTH 12 0
BBX 10 9 1 0
BITMAP
7F80
4080
4080
4080
4080
4080
8080
80C0
8040
ENDCHAR
STARTCHAR 2E89
ENCODING 11913
SWIDTH 1000 0
DWIDTH 12 0
BBX 4 10 4 0
BITMAP
90
90
90
90
90
90
90
10
10
20
ENDCHAR
STARTCHAR 2E8E
ENCODING 11918
SWIDTH 1000 0
DWIDTH 12 0
BBX 10 10 1 -1
BITMAP
0040
7F80
1200
1200
1200
2200
2240
4240
43C0
8000
ENDCHAR
STARTCHAR 2E8F
ENCODING 11919
SWIDTH 1000 0
DWIDTH 12 0
BBX 10 10 1 -1
BITMAP
1200
2100
4080
9240
1400
1400
1400
2440
43C0
8000
ENDCHAR
STARTCHAR 2E90
ENCODING 11920
SWIDTH 1000 0
DWIDTH 12 0
BBX 9 10 2 0
BITMAP
1000
1000
1080
FF00
1800
1800
2800
2880
4880
8F80
ENDCHAR
STARTCHAR 2E92
ENCODING 11922
SWIDTH 1000 0
DWIDTH 12 0
BBX 9 9 2 1
BITMAP
FF00
8100
8100
8100
FF00
8000
8080
8080
7F80
ENDCHAR
STARTCHAR 2E93
ENCODING 11923
SWIDTH 1000 0
DWIDTH 12 0
BBX 10 9 1 1
BITMAP
0C00
0800
5100
2200
1400
0800
1180
2080
FF40
ENDCHAR
STARTCHAR 2E94
ENCODING 11924
SWIDTH 1000 0
DWIDTH 12 0
BBX 9 9 2 0
BITMAP
2000
2200
5E00
4200
4200
4400
7C00
0400
FF80
ENDCHAR
STARTCHAR 2E96
ENCODING 11926
SWIDTH 1000 0
DWIDTH 12 0
BBX 5 10 3 -1
BITMAP
10
20
20
68
68
A0
20
20
20
20
ENDCHAR
STARTCHAR 2E97
ENCODING 11927
SWIDTH 1000 0
DWIDTH 12 0
BBX 10 10 1 -1
BITMAP
1000
1000
1000
1480
9240
9240
9240
1000
1000
2000
ENDCHAR
STARTCHAR 2E98
ENCODING 11928
SWIDTH 1000 0
DWIDTH 12 0
BBX 6 11 3 -1
BITMAP
10
10
10
7C
10
14
F8
10
10
10
20
ENDCHAR
STARTCHAR 2E99
ENCODING 11929
SWIDTH 1000 0
DWIDTH 12 0
BBX 10 10 1 0
BITMAP
1000
2000
3F80
6200
9200
0C00
0400
0A00
3180
C040
ENDCHAR
STARTCHAR 2E9B
ENCODING 11931
SWIDTH 1000 0
DWIDTH 12 0
BBX 10 10 1 -1
BITMAP
0080
7F80
0800
4800
4800
BF80
0C00
1440
2440
47C0
ENDCHAR
STARTCHAR 2E9E
ENCODING 11934
SWIDTH 1000 0
DWIDTH 12 0
BBX 10 11 1 -1
BITMAP
0400
0440
1780
1480
2B80
5100
8A00
0400
0800
3000
4000
ENDCHAR
STARTCHAR 2E9F
ENCODING 11935
SWIDTH 1000 0
DWIDTH 12 0
BBX 10 10 1 0
BITMAP
3F80
4100
4D00
4140
FF80
5900
4140
7FC0
0100
0200
ENDCHAR
STARTCHAR 2EA0
ENCODING 11936
SWIDTH 1000 0
DWIDTH 12 0
BBX 10 10 1 0
BITMAP
7F80
4080
7F80
4480
4440
7F80
4200
4640
7940
80C0
ENDCHAR
STARTCHAR 2EA1
ENCODING 11937
SWIDTH 1000 0
DWIDTH 12 0
BBX 5 11 4 -1
BITMAP
40
20
08
90
50
20
20
40
40
40
40
ENDCHAR
STARTCHAR 2EA3
ENCODING 11939
SWIDTH 1000 0
DWIDTH 12 0
BBX 10 3 1 3
BITMAP
5480
5240
9240
ENDCHAR
STARTCHAR 2EA4
ENCODING 11940
SWIDTH 1000 0
DWIDTH 12 0
BBX 9 5 1 2
BITMAP
0380
FC00
0880
4900
2500
ENDCHAR
STARTCHAR 2EA6
ENCODING 11942
SWIDTH 1000 0
DWIDTH 12 0
BBX 6 11 2 -1
BITMAP
0C
08
48
28
28
08
18
E8
88
08
08
ENDCHAR
STARTCHAR 2EA8
ENCODING 11944
SWIDTH 1000 0
DWIDTH 12 0
BBX 5 11 3 -1
BITMAP
40
58
20
50
90
10
28
48
08
10
30
ENDCHAR
STARTCHAR 2EAA
ENCODING 11946
SWIDTH 1000 0
DWIDTH 12 0
BBX 6 10 3 0
BITMAP
7C
10
10
90
94
98
90
90
B8
C0
ENDCHAR
STARTCHAR 2EAB
ENCODING 11947
SWIDTH 1000 0
DWIDTH 12 0
BBX 8 5 2 3
BITMAP
FF
A5
A5
A5
5A
ENDCHAR
STARTCHAR 2EAD
ENCODING 11949
SWIDTH 1000 0
DWIDTH 12 0
BBX 6 11 3 -1
BITMAP
20
20
FC
08
10
10
28
E4
20
20
20
ENDCHAR
STARTCHAR 2EB2
ENCODING 11954
SWIDTH 1000 0
DWIDTH 12 0
BBX 8 5 2 3
BITMAP
FF
A5
A5
A5
5A
ENDCHAR
STARTCHAR 2EB9
ENCODING 11961
SWIDTH 1000 0
DWIDTH 12 0
BBX 10 9 1 1
BITMAP
0880
0A80
7F00
0A00
0A40
7D80
1000
2000
C000
ENDCHAR
STARTCHAR 2EBD
ENCODING 11965
SWIDTH 1000 0
DWIDTH 12 0
BBX 8 11 2 -1
BITMAP
10
20
C7
81
81
A1
C7
81
81
F7
81
ENDCHAR
STARTCHAR 2EBE
ENCODING 11966
SWIDTH 1000 0
DWIDTH 12 0
BBX 10 5 1 3
BITMAP
1200
1240
FFC0
1200
1200
ENDCHAR
STARTCHAR 2EBF
ENCODING 11967
SWIDTH 1000 0
DWIDTH 12 0
BBX 10 5 1 3
BITMAP
2100
2140
FFC0
2100
2100
ENDCHAR
STARTCHAR 2EC0
ENCODING 11968
SWIDTH 1000 0
DWIDTH 12 0
BBX 10 5 1 3
BITMAP
1300
1240
F3C0
1200
1200
ENDCHAR
STARTCHAR 2EC1
ENCODING 11969
SWIDTH 1000 0
DWIDTH 12 0
BBX 10 11 1 -1
BITMAP
0880
0780
0800
7FC0
7F00
4F80
4000
9200
9240
9240
23C0
ENDCHAR
STARTCHAR 2EC2
ENCODING 11970
SWIDTH 1000 0
DWIDTH 12 0
BBX 6 11 3 -1
BITMAP
20
20
FC
08
10
24
78
A4
20
20
20
ENDCHAR
STARTCHAR 2EC3
ENCODING 11971
SWIDTH 1000 0
DWIDTH 12 0
BBX 9 6 2 2
BITMAP
0080
FF00
FF00
A900
A900
D700
ENDCHAR
STARTCHAR 2EC4
ENCODING 11972
SWIDTH 1000 0
DWIDTH 12 0
BBX 10 11 1 -1
BITMAP
0040
7F80
1400
1400
FF80
9480
A380
8080
8080
7F80
8080
ENDCHAR
STARTCHAR 2ECA
ENCODING 11978
SWIDTH 1000 0
DWIDTH 12 0
BBX 6 9 3 0
BITMAP
F8
88
88
78
64
B8
A0
AC
D0
ENDCHAR
STARTCHAR 2ECC
ENCODING 11980
SWIDTH 1000 0
DWIDTH 12 0
BBX 9 10 1 0
BITMAP
8000
4000
4000
0000
0000
4000
4000
4000
4000
BF80
ENDCHAR
STARTCHAR 2ECD
ENCODING 11981
SWIDTH 1000 0
DWIDTH 12 0
BBX 9 9 1 1
BITMAP
6000
0000
C000
4000
0000
4000
4000
4000
BF80
ENDCHAR
STARTCHAR 2ECF
ENCODING 11983
SWIDTH 1000 0
DWIDTH 12 0
BBX 5 10 4 0
BITMAP
F0
90
A0
90
88
88
F8
80
80
80
ENDCHAR
STARTCHAR 2ED1
ENCODING 11985
SWIDTH 1000 0
DWIDTH 12 0
BBX 10 11 1 -1
BITMAP
0080
3F00
3F80
2000
3F00
2040
7F80
2500
2200
3980
C040
ENDCHAR
STARTCHAR 2ED2
ENCODING 11986
SWIDTH 1000 0
DWIDTH 12 0
BBX 9 10 2 0
BITMAP
0100
7E00
4200
7C00
7E00
4000
BF00
2200
4100
FE80
ENDCHAR
STARTCHAR 2ED6
ENCODING 11990
SWIDTH 1000 0
DWIDTH 12 0
BBX 5 10 4 0
BITMAP
F0
90
A0
90
88
88
F8
80
80
80
ENDCHAR
STARTCHAR 2ED8
ENCODING 11992
SWIDTH 1000 0
DWIDTH 12 0
BBX 10 11 1 -1
BITMAP
0800
FFC0
0800
3F40
7780
3F80
2100
3F00
3F00
2100
2300
ENDCHAR
STARTCHAR 2EDE
ENCODING 11998
SWIDTH 1000 0
DWIDTH 12 0
BBX 6 11 3 -1
BITMAP
20
30
4C
88
78
78
78
40
70
7C
40
ENDCHAR
STARTCHAR 2EDF
ENCODING 11999
SWIDTH 1000 0
DWIDTH 12 0
BBX 6 11 3 -1
BITMAP
30
28
54
A8
58
78
48
70
48
F8
80
ENDCHAR
STARTCHAR 2EE4
ENCODING 12004
SWIDTH 1000 0
DWIDTH 12 0
BBX 10 11 1 -1
BITMAP
0800
0880
7F80
4880
7F80
4880
7780
1500
2580
2440
C7C0
ENDCHAR
STARTCHAR 2EE8
ENCODING 12008
SWIDTH 1000 0
DWIDTH 12 0
BBX 9 10 2 0
BITMAP
0800
1000
FF00
7E00
1080
EF00
3E00
D400
1C00
E380
ENDCHAR
STARTCHAR 2EE9
ENCODING 12009
SWIDTH 1000 0
DWIDTH 12 0
BBX 10 9 1 1
BITMAP
1200
7F80
FFC0
0800
7F80
7F80
4880
7700
61C0
ENDCHAR
STARTCHAR 2EEB
ENCODING 12011
SWIDTH 1000 0
DWIDTH 12 0
BBX 10 9 1 0
BITMAP
0840
7780
1C00
1B00
E1C0
3F00
2100
3F00
4100
ENDCHAR
STARTCHAR 2EED
ENCODING 12013
SWIDTH 1000 0
DWIDTH 12 0
BBX 10 11 1 -1
BITMAP
2480
2780
2440
5B80
AA80
9D80
BF80
8C80
BB80
8080
FF00
ENDCHAR
STARTCHAR 2EEF
ENCODING 12015
SWIDTH 1000 0
DWIDTH 12 0
BBX 9 9 2 0
BITMAP
1000
6F00
2480
DB00
FF00
9100
FF00
FE80
0F80
ENDCHAR
STARTCHAR 2EF2
ENCODING 12018
SWIDTH 1000 0
DWIDTH 12 0
BBX 10 11 1 -1
BITMAP
2000
5C00
7F80
FF00
4900
3E00
FF80
FF80
7F80
0840
07C0
ENDCHAR
STARTCHAR 2F00
ENCODING 12032
SWIDTH 1000 0
DWIDTH 12 0
BBX 10 1 1 5
BITMAP
FFC0
ENDCHAR
STARTCHAR 2F01
ENCODING 12033
SWIDTH 1000 0
DWIDTH 12 0
BBX 1 9 6 -1
BITMAP
80
80
80
80
80
80
80
80
80
ENDCHAR
STARTCHAR 2F02
ENCODING 12034
SWIDTH 1000 0
DWIDTH 12 0
BBX 4 4 4 3
BITMAP
80
40
20
10
ENDCHAR
STARTCHAR 2F03
ENCODING 12035
SWIDTH 1000 0
DWIDTH 12 0
BBX 3 10 4 -1
BITMAP
20
20
20
20
20
20
40
40
80
80
ENDCHAR
STARTCHAR 2F04
ENCODING 12036
SWIDTH 1000 0
DWIDTH 12 0
BBX 9 8 2 1
BITMAP
7C00
0800
1000
6000
8000
8000
8100
FF80
ENDCHAR
STARTCHAR 2F05
ENCODING 12037
SWIDTH 1000 0
DWIDTH 12 0
BBX 1 10 5 -1
BITMAP
80
80
80
80
80
80
80
80
80
80
ENDCHAR
STARTCHAR 2F06
ENCODING 12038
SWIDTH 1000 0
DWIDTH 12 0
BBX 10 7 1 2
BITMAP
7F80
0000
0000
0000
0000
0000
FFC0
ENDCHAR
STARTCHAR 2F07
ENCODING 12039
SWIDTH 1000 0
DWIDTH 12 0
BBX 9 3 2 5
BITMAP
1800
1000
FF80
ENDCHAR
STARTCHAR 2F08
ENCODING 12040
SWIDTH 1000 0
DWIDTH 12 0
BBX 9 9 2 0
BITMAP
1000
1000
1000
1800
1800
2400
2400
4200
8180
ENDCHAR
STARTCHAR 2F09
ENCODING 12041
SWIDTH 1000 0
DWIDTH 12 0
BBX 9 9 2 -1
BITMAP
2400
2400
2400
2400
4400
4400
4480
4480
8780
ENDCHAR
STARTCHAR 2F0A
ENCODING 12042
SWIDTH 1000 0
DWIDTH 12 0
BBX 10 10 1 0
BITMAP
3C00
0800
0800
0400
0C00
0A00
1200
2100
4080
8040
ENDCHAR
STARTCHAR 2F0B
ENCODING 12043
SWIDTH 1000 0
DWIDTH 12 0
BBX 10 11 1 -1
BITMAP
0200
1E00
0200
1200
2200
2200
2100
4100
4080
8040
8000
ENDCHAR
STARTCHAR 2F0C
ENCODING 12044
SWIDTH 1000 0
DWIDTH 12 0
BBX 8 9 2 1
BITMAP
FF
81
81
81
81
81
81
81
83
ENDCHAR
STARTCHAR 2F0D
ENCODING 12045
SWIDTH 1000 0
DWIDTH 12 0
BBX 10 2 1 5
BITMAP
FFC0
8080
ENDCHAR
STARTCHAR 2F0E
ENCODING 12046
SWIDTH 1000 0
DWIDTH 12 0
BBX 4 9 4 0
BITMAP
80
50
20
20
40
40
40
40
40
ENDCHAR
STARTCHAR 2F0F
ENCODING 12047
SWIDTH 1000 0
DWIDTH 12 0
BBX 10 10 1 0
BITMAP
3F00
2200
2200
2200
2200
2200
2240
4240
4240
81C0
ENDCHAR
STARTCHAR 2F10
ENCODING 12048
SWIDTH 1000 0
DWIDTH 12 0
BBX 8 9 2 0
BITMAP
81
81
81
81
81
81
81
81
FE
ENDCHAR
STARTCHAR 2F11
ENCODING 12049
SWIDTH 1000 0
DWIDTH 12 0
BBX 9 9 1 0
BITMAP
7F80
1080
1080
1080
1080
1080
2080
4080
8300
ENDCHAR
STARTCHAR 2F12
ENCODING 12050
SWIDTH 1000 0
DWIDTH 12 0
BBX 10 11 1 -1
BITMAP
0800
0800
0800
FFC0
0880
0880
1080
1080
2080
2080
C300
ENDCHAR
STARTCHAR 2F13
ENCODING 12051
SWIDTH 1000 0
DWIDTH 12 0
BBX 10 11 1 -1
BITMAP
3000
2000
3FC0
4080
4080
8080
0080
0080
0080
0100
0700
ENDCHAR
STARTCHAR 2F14
ENCODING 12052
SWIDTH 1000 0
DWIDTH 12 0
BBX 8 9 3 0
BITMAP
80
80
8C
90
E0
80
80
82
FF
ENDCHAR
STARTCHAR 2F15
ENCODING 12053
SWIDTH 1000 0
DWIDTH 12 0
BBX 8 11 2 -1
BITMAP
01
FF
80
80
80
80
80
80
80
80
7F
ENDCHAR
STARTCHAR 2F16
ENCODING 12054
SWIDTH 1000 0
DWIDTH 12 0
BBX 9 8 2 1
BITMAP
FF00
8000
8000
8000
8000
8000
8000
7F80
ENDCHAR
STARTCHAR 2F17
ENCODING 12055
SWIDTH 1000 0
DWIDTH 12 0
BBX 9 9 2 -1
BITMAP
1000
1000
1000
1080
FF00
1000
1000
1000
1000
ENDCHAR
STARTCHAR 2F18
ENCODING 12056
SWIDTH 1000 0
DWIDTH 12 0
BBX 5 10 5 -1
BITMAP
80
80
80
80
80
F0
88
80
80
80
ENDCHAR
STARTCHAR 2F19
ENCODING 12057
SWIDTH 1000 0
DWIDTH 12 0
BBX 5 10 4 0
BITMAP
F8
88
88
88
88
88
88
B8
80
80
ENDCHAR
STARTCHAR 2F1A
ENCODING 12058
SWIDTH 1000 0
DWIDTH 12 0
BBX 10 9 1 0
BITMAP
7FC0
4000
4000
4000
4000
4000
8000
8000
8000
ENDCHAR
STARTCHAR 2F1B
ENCODING 12059
SWIDTH 1000 0
DWIDTH 12 0
BBX 10 10 1 -1
BITMAP
0400
0800
0800
0800
1000
1200
2100
2080
FF40
0040
ENDCHAR
STARTCHAR 2F1C
ENCODING 12060
SWIDTH 1000 0
DWIDTH 12 0
BBX 10 10 1 0
BITMAP
FF80
4100
2100
2200
1200
0C00
0400
1A00
2180
C040
ENDCHAR
STARTCHAR 2F1D
ENCODING 12061
SWIDTH 1000 0
DWIDTH 12 0
BBX 8 9 2 0
BITMAP
01
FF
81
81
81
81
81
81
FF
ENDCHAR
STARTCHAR 2F1E
ENCODING 12062
SWIDTH 1000 0
DWIDTH 12 0
BBX 9 10 1 0
BITMAP
FF80
8080
8080
8080
8080
8080
8080
8080
8080
FF00
ENDCHAR
STARTCHAR 2F1F
ENCODING 12063
SWIDTH 1000 0
DWIDTH 12 0
BBX 9 10 2 0
BITMAP
0800
1000
1000
1100
7E00
1000
1000
1000
1000
FF80
ENDCHAR
STARTCHAR 2F20
ENCODING 12064
SWIDTH 1000 0
DWIDTH 12 0
BBX 10 10 1 0
BITMAP
0400
0800
0800
0840
FFC0
0800
0800
0800
0800
7F80
ENDCHAR
STARTCHAR 2F21
ENCODING 12065
SWIDTH 1000 0
DWIDTH 12 0
BBX 10 10 1 -1
BITMAP
0800
1100
2F00
3200
5200
8C00
0C00
1200
2180
C040
ENDCHAR
STARTCHAR 2F22
ENCODING 12066
SWIDTH 1000 0
DWIDTH 12 0
BBX 10 10 1 -1
BITMAP
0800
5100
5F00
2200
5200
9400
0800
1600
2180
C040
ENDCHAR
STARTCHAR 2F23
ENCODING 12067
SWIDTH 1000 0
DWIDTH 12 0
BBX 8 11 2 -1
BITMAP
18
10
1F
21
42
72
8C
04
08
30
C0
ENDCHAR
STARTCHAR 2F24
ENCODING 12068
SWIDTH 1000 0
DWIDTH 12 0
BBX 9 9 2 -1
BITMAP
1000
1000
1080
FF00
1800
1800
2400
4200
8180
ENDCHAR
STARTCHAR 2F25
ENCODING 12069
SWIDTH 1000 0
DWIDTH 12 0
BBX 9 10 2 0
BITMAP
1000
2000
2080
FF00
4400
4400
A400
1800
1600
E180
ENDCHAR
STARTCHAR 2F26
ENCODING 12070
SWIDTH 1000 0
DWIDTH 12 0
BBX 9 10 2 0
BITMAP
FF00
0200
0C00
1000
1080
FF00
1000
1000
1000
3000
ENDCHAR
STARTCHAR 2F27
ENCODING 12071
SWIDTH 1000 0
DWIDTH 12 0
BBX 10 4 1 4
BITMAP
0800
0840
F7C0
8080
ENDCHAR
STARTCHAR 2F28
ENCODING 12072
SWIDTH 1000 0
DWIDTH 12 0
BBX 10 11 1 -1
BITMAP
0200
0200
0240
FFC0
0200
2200
1200
1200
0200
0200
0600
ENDCHAR
STARTCHAR 2F29
ENCODING 12073
SWIDTH 1000 0
DWIDTH 12 0
BBX 10 10 1 0
BITMAP
0800
0800
2900
4880
4880
4840
8840
8800
0800
1800
ENDCHAR
STARTCHAR 2F2A
ENCODING 12074
SWIDTH 1000 0
DWIDTH 12 0
BBX 9 10 2 0
BITMAP
1000
1000
1080
FF00
1800
1800
2800
2880
4880
8F80
ENDCHAR
STARTCHAR 2F2B
ENCODING 12075
SWIDTH 1000 0
DWIDTH 12 0
BBX 9 9 1 0
BITMAP
7F80
4080
4080
7F80
4000
4000
4000
8000
8000
ENDCHAR
STARTCHAR 2F2C
ENCODING 12076
SWIDTH 1000 0
DWIDTH 12 0
BBX 8 11 2 -1
BITMAP
08
10
91
91
91
91
FF
91
10
20
40
ENDCHAR
STARTCHAR 2F2D
ENCODING 12077
SWIDTH 1000 0
DWIDTH 12 0
BBX 8 11 2 -1
BITMAP
08
10
10
91
91
91
91
91
91
FF
81
ENDCHAR
STARTCHAR 2F2E
ENCODING 12078
SWIDTH 1000 0
DWIDTH 12 0
BBX 9 9 1 0
BITMAP
2480
4900
4900
9200
9200
4900
4880
2480
2480
ENDCHAR
STARTCHAR 2F2F
ENCODING 12079
SWIDTH 1000 0
DWIDTH 12 0
BBX 9 9 2 0
BITMAP
0100
FE00
1000
1000
1000
1000
1000
1000
FF80
ENDCHAR
STARTCHAR 2F30
ENCODING 12080
SWIDTH 1000 0
DWIDTH 12 0
BBX 9 9 2 1
BITMAP
FF00
0100
0100
0100
FF00
8000
8000
8080
FF80
ENDCHAR
STARTCHAR 2F31
ENCODING 12081
SWIDTH 1000 0
DWIDTH 12 0
BBX 8 9 2 0
BITMAP
10
10
FF
91
91
91
91
93
10
ENDCHAR
STARTCHAR 2F32
ENCODING 12082
SWIDTH 1000 0
DWIDTH 12 0
BBX 10 11 1 -1
BITMAP
0080
7F80
0800
0800
0800
FFC0
0800
0800
0800
0800
0800
ENDCHAR
STARTCHAR 2F33
ENCODING 12083
SWIDTH 1000 0
DWIDTH 12 0
BBX 10 9 1 1
BITMAP
0C00
0800
5100
2200
1400
0800
1180
2080
FF40
ENDCHAR
STARTCHAR 2F34
ENCODING 12084
SWIDTH 1000 0
DWIDTH 12 0
BBX 9 10 1 0
BITMAP
0800
0800
7780
4000
4000
4000
8000
8000
8000
8000
ENDCHAR
STARTCHAR 2F35
ENCODING 12085
SWIDTH 1000 0
DWIDTH 12 0
BBX 10 10 1 0
BITMAP
2000
6000
4000
4000
7000
2000
2000
6000
6000
9FC0
ENDCHAR
STARTCHAR 2F36
ENCODING 12086
SWIDTH 1000 0
DWIDTH 12 0
BBX 9 9 2 0
BITMAP
2400
2400
2400
2480
FF00
4400
4400
4400
8400
ENDCHAR
STARTCHAR 2F37
ENCODING 12087
SWIDTH 1000 0
DWIDTH 12 0
BBX 9 11 2 -1
BITMAP
1000
2400
1200
1180
7E00
9000
1000
0800
0500
0700
0180
ENDCHAR
STARTCHAR 2F38
ENCODING 12088
SWIDTH 1000 0
DWIDTH 12 0
BBX 8 10 2 0
BITMAP
7E
02
02
FC
80
FF
01
01
12
0E
ENDCHAR
STARTCHAR 2F39
ENCODING 12089
SWIDTH 1000 0
DWIDTH 12 0
BBX 10 8 1 1
BITMAP
7F00
0100
0100
7F00
0100
0100
0100
FFC0
ENDCHAR
STARTCHAR 2F3A
ENCODING 12090
SWIDTH 1000 0
DWIDTH 12 0
BBX 8 11 2 -1
BITMAP
04
08
10
62
04
18
61
02
0C
10
E0
ENDCHAR
STARTCHAR 2F3B
ENCODING 12091
SWIDTH 1000 0
DWIDTH 12 0
BBX 7 9 2 0
BITMAP
0C
12
64
08
18
70
90
10
10
ENDCHAR
STARTCHAR 2F3C
ENCODING 12092
SWIDTH 1000 0
DWIDTH 12 0
BBX 10 9 1 1
BITMAP
1800
0400
1000
5100
5080
5040
9140
9100
1F00
ENDCHAR
STARTCHAR 2F3D
ENCODING 12093
SWIDTH 1000 0
DWIDTH 12 0
BBX 9 11 2 -1
BITMAP
1000
1400
1200
1700
F800
1200
1400
0880
1480
6280
8180
ENDCHAR
STARTCHAR 2F3E
ENCODING 12094
SWIDTH 1000 0
DWIDTH 12 0
BBX 10 10 1 0
BITMAP
FFC0
0000
7F80
4080
4080
7F80
4080
4000
8000
8000
ENDCHAR
STARTCHAR 2F3F
ENCODING 12095
SWIDTH 1000 0
DWIDTH 12 0
BBX 10 10 1 0
BITMAP
0F00
3800
0800
7F80
0840
FFC0
0800
0800
0800
1800
ENDCHAR
STARTCHAR 2F40
ENCODING 12096
SWIDTH 1000 0
DWIDTH 12 0
BBX 10 11 1 -1
BITMAP
0C00
0840
FFC0
0800
0800
3700
1200
0C00
0C00
3380
C040
ENDCHAR
STARTCHAR 2F41
ENCODING 12097
SWIDTH 1000 0
DWIDTH 12 0
BBX 10 11 1 -1
BITMAP
0800
0880
0F80
0800
0800
3700
1200
1400
0C00
1300
E0C0
ENDCHAR
STARTCHAR 2F42
ENCODING 12098
SWIDTH 1000 0
DWIDTH 12 0
BBX 10 10 1 -1
BITMAP
0800
0840
7780
2200
1200
0C00
0400
0A00
3180
C040
ENDCHAR
STARTCHAR 2F43
ENCODING 12099
SWIDTH 1000 0
DWIDTH 12 0
BBX 9 11 2 -1
BITMAP
0400
4400
2400
1400
C400
2400
0480
3F00
C400
0400
0400
ENDCHAR
STARTCHAR 2F44
ENCODING 12100
SWIDTH 1000 0
DWIDTH 12 0
BBX 10 10 1 -1
BITMAP
0700
7800
4000
4040
7F80
4200
4200
4200
8200
0200
ENDCHAR
STARTCHAR 2F45
ENCODING 12101
SWIDTH 1000 0
DWIDTH 12 0
BBX 10 11 1 -1
BITMAP
0800
0840
FFC0
0800
0800
1780
1080
1080
2080
4100
8300
ENDCHAR
STARTCHAR 2F46
ENCODING 12102
SWIDTH 1000 0
DWIDTH 12 0
BBX 10 10 1 0
BITMAP
7F80
0800
0800
0800
7F80
0C00
1400
1440
2440
C7C0
ENDCHAR
STARTCHAR 2F47
ENCODING 12103
SWIDTH 1000 0
DWIDTH 12 0
BBX 8 9 2 1
BITMAP
FF
82
82
82
FE
82
82
82
FC
ENDCHAR
STARTCHAR 2F48
ENCODING 12104
SWIDTH 1000 0
DWIDTH 12 0
BBX 8 9 2 0
BITMAP
01
FF
81
85
FD
81
81
81
FF
ENDCHAR
STARTCHAR 2F49
ENCODING 12105
SWIDTH 1000 0
DWIDTH 12 0
BBX 8 10 1 0
BITMAP
3F
21
21
3F
21
3F
21
41
41
83
ENDCHAR
STARTCHAR 2F4A
ENCODING 12106
SWIDTH 1000 0
DWIDTH 12 0
BBX 10 11 1 -1
BITMAP
0400
0800
0840
FFC0
0C00
1C00
1A00
2900
48C0
8800
0800
ENDCHAR
STARTCHAR 2F4B
ENCODING 12107
SWIDTH 1000 0
DWIDTH 12 0
BBX 10 10 1 0
BITMAP
2000
2000
5F80
4880
8C00
0C00
1200
1100
2080
C040
ENDCHAR
STARTCHAR 2F4C
ENCODING 12108
SWIDTH 1000 0
DWIDTH 12 0
BBX 9 9 2 0
BITMAP
0800
0800
4800
4900
4E00
4800
4800
4800
FF80
ENDCHAR
STARTCHAR 2F4D
ENCODING 12109
SWIDTH 1000 0
DWIDTH 12 0
BBX 10 10 1 0
BITMAP
FFC0
0800
1000
2F00
5200
8A00
0C00
0800
3000
C000
ENDCHAR
STARTCHAR 2F4E
ENCODING 12110
SWIDTH 1000 0
DWIDTH 12 0
BBX 10 11 1 -1
BITMAP
0200
3E00
2200
2240
23C0
C100
3F00
1200
0C00
3380
4040
ENDCHAR
STARTCHAR 2F4F
ENCODING 12111
SWIDTH 1000 0
DWIDTH 12 0
BBX 9 10 2 0
BITMAP
7F00
9200
9200
9280
FF00
9200
9280
FF80
0200
0400
ENDCHAR
STARTCHAR 2F50
ENCODING 12112
SWIDTH 1000 0
DWIDTH 12 0
BBX 10 11 1 -1
BITMAP
6200
4400
4400
4480
7D00
4200
4400
4400
4440
7440
83C0
ENDCHAR
STARTCHAR 2F51
ENCODING 12113
SWIDTH 1000 0
DWIDTH 12 0
BBX 9 10 2 -1
BITMAP
0E00
F000
1100
7E00
9080
1700
F800
1080
1080
1F80
ENDCHAR
STARTCHAR 2F52
ENCODING 12114
SWIDTH 1000 0
DWIDTH 12 0
BBX 10 9 1 1
BITMAP
0700
7C00
4400
4400
7F80
4200
4240
4540
F8C0
ENDCHAR
STARTCHAR 2F53
ENCODING 12115
SWIDTH 1000 0
DWIDTH 12 0
BBX 10 10 1 0
BITMAP
2000
2080
5F00
7F80
8000
3F00
0100
0100
00C0
0040
ENDCHAR
STARTCHAR 2F54
ENCODING 12116
SWIDTH 1000 0
DWIDTH 12 0
BBX 10 11 1 -1
BITMAP
0400
0400
1C40
FC80
1D00
2A00
2900
4900
48C0
8800
0800
ENDCHAR
STARTCHAR 2F55
ENCODING 12117
SWIDTH 1000 0
DWIDTH 12 0
BBX 10 11 1 -1
BITMAP
0400
0800
0880
2880
4500
4E00
4C00
0A00
1100
20C0
C000
ENDCHAR
STARTCHAR 2F56
ENCODING 12118
SWIDTH 1000 0
DWIDTH 12 0
BBX 10 9 1 -1
BITMAP
4F00
7A00
4900
4900
4900
4900
4880
4880
8840
ENDCHAR
STARTCHAR 2F57
ENCODING 12119
SWIDTH 1000 0
DWIDTH 12 0
BBX 10 10 1 -1
BITMAP
1200
2180
4040
8200
1200
0C00
0C00
1200
2180
C040
ENDCHAR
STARTCHAR 2F58
ENCODING 12120
SWIDTH 1000 0
DWIDTH 12 0
BBX 10 11 1 -1
BITMAP
0100
2300
1C00
0B00
7080
0100
1200
0C00
0C00
1380
E040
ENDCHAR
STARTCHAR 2F59
ENCODING 12121
SWIDTH 1000 0
DWIDTH 12 0
BBX 6 9 3 0
BITMAP
44
84
84
7C
04
FC
44
84
84
ENDCHAR
STARTCHAR 2F5A
ENCODING 12122
SWIDTH 1000 0
DWIDTH 12 0
BBX 9 9 1 0
BITMAP
2400
4400
4400
7B80
4000
7E00
4200
4200
8200
ENDCHAR
STARTCHAR 2F5B
ENCODING 12123
SWIDTH 1000 0
DWIDTH 12 0
BBX 10 11 1 -1
BITMAP
0080
7F80
0200
2200
4240
3F80
0A00
1200
2200
C200
0400
ENDCHAR
STARTCHAR 2F5C
ENCODING 12124
SWIDTH 1000 0
DWIDTH 12 0
BBX 10 10 1 -1
BITMAP
0400
2800
4880
7F80
4800
8800
0840
7F80
0800
0800
ENDCHAR
STARTCHAR 2F5D
ENCODING 12125
SWIDTH 1000 0
DWIDTH 12 0
BBX 9 10 2 0
BITMAP
1800
1400
1200
1080
FF00
1800
2400
2400
4300
8080
ENDCHAR
STARTCHAR 2F5E
ENCODING 12126
SWIDTH 1000 0
DWIDTH 12 0
BBX 10 11 1 -1
BITMAP
0800
0840
FFC0
0800
0800
5300
3200
1400
0900
3780
D840
ENDCHAR
STARTCHAR 2F5F
ENCODING 12127
SWIDTH 1000 0
DWIDTH 12 0
BBX 9 8 2 1
BITMAP
FF00
1000
1000
FF00
1000
1600
1200
FF80
ENDCHAR
STARTCHAR 2F60
ENCODING 12128
SWIDTH 1000 0
DWIDTH 12 0
BBX 10 9 1 0
BITMAP
7F00
4900
4900
4900
4900
4900
4A80
8940
BF40
ENDCHAR
STARTCHAR 2F61
ENCODING 12129
SWIDTH 1000 0
DWIDTH 12 0
BBX 10 10 1 0
BITMAP
FFC0
2000
2000
3E00
3200
2A00
2A40
2240
FBC0
8000
ENDCHAR
STARTCHAR 2F62
ENCODING 12130
SWIDTH 1000 0
DWIDTH 12 0
BBX 9 11 2 -1
BITMAP
4200
4200
4280
FF00
4200
4200
7E00
4200
4200
7E00
4200
ENDCHAR
STARTCHAR 2F63
ENCODING 12131
SWIDTH 1000 0
DWIDTH 12 0
BBX 10 10 1 0
BITMAP
0400
2800
4800
7F80
8800
8880
7F80
0800
0800
7FC0
ENDCHAR
STARTCHAR 2F64
ENCODING 12132
SWIDTH 1000 0
DWIDTH 12 0
BBX 9 10 1 0
BITMAP
7F80
4880
4880
7F80
4880
7F80
4880
8880
8880
0180
ENDCHAR
STARTCHAR 2F65
ENCODING 12133
SWIDTH 1000 0
DWIDTH 12 0
BBX 9 9 2 1
BITMAP
FF80
9100
9100
9100
FF00
9100
9100
9100
EE00
ENDCHAR
STARTCHAR 2F66
ENCODING 12134
SWIDTH 1000 0
DWIDTH 12 0
BBX 10 8 1 1
BITMAP
7F80
0800
2880
4780
4800
6800
5800
87C0
ENDCHAR
STARTCHAR 2F67
ENCODING 12135
SWIDTH 1000 0
DWIDTH 12 0
BBX 11 10 0 -1
BITMAP
0200
0220
3DC0
6000
6000
2000
6000
A000
2000
4000
ENDCHAR
STARTCHAR 2F68
ENCODING 12136
SWIDTH 1000 0
DWIDTH 12 0
BBX 9 5 2 4
BITMAP
7200
AD80
6600
4100
8080
ENDCHAR
STARTCHAR 2F69
ENCODING 12137
SWIDTH 1000 0
DWIDTH 12 0
BBX 8 10 2 -1
BITMAP
10
21
DF
81
81
FF
81
81
81
FF
ENDCHAR
STARTCHAR 2F6A
ENCODING 12138
SWIDTH 1000 0
DWIDTH 12 0
BBX 10 10 1 0
BITMAP
0400
0400
7FC0
4480
4400
7B00
5200
4A00
8E00
B1C0
ENDCHAR
STARTCHAR 2F6B
ENCODING 12139
SWIDTH 1000 0
DWIDTH 12 0
BBX 10 9 1 0
BITMAP
0080
7F80
5480
5480
5480
5480
5480
5480
FFC0
ENDCHAR
STARTCHAR 2F6C
ENCODING 12140
SWIDTH 1000 0
DWIDTH 12 0
BBX 8 10 2 0
BITMAP
FF
81
81
FF
81
81
FF
81
FF
81
ENDCHAR
STARTCHAR 2F6D
ENCODING 12141
SWIDTH 1000 0
DWIDTH 12 0
BBX 9 10 2 0
BITMAP
7E00
2C00
1000
0800
FF80
2A00
4800
8800
0800
1000
ENDCHAR
STARTCHAR 2F6E
ENCODING 12142
SWIDTH 1000 0
DWIDTH 12 0
BBX 10 11 1 -1
BITMAP
3000
2080
5F00
4800
0800
0840
7F80
0C00
1200
2180
C040
ENDCHAR
STARTCHAR 2F6F
ENCODING 12143
SWIDTH 1000 0
DWIDTH 12 0
BBX 10 11 1 -1
BITMAP
0040
FFC0
1000
1000
2000
3F80
6080
A080
2080
3F80
2080
ENDCHAR
STARTCHAR 2F70
ENCODING 12144
SWIDTH 1000 0
DWIDTH 12 0
BBX 10 10 1 0
BITMAP
7F80
0000
0000
FFC0
0800
2900
4880
8840
8840
1800
ENDCHAR
STARTCHAR 2F71
ENCODING 12145
SWIDTH 1000 0
DWIDTH 12 0
BBX 8 10 2 -1
BITMAP
10
10
FF
A1
A5
A3
FF
81
81
83
ENDCHAR
STARTCHAR 2F72
ENCODING 12146
SWIDTH 1000 0
DWIDTH 12 0
BBX 10 10 1 -1
BITMAP
0380
3C00
4800
0840
FFC0
0C00
1A00
2900
48C0
0800
ENDCHAR
STARTCHAR 2F73
ENCODING 12147
SWIDTH 1000 0
DWIDTH 12 0
BBX 10 11 1 -1
BITMAP
0800
0800
7FC0
8040
8080
1200
2200
2100
4100
4080
8040
ENDCHAR
STARTCHAR 2F74
ENCODING 12148
SWIDTH 1000 0
DWIDTH 12 0
BBX 9 9 2 0
BITMAP
1000
1000
EF00
0200
4200
2400
2400
2400
FF80
ENDCHAR
STARTCHAR 2F75
ENCODING 12149
SWIDTH 1000 0
DWIDTH 12 0
BBX 11 10 0 0
BITMAP
1100
2100
2620
5BC0
5080
9080
1080
1080
1080
1380
ENDCHAR
STARTCHAR 2F76
ENCODING 12150
SWIDTH 1000 0
DWIDTH 12 0
BBX 10 10 1 -1
BITMAP
0400
0880
6900
2900
0840
7F80
1A00
2900
48C0
8840
ENDCHAR
STARTCHAR 2F77
ENCODING 12151
SWIDTH 1000 0
DWIDTH 12 0
BBX 10 10 1 -1
BITMAP
0C00
0800
3300
1200
1D00
1380
EC40
2900
4880
8840
ENDCHAR
STARTCHAR 2F78
ENCODING 12152
SWIDTH 1000 0
DWIDTH 12 0
BBX 10 11 1 -1
BITMAP
3000
2080
5F00
4800
0840
FFC0
0800
4880
4880
4880
7780
ENDCHAR
STARTCHAR 2F79
ENCODING 12153
SWIDTH 1000 0
DWIDTH 12 0
BBX 9 10 1 0
BITMAP
FF80
9280
9A80
B680
9280
AD80
A480
C480
8080
8080
ENDCHAR
STARTCHAR 2F7A
ENCODING 12154
SWIDTH 1000 0
DWIDTH 12 0
BBX 10 11 1 -1
BITMAP
0200
3200
1400
6B80
0880
3F00
0840
FFC0
0800
0800
0800
ENDCHAR
STARTCHAR 2F7B
ENCODING 12155
SWIDTH 1000 0
DWIDTH 12 0
BBX 10 10 1 0
BITMAP
7BC0
8A40
4940
4840
0940
6A40
8C40
8840
0840
1080
ENDCHAR
STARTCHAR 2F7C
ENCODING 12156
SWIDTH 1000 0
DWIDTH 12 0
BBX 10 11 1 -1
BITMAP
0800
1380
3E00
1240
FFC0
0800
1100
3600
D800
1080
1F80
ENDCHAR
STARTCHAR 2F7D
ENCODING 12157
SWIDTH 1000 0
DWIDTH 12 0
BBX 10 11 1 -1
BITMAP
0040
FFC0
0800
0800
B780
9280
9280
9280
9280
9280
0080
ENDCHAR
STARTCHAR 2F7E
ENCODING 12158
SWIDTH 1000 0
DWIDTH 12 0
BBX 10 10 1 -1
BITMAP
0400
0980
3E00
4880
3F00
0840
7F80
1A00
2980
C840
ENDCHAR
STARTCHAR 2F7F
ENCODING 12159
SWIDTH 1000 0
DWIDTH 12 0
BBX 10 11 1 -1
BITMAP
0040
7F80
2100
3F00
2100
2100
3F00
2140
FF80
8100
0100
ENDCHAR
STARTCHAR 2F80
ENCODING 12160
SWIDTH 1000 0
DWIDTH 12 0
BBX 10 10 1 0
BITMAP
0800
3F00
FFC0
0900
3E00
0880
3F00
FFC0
0800
0800
ENDCHAR
STARTCHAR 2F81
ENCODING 12161
SWIDTH 1000 0
DWIDTH 12 0
BBX 9 11 1 -1
BITMAP
0400
0800
FF80
8E80
9580
A880
8E80
9180
A080
8080
8180
ENDCHAR
STARTCHAR 2F82
ENCODING 12162
SWIDTH 1000 0
DWIDTH 12 0
BBX 9 10 2 0
BITMAP
FF80
9000
9000
EF00
8100
8100
FF00
9000
9080
EF00
ENDCHAR
STARTCHAR 2F83
ENCODING 12163
SWIDTH 1000 0
DWIDTH 12 0
BBX 8 11 2 -1
BITMAP
10
10
EF
81
81
FF
81
FF
81
FF
81
ENDCHAR
STARTCHAR 2F84
ENCODING 12164
SWIDTH 1000 0
DWIDTH 12 0
BBX 9 9 2 1
BITMAP
FF00
2200
4100
FE80
1000
1000
7E00
1000
FF80
ENDCHAR
STARTCHAR 2F85
ENCODING 12165
SWIDTH 1000 0
DWIDTH 12 0
BBX 8 11 2 -1
BITMAP
10
20
C7
81
81
A1
C7
81
81
FF
81
ENDCHAR
STARTCHAR 2F86
ENCODING 12166
SWIDTH 1000 0
DWIDTH 12 0
BBX 9 10 2 -1
BITMAP
1E00
7000
1080
FF00
1000
FF00
8200
8200
8200
FC00
ENDCHAR
STARTCHAR 2F87
ENCODING 12167
SWIDTH 1000 0
DWIDTH 12 0
BBX 10 10 1 -1
BITMAP
2180
4100
3940
4B80
5500
B500
3540
2780
4100
8100
ENDCHAR
STARTCHAR 2F88
ENCODING 12168
SWIDTH 1000 0
DWIDTH 12 0
BBX 10 11 1 -1
BITMAP
0800
0800
3700
2D00
2140
FFC0
2D00
4900
4900
4100
8300
ENDCHAR
STARTCHAR 2F89
ENCODING 12169
SWIDTH 1000 0
DWIDTH 12 0
BBX 10 10 1 0
BITMAP
7F00
4100
7F00
4100
3F00
4980
4500
4600
5900
E0C0
ENDCHAR
STARTCHAR 2F8A
ENCODING 12170
SWIDTH 1000 0
DWIDTH 12 0
BBX 10 11 1 -1
BITMAP
1200
3E00
2200
4480
FB80
4880
7F80
4080
4040
4040
3FC0
ENDCHAR
STARTCHAR 2F8B
ENCODING 12171
SWIDTH 1000 0
DWIDTH 12 0
BBX 10 11 1 -1
BITMAP
0100
2100
2100
B540
B540
B540
B540
C7C0
4100
4100
8100
ENDCHAR
STARTCHAR 2F8C
ENCODING 12172
SWIDTH 1000 0
DWIDTH 12 0
BBX 10 9 1 -1
BITMAP
0800
0F80
7FC0
4880
4800
4B80
5C00
8800
8FC0
ENDCHAR
STARTCHAR 2F8D
ENCODING 12173
SWIDTH 1000 0
DWIDTH 12 0
BBX 10 10 1 0
BITMAP
0400
0800
0800
7F80
4880
4880
7F80
0900
0880
FF40
ENDCHAR
STARTCHAR 2F8E
ENCODING 12174
SWIDTH 1000 0
DWIDTH 12 0
BBX 8 10 2 0
BITMAP
10
21
FF
A9
A9
A9
A9
A9
A9
FF
ENDCHAR
STARTCHAR 2F8F
ENCODING 12175
SWIDTH 1000 0
DWIDTH 12 0
BBX 10 11 1 -1
BITMAP
2000
4FC0
8000
2040
3FC0
6100
C100
4100
4100
4100
0300
ENDCHAR
STARTCHAR 2F90
ENCODING 12176
SWIDTH 1000 0
DWIDTH 12 0
BBX 10 10 1 -1
BITMAP
0800
0840
7F80
14C0
2500
6200
2100
2380
3CC0
C000
ENDCHAR
STARTCHAR 2F91
ENCODING 12177
SWIDTH 1000 0
DWIDTH 12 0
BBX 10 9 1 -1
BITMAP
0040
7F80
1200
BF80
9280
9280
9E80
9280
8080
ENDCHAR
STARTCHAR 2F92
ENCODING 12178
SWIDTH 1000 0
DWIDTH 12 0
BBX 9 10 2 0
BITMAP
FE00
8200
FE00
7E00
8200
7E00
2800
2880
4880
8780
ENDCHAR
STARTCHAR 2F93
ENCODING 12179
SWIDTH 1000 0
DWIDTH 12 0
BBX 9 11 1 -1
BITMAP
1000
3E00
2400
DF80
4480
7F80
4480
7F80
4080
4080
8180
ENDCHAR
STARTCHAR 2F94
ENCODING 12180
SWIDTH 1000 0
DWIDTH 12 0
BBX 9 11 2 -1
BITMAP
0200
3C00
0080
FF00
7E00
0000
3E00
FF00
8100
8100
FF00
ENDCHAR
STARTCHAR 2F95
ENCODING 12181
SWIDTH 1000 0
DWIDTH 12 0
BBX 10 11 1 -1
BITMAP
0200
2100
4C80
8C00
1200
2100
7FC0
2100
2100
2100
3F00
ENDCHAR
STARTCHAR 2F96
ENCODING 12182
SWIDTH 1000 0
DWIDTH 12 0
BBX 9 9 2 1
BITMAP
FF00
0000
7F00
8200
8200
3C00
4200
2400
FF80
ENDCHAR
STARTCHAR 2F97
ENCODING 12183
SWIDTH 1000 0
DWIDTH 12 0
BBX 10 11 1 -1
BITMAP
0040
7F80
1400
6A80
1700
2600
CD00
1480
6440
0400
0800
ENDCHAR
STARTCHAR 2F98
ENCODING 12184
SWIDTH 1000 0
DWIDTH 12 0
BBX 6 11 3 -1
BITMAP
08
30
D4
48
30
D8
28
CC
34
C4
18
ENDCHAR
STARTCHAR 2F99
ENCODING 12185
SWIDTH 1000 0
DWIDTH 12 0
BBX 9 10 2 0
BITMAP
FE00
8200
FE00
8200
FE00
8200
FE00
8000
6600
8180
ENDCHAR
STARTCHAR 2F9A
ENCODING 12186
SWIDTH 1000 0
DWIDTH 12 0
BBX 10 11 1 -1
BITMAP
0400
0880
3F00
0840
FFC0
1200
7300
5280
9240
2200
4600
ENDCHAR
STARTCHAR 2F9B
ENCODING 12187
SWIDTH 1000 0
DWIDTH 12 0
BBX 10 11 1 -1
BITMAP
0400
0880
7F80
0800
FFC0
0800
2800
2F00
6800
9800
87C0
ENDCHAR
STARTCHAR 2F9C
ENCODING 12188
SWIDTH 1000 0
DWIDTH 12 0
BBX 10 10 1 0
BITMAP
7F00
4100
4100
3F00
0800
2800
2F80
5800
8C00
83C0
ENDCHAR
STARTCHAR 2F9D
ENCODING 12189
SWIDTH 1000 0
DWIDTH 12 0
BBX 10 11 1 -1
BITMAP
0800
0900
3700
3F40
2140
3F80
2F00
D300
0D00
3100
4300
ENDCHAR
STARTCHAR 2F9E
ENCODING 12190
SWIDTH 1000 0
DWIDTH 12 0
BBX 10 11 1 -1
BITMAP
0400
0840
7F80
7F80
4880
7F80
4880
3F00
FFC0
0800
0800
ENDCHAR
STARTCHAR 2F9F
ENCODING 12191
SWIDTH 1000 0
DWIDTH 12 0
BBX 10 10 1 -1
BITMAP
0400
0880
7F80
2100
1200
FFC0
0800
0800
7F80
0800
ENDCHAR
STARTCHAR 2FA0
ENCODING 12192
SWIDTH 1000 0
DWIDTH 12 0
BBX 10 9 1 1
BITMAP
7F80
4000
4F00
4040
7F80
9280
9300
9380
3C40
ENDCHAR
STARTCHAR 2FA1
ENCODING 12193
SWIDTH 1000 0
DWIDTH 12 0
BBX 10 11 1 -1
BITMAP
0180
0E00
7380
3C00
0780
FC00
2480
2700
5400
8C00
87C0
ENDCHAR
STARTCHAR 2FA2
ENCODING 12194
SWIDTH 1000 0
DWIDTH 12 0
BBX 9 10 2 0
BITMAP
0200
7E00
4200
3C00
FF00
9100
9100
EF00
8080
FF80
ENDCHAR
STARTCHAR 2FA3
ENCODING 12195
SWIDTH 1000 0
DWIDTH 12 0
BBX 10 11 1 -1
BITMAP
0040
7F80
1400
7FC0
9480
9580
A780
8080
FF80
8080
7F00
ENDCHAR
STARTCHAR 2FA4
ENCODING 12196
SWIDTH 1000 0
DWIDTH 12 0
BBX 10 10 1 -1
BITMAP
0180
7E00
4900
2900
2A40
FFC0
0C00
1A00
2980
C840
ENDCHAR
STARTCHAR 2FA5
ENCODING 12197
SWIDTH 1000 0
DWIDTH 12 0
BBX 9 9 2 1
BITMAP
FF00
9100
FF00
9100
9100
FF00
1100
7E00
FF80
ENDCHAR
STARTCHAR 2FA6
ENCODING 12198
SWIDTH 1000 0
DWIDTH 12 0
BBX 9 10 2 0
BITMAP
1000
1800
2600
4100
9C80
1100
FF00
1000
5200
FF00
ENDCHAR
STARTCHAR 2FA7
ENCODING 12199
SWIDTH 1000 0
DWIDTH 12 0
BBX 10 11 1 -1
BITMAP
0080
3F00
3F80
2000
3F00
2040
7F80
2500
2200
3980
C040
ENDCHAR
STARTCHAR 2FA8
ENCODING 12200
SWIDTH 1000 0
DWIDTH 12 0
BBX 10 10 1 0
BITMAP
F7C0
F3C0
9440
F3C0
8040
8040
8040
8040
8040
8080
ENDCHAR
STARTCHAR 2FA9
ENCODING 12201
SWIDTH 1000 0
DWIDTH 12 0
BBX 10 10 1 0
BITMAP
0800
7700
7F00
4000
7F80
4080
3F40
FFC0
0800
0800
ENDCHAR
STARTCHAR 2FAA
ENCODING 12202
SWIDTH 1000 0
DWIDTH 12 0
BBX 10 10 1 -1
BITMAP
0800
3F00
7F80
0900
3680
6D00
0A00
2900
C8C0
1800
ENDCHAR
STARTCHAR 2FAB
ENCODING 12203
SWIDTH 1000 0
DWIDTH 12 0
BBX 10 11 1 -1
BITMAP
0200
2200
2400
5F80
C480
FF00
4480
3F80
4400
4440
3B80
ENDCHAR
STARTCHAR 2FAC
ENCODING 12204
SWIDTH 1000 0
DWIDTH 12 0
BBX 10 11 1 -1
BITMAP
0040
FFC0
0800
7FC0
8880
AB80
9880
AA80
9980
8880
0080
ENDCHAR
STARTCHAR 2FAD
ENCODING 12205
SWIDTH 1000 0
DWIDTH 12 0
BBX 10 11 1 -1
BITMAP
0800
FFC0
0800
3F40
7780
3F80
2900
2900
3700
2100
2300
ENDCHAR
STARTCHAR 2FAE
ENCODING 12206
SWIDTH 1000 0
DWIDTH 12 0
BBX 10 10 1 -1
BITMAP
1200
1240
7380
1200
7380
1A40
F3C0
A200
2200
4200
ENDCHAR
STARTCHAR 2FAF
ENCODING 12207
SWIDTH 1000 0
DWIDTH 12 0
BBX 10 11 1 -1
BITMAP
0040
7F80
0800
7FC0
9280
9E80
9280
9280
9E80
9280
6D00
ENDCHAR
STARTCHAR 2FB0
ENCODING 12208
SWIDTH 1000 0
DWIDTH 12 0
BBX 10 10 1 0
BITMAP
1200
FFC0
1200
1E00
0880
7F80
4880
3F40
7F80
0800
ENDCHAR
STARTCHAR 2FB1
ENCODING 12209
SWIDTH 1000 0
DWIDTH 12 0
BBX 9 11 2 -1
BITMAP
1000
FE00
2200
DD00
7E00
4200
3C00
FE00
8880
7F00
0800
ENDCHAR
STARTCHAR 2FB2
ENCODING 12210
SWIDTH 1000 0
DWIDTH 12 0
BBX 10 9 1 0
BITMAP
1400
1440
7780
1400
7780
1400
F3C0
1400
7FC0
ENDCHAR
STARTCHAR 2FB3
ENCODING 12211
SWIDTH 1000 0
DWIDTH 12 0
BBX 9 11 2 -1
BITMAP
0800
1100
6E00
2400
2480
DB00
7E00
4200
7E00
4200
7E00
ENDCHAR
STARTCHAR 2FB4
ENCODING 12212
SWIDTH 1000 0
DWIDTH 12 0
BBX 9 11 2 -1
BITMAP
0080
FF00
1000
EE00
7E00
8200
FE00
8200
7C00
4780
8000
ENDCHAR
STARTCHAR 2FB5
ENCODING 12213
SWIDTH 1000 0
DWIDTH 12 0
BBX 11 11 1 -1
BITMAP
0080
7F80
7E80
4880
5E80
6A80
AA80
9E80
8AC0
BF40
0120
ENDCHAR
STARTCHAR 2FB6
ENCODING 12214
SWIDTH 1000 0
DWIDTH 12 0
BBX 10 10 1 0
BITMAP
7EC0
3900
E980
2900
28C0
7E80
4B80
4940
88C0
0840
ENDCHAR
STARTCHAR 2FB7
ENCODING 12215
SWIDTH 1000 0
DWIDTH 12 0
BBX 10 10 1 0
BITMAP
0C00
1200
2980
F740
3F00
2100
3E80
2700
2D00
D0C0
ENDCHAR
STARTCHAR 2FB8
ENCODING 12216
SWIDTH 1000 0
DWIDTH 12 0
BBX 10 11 1 -1
BITMAP
2200
1240
FFC0
0800
3F80
4100
7F00
4100
7F00
4100
3E00
ENDCHAR
STARTCHAR 2FB9
ENCODING 12217
SWIDTH 1000 0
DWIDTH 12 0
BBX 10 10 1 -1
BITMAP
3F00
0840
7F80
3B00
C0C0
3F80
4100
7F00
4100
3E00
ENDCHAR
STARTCHAR 2FBA
ENCODING 12218
SWIDTH 1000 0
DWIDTH 12 0
BBX 10 11 1 -1
BITMAP
0080
7F00
4480
7F00
4480
7F00
7FC0
4240
2940
9480
8180
ENDCHAR
STARTCHAR 2FBB
ENCODING 12219
SWIDTH 1000 0
DWIDTH 12 0
BBX 10 10 1 0
BITMAP
3F00
2F00
2940
D6C0
BF00
2100
3F00
3F00
2100
2300
ENDCHAR
STARTCHAR 2FBC
ENCODING 12220
SWIDTH 1000 0
DWIDTH 12 0
BBX 10 10 1 -1
BITMAP
0840
7780
3F00
3F00
0000
FF80
9E80
9280
9C80
0080
ENDCHAR
STARTCHAR 2FBD
ENCODING 12221
SWIDTH 1000 0
DWIDTH 12 0
BBX 10 10 1 -1
BITMAP
0800
7080
4900
7640
7880
4100
FE40
50C0
4880
FB00
ENDCHAR
STARTCHAR 2FBE
ENCODING 12222
SWIDTH 1000 0
DWIDTH 12 0
BBX 10 11 1 -1
BITMAP
8040
B340
BF40
A240
9140
8040
8040
8040
8040
8040
8080
ENDCHAR
STARTCHAR 2FBF
ENCODING 12223
SWIDTH 1000 0
DWIDTH 12 0
BBX 9 10 2 -1
BITMAP
B500
A900
DB00
B700
8900
7600
8700
F800
8080
7F80
ENDCHAR
STARTCHAR 2FC0
ENCODING 12224
SWIDTH 1000 0
DWIDTH 12 0
BBX 10 11 1 -1
BITMAP
0040
7F80
3F00
2100
1E00
7FC0
9780
A080
BF80
8880
0080
ENDCHAR
STARTCHAR 2FC1
ENCODING 12225
SWIDTH 1000 0
DWIDTH 12 0
BBX 10 11 1 -1
BITMAP
0800
0880
7F80
4880
7F80
4880
7780
1500
2580
2440
C7C0
ENDCHAR
STARTCHAR 2FC2
ENCODING 12226
SWIDTH 1000 0
DWIDTH 12 0
BBX 10 11 1 -1
BITMAP
1000
2E00
2480
DB80
C880
7F80
4880
3F80
0000
52C0
9240
ENDCHAR
STARTCHAR 2FC3
ENCODING 12227
SWIDTH 1000 0
DWIDTH 12 0
BBX 10 11 1 -1
BITMAP
0800
0800
7700
7F00
7E40
7FC0
4000
3FC0
2980
9480
8180
ENDCHAR
STARTCHAR 2FC4
ENCODING 12228
SWIDTH 1000 0
DWIDTH 12 0
BBX 9 10 1 -1
BITMAP
0880
0F00
F780
AA80
9C80
A580
9A80
AA80
8480
FB00
ENDCHAR
STARTCHAR 2FC5
ENCODING 12229
SWIDTH 1000 0
DWIDTH 12 0
BBX 10 11 1 -1
BITMAP
0400
0840
F780
7FC0
9280
7F80
A200
A2C0
B300
A640
5BC0
ENDCHAR
STARTCHAR 2FC6
ENCODING 12230
SWIDTH 1000 0
DWIDTH 12 0
BBX 10 10 1 -1
BITMAP
0800
7F80
4D00
7A80
A100
48C0
3600
5C00
1300
E080
ENDCHAR
STARTCHAR 2FC7
ENCODING 12231
SWIDTH 1000 0
DWIDTH 12 0
BBX 10 11 1 -1
BITMAP
0400
0440
FB80
9100
9140
9F80
9B80
BB80
D540
9100
1100
ENDCHAR
STARTCHAR 2FC8
ENCODING 12232
SWIDTH 1000 0
DWIDTH 12 0
BBX 10 11 1 -1
BITMAP
1200
FFC0
1200
1E40
6D80
7F80
4880
7F80
7F80
5200
61C0
ENDCHAR
STARTCHAR 2FC9
ENCODING 12233
SWIDTH 1000 0
DWIDTH 12 0
BBX 10 11 1 -1
BITMAP
0F00
3800
FFC0
1C00
2B80
4C40
3780
E940
1E00
E980
0800
ENDCHAR
STARTCHAR 2FCA
ENCODING 12234
SWIDTH 1000 0
DWIDTH 12 0
BBX 10 10 1 0
BITMAP
7F80
4880
7F80
7F80
0800
3F40
FFC0
0400
52C0
9240
ENDCHAR
STARTCHAR 2FCB
ENCODING 12235
SWIDTH 1000 0
DWIDTH 12 0
BBX 10 11 1 -1
BITMAP
1200
5480
5540
2A80
4980
FFC0
5A80
6A80
6A80
6880
4180
ENDCHAR
STARTCHAR 2FCC
ENCODING 12236
SWIDTH 1000 0
DWIDTH 12 0
BBX 11 9 1 1
BITMAP
7F80
5480
3700
F780
9480
F780
9480
F700
0FE0
ENDCHAR
STARTCHAR 2FCD
ENCODING 12237
SWIDTH 1000 0
DWIDTH 12 0
BBX 10 10 1 0
BITMAP
BE80
BE80
BE80
9E80
8080
7700
F3C0
5480
5480
9480
ENDCHAR
STARTCHAR 2FCE
ENCODING 12238
SWIDTH 1000 0
DWIDTH 12 0
BBX 11 10 1 0
BITMAP
0100
2900
77C0
F900
F140
9680
6280
5100
5980
A660
ENDCHAR
STARTCHAR 2FCF
ENCODING 12239
SWIDTH 1000 0
DWIDTH 12 0
BBX 10 11 1 -1
BITMAP
1800
6380
7B80
4080
3F00
6A80
5980
7A80
48C0
EEC0
0040
ENDCHAR
STARTCHAR 2FD0
ENCODING 12240
SWIDTH 1000 0
DWIDTH 12 0
BBX 10 11 1 -1
BITMAP
0800
3F00
2100
3F00
1E00
7F80
7F80
3700
FFC0
2200
6200
ENDCHAR
STARTCHAR 2FD1
ENCODING 12241
SWIDTH 1000 0
DWIDTH 12 0
BBX 10 11 1 -1
BITMAP
0840
FFC0
0200
6F80
6A80
AB40
2080
5F80
4080
7F80
8080
ENDCHAR
STARTCHAR 2FD2
ENCODING 12242
SWIDTH 1000 0
DWIDTH 12 0
BBX 10 11 1 -1
BITMAP
2480
2780
2440
5B80
9280
AD80
7F80
9280
9280
AD80
7200
ENDCHAR
STARTCHAR 2FD3
ENCODING 12243
SWIDTH 1000 0
DWIDTH 12 0
BBX 10 10 1 0
BITMAP
4440
3780
6F80
9780
F480
9700
F700
F780
9440
93C0
ENDCHAR
STARTCHAR 2FD4
ENCODING 12244
SWIDTH 1000 0
DWIDTH 12 0
BBX 11 11 1 -1
BITMAP
2000
5C80
7F80
D480
3700
7400
FF80
1580
FF80
F440
0FE0
ENDCHAR
STARTCHAR 2FD5
ENCODING 12245
SWIDTH 1000 0
DWIDTH 12 0
BBX 10 10 1 0
BITMAP
0C00
3300
4CC0
BD80
4000
7FC0
5280
7F80
5280
5280
ENDCHAR
STARTCHAR 2FF0
ENCODING 12272
SWIDTH 1000 0
DWIDTH 12 0
BBX 10 6 1 1
BITMAP
8040
8040
0040
0000
8040
8040
ENDCHAR
STARTCHAR 2FF1
ENCODING 12273
SWIDTH 1000 0
DWIDTH 12 0
BBX 10 6 1 1
BITMAP
8040
8040
8040
4D80
8040
8040
ENDCHAR
STARTCHAR 2FF2
ENCODING 12274
SWIDTH 1000 0
DWIDTH 12 0
BBX 10 6 1 1
BITMAP
9240
9240
0040
0000
9240
9240
ENDCHAR
STARTCHAR 2FF3
ENCODING 12275
SWIDTH 1000 0
DWIDTH 12 0
BBX 10 6 1 1
BITMAP
8040
8040
0000
0000
8040
8040
ENDCHAR
STARTCHAR 2FF4
ENCODING 12276
SWIDTH 1000 0
DWIDTH 12 0
BBX 3 6 8 1
BITMAP
20
20
00
00
20
A0
ENDCHAR
STARTCHAR 2FF5
ENCODING 12277
SWIDTH 1000 0
DWIDTH 12 0
BBX 10 6 1 1
BITMAP
8040
9E40
0000
0000
8040
8040
ENDCHAR
STARTCHAR 2FF6
ENCODING 12278
SWIDTH 1000 0
DWIDTH 12 0
BBX 1 6 10 1
BITMAP
80
80
00
00
80
80
ENDCHAR
STARTCHAR 2FF7
ENCODING 12279
SWIDTH 1000 0
DWIDTH 12 0
BBX 10 6 1 1
BITMAP
8040
8040
0000
0000
8040
9FC0
ENDCHAR
STARTCHAR 2FF8
ENCODING 12280
SWIDTH 1000 0
DWIDTH 12 0
BBX 10 6 1 1
BITMAP
8040
8040
0000
0000
8040
8040
ENDCHAR
STARTCHAR 2FF9
ENCODING 12281
SWIDTH 1000 0
DWIDTH 12 0
BBX 10 6 1 1
BITMAP
8040
E640
0000
0000
8040
8040
ENDCHAR
STARTCHAR 2FFA
ENCODING 12282
SWIDTH 1000 0
DWIDTH 12 0
BBX 7 6 4 1
BITMAP
02
02
02
00
02
FE
ENDCHAR
STARTCHAR 2FFB
ENCODING 12283
SWIDTH 1000 0
DWIDTH 12 0
BBX 4 1 4 2
BITMAP
F0
ENDCHAR
STARTCHAR 3000
ENCODING 12288
SWIDTH 1000 0
DWIDTH 12 0
BBX 0 0 0 0
BITMAP
ENDCHAR
STARTCHAR 3001
ENCODING 12289
SWIDTH 1000 0
DWIDTH 12 0
BBX 2 3 1 -1
BITMAP
80
40
40
ENDCHAR
STARTCHAR 3002
ENCODING 12290
SWIDTH 1000 0
DWIDTH 12 0
BBX 2 3 1 -1
BITMAP
C0
40
C0
ENDCHAR
STARTCHAR 3003
ENCODING 12291
SWIDTH 1000 0
DWIDTH 12 0
BBX 5 5 3 3
BITMAP
28
48
50
90
A0
ENDCHAR
STARTCHAR 3004
ENCODING 12292
SWIDTH 1000 0
DWIDTH 12 0
BBX 12 11 0 -1
BITMAP
1800
21C0
4120
8120
8320
8410
9C20
5020
6820
3840
0380
ENDCHAR
STARTCHAR 3005
ENCODING 12293
SWIDTH 1000 0
DWIDTH 12 0
BBX 7 7 2 2
BITMAP
10
22
3E
44
A8
18
04
ENDCHAR
STARTCHAR 3006
ENCODING 12294
SWIDTH 1000 0
DWIDTH 12 0
BBX 8 9 2 0
BITMAP
01
02
04
38
58
A4
A0
C0
80
ENDCHAR
STARTCHAR 3007
ENCODING 12295
SWIDTH 1000 0
DWIDTH 12 0
BBX 10 9 1 0
BITMAP
3E00
4180
8080
8040
8040
8040
4080
6180
1E00
ENDCHAR
STARTCHAR 3008
ENCODING 12296
SWIDTH 1000 0
DWIDTH 12 0
BBX 4 11 7 -1
BITMAP
10
20
40
40
80
80
80
40
20
20
10
ENDCHAR
STARTCHAR 3009
ENCODING 12297
SWIDTH 1000 0
DWIDTH 12 0
BBX 4 11 1 -1
BITMAP
80
80
40
20
10
10
10
20
40
80
80
ENDCHAR
STARTCHAR 300A
ENCODING 12298
SWIDTH 1000 0
DWIDTH 12 0
BBX 5 11 6 -1
BITMAP
10
28
30
50
A0
A0
60
50
30
28
10
ENDCHAR
STARTCHAR 300B
ENCODING 12299
SWIDTH 1000 0
DWIDTH 12 0
BBX 5 11 1 -1
BITMAP
40
C0
A0
60
30
28
50
60
A0
C0
40
ENDCHAR
STARTCHAR 300C
ENCODING 12300
SWIDTH 1000 0
DWIDTH 12 0
BBX 3 9 8 1
BITMAP
E0
80
80
80
80
80
80
80
80
ENDCHAR
STARTCHAR 300D
ENCODING 12301
SWIDTH 1000 0
DWIDTH 12 0
BBX 3 9 1 -1
BITMAP
20
20
20
20
20
20
20
20
E0
ENDCHAR
STARTCHAR 300E
ENCODING 12302
SWIDTH 1000 0
DWIDTH 12 0
BBX 4 9 7 1
BITMAP
F0
F0
C0
C0
C0
C0
C0
C0
C0
ENDCHAR
STARTCHAR 300F
ENCODING 12303
SWIDTH 1000 0
DWIDTH 12 0
BBX 4 9 1 -1
BITMAP
30
30
30
30
30
30
F0
90
F0
ENDCHAR
STARTCHAR 3010
ENCODING 12304
SWIDTH 1000 0
DWIDTH 12 0
BBX 3 11 8 -1
BITMAP
E0
C0
80
80
80
80
80
80
80
C0
E0
ENDCHAR
STARTCHAR 3011
ENCODING 12305
SWIDTH 1000 0
DWIDTH 12 0
BBX 2 11 2 -1
BITMAP
C0
C0
40
40
40
40
40
40
40
C0
C0
ENDCHAR
STARTCHAR 3012
ENCODING 12306
SWIDTH 1000 0
DWIDTH 12 0
BBX 8 10 2 -1
BITMAP
FF
00
00
FF
18
18
18
18
18
18
ENDCHAR
STARTCHAR 3013
ENCODING 12307
SWIDTH 1000 0
DWIDTH 12 0
BBX 8 5 2 2
BITMAP
FF
00
00
FF
FF
ENDCHAR
STARTCHAR 3014
ENCODING 12308
SWIDTH 1000 0
DWIDTH 12 0
BBX 2 11 9 -1
BITMAP
40
80
00
00
00
00
00
00
00
00
C0
ENDCHAR
STARTCHAR 3015
ENCODING 12309
SWIDTH 1000 0
DWIDTH 12 0
BBX 3 11 1 -1
BITMAP
80
60
20
20
20
20
20
20
20
20
C0
ENDCHAR
STARTCHAR 3016
ENCODING 12310
SWIDTH 1000 0
DWIDTH 12 0
BBX 3 11 8 -1
BITMAP
E0
C0
80
80
80
80
80
80
80
C0
E0
ENDCHAR
STARTCHAR 3017
ENCODING 12311
SWIDTH 1000 0
DWIDTH 12 0
BBX 3 11 1 -1
BITMAP
60
A0
60
60
60
60
60
60
60
A0
60
ENDCHAR
STARTCHAR 3018
ENCODING 12312
SWIDTH 1000 0
DWIDTH 12 0
BBX 3 11 8 -1
BITMAP
20
E0
C0
80
80
80
80
80
C0
A0
60
ENDCHAR
STARTCHAR 3019
ENCODING 12313
SWIDTH 1000 0
DWIDTH 12 0
BBX 3 11 1 -1
BITMAP
80
E0
60
60
60
60
60
60
60
A0
C0
ENDCHAR
STARTCHAR 301C
ENCODING 12316
SWIDTH 1000 0
DWIDTH 12 0
BBX 9 3 1 3
BITMAP
7000
8C80
0300
ENDCHAR
STARTCHAR 301D
ENCODING 12317
SWIDTH 1000 0
DWIDTH 12 0
BBX 2 4 8 5
BITMAP
80
40
80
40
ENDCHAR
STARTCHAR 301F
ENCODING 12319
SWIDTH 1000 0
DWIDTH 12 0
BBX 2 4 2 0
BITMAP
80
40
80
40
ENDCHAR
STARTCHAR 3020
ENCODING 12320
SWIDTH 1000 0
DWIDTH 12 0
BBX 10 8 1 0
BITMAP
7F80
0000
7F80
8C40
AD40
8C40
9280
7F00
ENDCHAR
STARTCHAR 3033
ENCODING 12339
SWIDTH 1000 0
DWIDTH 12 0
BBX 4 9 3 0
BITMAP
10
10
10
20
20
40
40
80
80
ENDCHAR
STARTCHAR 3034
ENCODING 12340
SWIDTH 1000 0
DWIDTH 12 0
BBX 7 9 3 0
BITMAP
10
10
10
20
20
4E
44
80
80
ENDCHAR
STARTCHAR 3035
ENCODING 12341
SWIDTH 1000 0
DWIDTH 12 0
BBX 5 11 3 0
BITMAP
80
80
80
40
20
20
10
10
08
08
08
ENDCHAR
STARTCHAR 3036
ENCODING 12342
SWIDTH 1000 0
DWIDTH 12 0
BBX 12 12 0 -2
BITMAP
0F00
30C0
4020
BFE0
8020
BFD0
8610
8620
8620
4620
30C0
0F00
ENDCHAR
STARTCHAR 303B
ENCODING 12347
SWIDTH 1000 0
DWIDTH 12 0
BBX 4 7 4 1
BITMAP
40
20
40
80
40
30
C0
ENDCHAR
STARTCHAR 303C
ENCODING 12348
SWIDTH 1000 0
DWIDTH 12 0
BBX 10 11 1 -1
BITMAP
FFC0
80C0
8140
8240
8440
8840
9040
A040
C040
8040
FFC0
ENDCHAR
STARTCHAR 303D
ENCODING 12349
SWIDTH 1000 0
DWIDTH 12 0
BBX 8 10 2 -1
BITMAP
40
A8
34
04
04
02
02
02
01
01
ENDCHAR
STARTCHAR 3041
ENCODING 12353
SWIDTH 1000 0
DWIDTH 12 0
BBX 8 7 2 1
BITMAP
10
78
28
3E
F1
91
F6
ENDCHAR
STARTCHAR 3042
ENCODING 12354
SWIDTH 1000 0
DWIDTH 12 0
BBX 10 9 1 1
BITMAP
0800
7600
1800
0F00
3480
5440
8840
9080
6B00
ENDCHAR
STARTCHAR 3043
ENCODING 12355
SWIDTH 1000 0
DWIDTH 12 0
BBX 8 6 2 0
BITMAP
84
82
81
81
60
20
ENDCHAR
STARTCHAR 3044
ENCODING 12356
SWIDTH 1000 0
DWIDTH 12 0
BBX 9 8 2 0
BITMAP
8000
8200
8100
8080
A080
A000
6000
6000
ENDCHAR
STARTCHAR 3045
ENCODING 12357
SWIDTH 1000 0
DWIDTH 12 0
BBX 5 8 3 0
BITMAP
30
20
F8
08
08
08
10
60
ENDCHAR
STARTCHAR 3046
ENCODING 12358
SWIDTH 1000 0
DWIDTH 12 0
BBX 6 10 3 0
BITMAP
40
38
00
38
C4
04
04
04
08
30
ENDCHAR
STARTCHAR 3047
ENCODING 12359
SWIDTH 1000 0
DWIDTH 12 0
BBX 7 7 3 1
BITMAP
30
00
F8
10
30
50
9E
ENDCHAR
STARTCHAR 3048
ENCODING 12360
SWIDTH 1000 0
DWIDTH 12 0
BBX 9 9 2 1
BITMAP
1C00
0000
0C00
7800
1000
3800
6800
8400
8780
ENDCHAR
STARTCHAR 3049
ENCODING 12361
SWIDTH 1000 0
DWIDTH 12 0
BBX 8 7 2 0
BITMAP
20
7B
21
3E
22
E2
6E
ENDCHAR
STARTCHAR 304A
ENCODING 12362
SWIDTH 1000 0
DWIDTH 12 0
BBX 10 9 1 0
BITMAP
1000
1180
7840
2000
2F00
3080
6080
A080
6700
ENDCHAR
STARTCHAR 304B
ENCODING 12363
SWIDTH 1000 0
DWIDTH 12 0
BBX 10 9 1 0
BITMAP
1000
1000
1C80
E440
2440
24C0
4400
5400
8800
ENDCHAR
STARTCHAR 304C
ENCODING 12364
SWIDTH 1000 0
DWIDTH 12 0
BBX 11 10 1 0
BITMAP
0040
10A0
1000
1C80
E440
2440
24C0
4400
4400
8800
ENDCHAR
STARTCHAR 304D
ENCODING 12365
SWIDTH 1000 0
DWIDTH 12 0
BBX 8 10 2 0
BITMAP
30
16
78
09
FE
04
04
7E
80
7E
ENDCHAR
STARTCHAR 304E
ENCODING 12366
SWIDTH 1000 0
DWIDTH 12 0
BBX 10 10 2 0
BITMAP
20C0
1100
FC00
1100
FE00
0400
0400
7E00
8000
7C00
ENDCHAR
STARTCHAR 304F
ENCODING 12367
SWIDTH 1000 0
DWIDTH 12 0
BBX 5 10 3 0
BITMAP
08
10
60
80
80
40
20
10
08
08
ENDCHAR
STARTCHAR 3050
ENCODING 12368
SWIDTH 1000 0
DWIDTH 12 0
BBX 8 10 3 0
BITMAP
08
12
65
84
80
40
20
10
08
08
ENDCHAR
STARTCHAR 3051
ENCODING 12369
SWIDTH 1000 0
DWIDTH 12 0
BBX 9 11 2 -1
BITMAP
0600
8200
8200
9F80
8200
8200
8200
C200
8400
8400
0800
ENDCHAR
STARTCHAR 3052
ENCODING 12370
SWIDTH 1000 0
DWIDTH 12 0
BBX 10 11 2 -1
BITMAP
05C0
8280
8200
9F80
8200
8200
C200
8200
8400
8400
0800
ENDCHAR
STARTCHAR 3053
ENCODING 12371
SWIDTH 1000 0
DWIDTH 12 0
BBX 8 8 2 1
BITMAP
40
3E
10
00
00
00
80
7F
ENDCHAR
STARTCHAR 3054
ENCODING 12372
SWIDTH 1000 0
DWIDTH 12 0
BBX 10 10 2 0
BITMAP
0080
4140
3E00
1000
0000
0000
0000
8000
4100
3E00
ENDCHAR
STARTCHAR 3055
ENCODING 12373
SWIDTH 1000 0
DWIDTH 12 0
BBX 8 9 2 0
BITMAP
10
13
FC
04
04
7E
80
40
3E
ENDCHAR
STARTCHAR 3056
ENCODING 12374
SWIDTH 1000 0
DWIDTH 12 0
BBX 10 10 2 0
BITMAP
00C0
1180
1200
FC00
0800
0400
7E00
8000
8000
7C00
ENDCHAR
STARTCHAR 3057
ENCODING 12375
SWIDTH 1000 0
DWIDTH 12 0
BBX 7 9 3 0
BITMAP
80
80
80
80
80
82
82
84
78
ENDCHAR
STARTCHAR 3058
ENCODING 12376
SWIDTH 1000 0
DWIDTH 12 0
BBX 7 9 3 0
BITMAP
80
84
88
80
80
82
82
84
78
ENDCHAR
STARTCHAR 3059
ENCODING 12377
SWIDTH 1000 0
DWIDTH 12 0
BBX 10 11 1 -1
BITMAP
0C00
0400
07C0
FC00
1C00
1400
1400
1C00
0400
0800
1000
ENDCHAR
STARTCHAR 305A
ENCODING 12378
SWIDTH 1000 0
DWIDTH 12 0
BBX 10 11 1 -1
BITMAP
0C40
0480
07C0
FC00
1C00
1400
1400
1C00
0400
0800
1000
ENDCHAR
STARTCHAR 305B
ENCODING 12379
SWIDTH 1000 0
DWIDTH 12 0
BBX 10 9 1 0
BITMAP
0100
2200
2240
FF80
2200
2200
2200
2000
1F80
ENDCHAR
STARTCHAR 305C
ENCODING 12380
SWIDTH 1000 0
DWIDTH 12 0
BBX 12 10 0 0
BITMAP
0030
00E0
1100
1160
FF80
1100
1300
1100
1000
0FC0
ENDCHAR
STARTCHAR 305D
ENCODING 12381
SWIDTH 1000 0
DWIDTH 12 0
BBX 10 9 1 0
BITMAP
3E00
0400
0800
13C0
FC00
0800
0800
0800
0600
ENDCHAR
STARTCHAR 305E
ENCODING 12382
SWIDTH 1000 0
DWIDTH 12 0
BBX 11 10 1 0
BITMAP
0040
3EA0
0480
0800
1380
FC00
0800
1000
1000
0E00
ENDCHAR
STARTCHAR 305F
ENCODING 12383
SWIDTH 1000 0
DWIDTH 12 0
BBX 10 10 1 0
BITMAP
1000
1000
1400
7800
2380
2600
2000
4000
4800
87C0
ENDCHAR
STARTCHAR 3060
ENCODING 12384
SWIDTH 1000 0
DWIDTH 12 0
BBX 10 9 1 1
BITMAP
1040
1080
7C00
2380
2600
2000
4000
4800
87C0
ENDCHAR
STARTCHAR 3061
ENCODING 12385
SWIDTH 1000 0
DWIDTH 12 0
BBX 8 9 2 1
BITMAP
20
2C
F0
40
5E
61
41
01
0E
ENDCHAR
STARTCHAR 3062
ENCODING 12386
SWIDTH 1000 0
DWIDTH 12 0
BBX 9 10 2 0
BITMAP
0100
2280
2500
F800
4000
4000
5E00
6100
0100
0E00
ENDCHAR
STARTCHAR 3063
ENCODING 12387
SWIDTH 1000 0
DWIDTH 12 0
BBX 8 5 2 0
BITMAP
3E
C1
01
02
0C
ENDCHAR
STARTCHAR 3064
ENCODING 12388
SWIDTH 1000 0
DWIDTH 12 0
BBX 10 7 1 1
BITMAP
0F00
3080
C040
0040
0080
0180
0E00
ENDCHAR
STARTCHAR 3065
ENCODING 12389
SWIDTH 1000 0
DWIDTH 12 0
BBX 11 9 1 1
BITMAP
0040
00A0
0040
1F80
E080
0080
0080
0080
0F00
ENDCHAR
STARTCHAR 3066
ENCODING 12390
SWIDTH 1000 0
DWIDTH 12 0
BBX 9 9 1 0
BITMAP
0380
9C00
E800
0800
1000
1000
1000
0800
0700
ENDCHAR
STARTCHAR 3067
ENCODING 12391
SWIDTH 1000 0
DWIDTH 12 0
BBX 10 9 1 0
BITMAP
0380
1C00
E880
0940
1080
1000
1000
0800
0700
ENDCHAR
STARTCHAR 3068
ENCODING 12392
SWIDTH 1000 0
DWIDTH 12 0
BBX 7 9 3 0
BITMAP
40
40
44
58
60
80
80
80
FE
ENDCHAR
STARTCHAR 3069
ENCODING 12393
SWIDTH 1000 0
DWIDTH 12 0
BBX 9 10 2 0
BITMAP
0080
2180
2100
2200
2C00
3000
4000
8000
8000
7F00
ENDCHAR
STARTCHAR 306A
ENCODING 12394
SWIDTH 1000 0
DWIDTH 12 0
BBX 10 9 1 0
BITMAP
1000
1C00
6080
2040
4200
4200
8200
1F80
1E40
ENDCHAR
STARTCHAR 306B
ENCODING 12395
SWIDTH 1000 0
DWIDTH 12 0
BBX 8 9 2 0
BITMAP
80
9F
88
80
80
C0
90
8F
80
ENDCHAR
STARTCHAR 306C
ENCODING 12396
SWIDTH 1000 0
DWIDTH 12 0
BBX 10 9 1 0
BITMAP
0400
4400
5B00
2880
6880
B040
9380
B4C0
C340
ENDCHAR
STARTCHAR 306D
ENCODING 12397
SWIDTH 1000 0
DWIDTH 12 0
BBX 10 9 1 1
BITMAP
1000
2000
F700
2880
3080
6080
A380
A4C0
2740
ENDCHAR
STARTCHAR 306E
ENCODING 12398
SWIDTH 1000 0
DWIDTH 12 0
BBX 10 8 1 0
BITMAP
3F00
4880
8840
8840
9040
9080
6100
0600
ENDCHAR
STARTCHAR 306F
ENCODING 12399
SWIDTH 1000 0
DWIDTH 12 0
BBX 9 9 2 0
BITMAP
8200
8200
9F80
8400
8200
C200
9E00
A380
9C00
ENDCHAR
STARTCHAR 3070
ENCODING 12400
SWIDTH 1000 0
DWIDTH 12 0
BBX 10 10 2 0
BITMAP
00C0
8580
8400
BD00
8600
8400
8400
9C00
A700
9C80
ENDCHAR
STARTCHAR 3071
ENCODING 12401
SWIDTH 1000 0
DWIDTH 12 0
BBX 9 10 2 0
BITMAP
0180
8780
8400
9B00
8400
8400
8400
9C00
A780
9C00
ENDCHAR
STARTCHAR 3072
ENCODING 12402
SWIDTH 1000 0
DWIDTH 12 0
BBX 10 9 1 0
BITMAP
1200
F100
2300
4180
4140
4100
4200
4200
3C00
ENDCHAR
STARTCHAR 3073
ENCODING 12403
SWIDTH 1000 0
DWIDTH 12 0
BBX 11 10 1 0
BITMAP
0060
1AC0
F100
2300
4180
4140
4100
4200
4200
3C00
ENDCHAR
STARTCHAR 3074
ENCODING 12404
SWIDTH 1000 0
DWIDTH 12 0
BBX 10 10 1 0
BITMAP
00C0
1AC0
F100
2300
4180
4140
4100
4200
4200
3C00
ENDCHAR
STARTCHAR 3075
ENCODING 12405
SWIDTH 1000 0
DWIDTH 12 0
BBX 10 9 1 0
BITMAP
0800
0600
0800
1000
0900
0480
6240
8240
1E00
ENDCHAR
STARTCHAR 3076
ENCODING 12406
SWIDTH 1000 0
DWIDTH 12 0
BBX 10 9 1 0
BITMAP
0840
0680
0800
1000
0900
0480
6240
8240
1E00
ENDCHAR
STARTCHAR 3077
ENCODING 12407
SWIDTH 1000 0
DWIDTH 12 0
BBX 10 9 1 0
BITMAP
10C0
0EC0
0800
1000
0900
0480
6240
8240
1E00
ENDCHAR
STARTCHAR 3078
ENCODING 12408
SWIDTH 1000 0
DWIDTH 12 0
BBX 10 5 1 2
BITMAP
1800
2400
4200
C180
0040
ENDCHAR
STARTCHAR 3079
ENCODING 12409
SWIDTH 1000 0
DWIDTH 12 0
BBX 10 7 1 2
BITMAP
0280
1900
2400
6200
C100
0080
0040
ENDCHAR
STARTCHAR 307A
ENCODING 12410
SWIDTH 1000 0
DWIDTH 12 0
BBX 10 7 1 2
BITMAP
0180
0280
1980
2400
4200
C180
00C0
ENDCHAR
STARTCHAR 307B
ENCODING 12411
SWIDTH 1000 0
DWIDTH 12 0
BBX 9 9 2 0
BITMAP
9F00
8400
8400
9F80
8400
C400
9C00
A380
9C00
ENDCHAR
STARTCHAR 307C
ENCODING 12412
SWIDTH 1000 0
DWIDTH 12 0
BBX 11 10 1 0
BITMAP
00E0
4040
4E00
4200
9DC0
8200
8200
CE00
5380
4E40
ENDCHAR
STARTCHAR 307D
ENCODING 12413
SWIDTH 1000 0
DWIDTH 12 0
BBX 11 10 1 0
BITMAP
0060
4060
4E00
4200
9DC0
8200
8200
CE00
5380
4E40
ENDCHAR
STARTCHAR 307E
ENCODING 12414
SWIDTH 1000 0
DWIDTH 12 0
BBX 8 9 2 0
BITMAP
10
F3
1C
10
7C
10
10
7E
71
ENDCHAR
STARTCHAR 307F
ENCODING 12415
SWIDTH 1000 0
DWIDTH 12 0
BBX 10 9 1 0
BITMAP
3C00
0400
0800
0880
3D00
D300
A1C0
C240
0400
ENDCHAR
STARTCHAR 3080
ENCODING 12416
SWIDTH 1000 0
DWIDTH 12 0
BBX 10 10 1 0
BITMAP
3000
2000
ED00
3080
2040
60C0
A100
6100
2100
3F00
ENDCHAR
STARTCHAR 3081
ENCODING 12417
SWIDTH 1000 0
DWIDTH 12 0
BBX 10 9 1 0
BITMAP
0400
4400
5F00
2880
E840
B040
9080
E080
0300
ENDCHAR
STARTCHAR 3082
ENCODING 12418
SWIDTH 1000 0
DWIDTH 12 0
BBX 8 10 2 0
BITMAP
20
20
20
F8
20
20
F1
41
23
1E
ENDCHAR
STARTCHAR 3083
ENCODING 12419
SWIDTH 1000 0
DWIDTH 12 0
BBX 8 8 2 0
BITMAP
10
48
2F
31
E6
10
10
08
ENDCHAR
STARTCHAR 3084
ENCODING 12420
SWIDTH 1000 0
DWIDTH 12 0
BBX 10 10 1 -1
BITMAP
6C00
2000
2780
3840
D040
1380
0800
0800
0400
0400
ENDCHAR
STARTCHAR 3085
ENCODING 12421
SWIDTH 1000 0
DWIDTH 12 0
BBX 8 8 2 -1
BITMAP
08
08
9E
A9
C9
49
5E
10
ENDCHAR
STARTCHAR 3086
ENCODING 12422
SWIDTH 1000 0
DWIDTH 12 0
BBX 9 10 2 -1
BITMAP
0800
0800
8E00
B900
C880
C880
8900
9900
8E00
1000
ENDCHAR
STARTCHAR 3087
ENCODING 12423
SWIDTH 1000 0
DWIDTH 12 0
BBX 6 7 3 0
BITMAP
20
20
38
20
20
F8
E4
ENDCHAR
STARTCHAR 3088
ENCODING 12424
SWIDTH 1000 0
DWIDTH 12 0
BBX 8 9 2 0
BITMAP
10
10
16
18
10
10
70
9E
71
ENDCHAR
STARTCHAR 3089
ENCODING 12425
SWIDTH 1000 0
DWIDTH 12 0
BBX 7 10 3 0
BITMAP
40
20
18
80
80
9C
E2
82
06
38
ENDCHAR
STARTCHAR 308A
ENCODING 12426
SWIDTH 1000 0
DWIDTH 12 0
BBX 6 9 3 0
BITMAP
40
98
E8
C4
84
84
08
08
30
ENDCHAR
STARTCHAR 308B
ENCODING 12427
SWIDTH 1000 0
DWIDTH 12 0
BBX 8 9 2 0
BITMAP
7C
08
10
20
7E
C1
81
31
3E
ENDCHAR
STARTCHAR 308C
ENCODING 12428
SWIDTH 1000 0
DWIDTH 12 0
BBX 11 9 1 0
BITMAP
1000
2300
F500
3900
2100
6120
A140
A0C0
2000
ENDCHAR
STARTCHAR 308D
ENCODING 12429
SWIDTH 1000 0
DWIDTH 12 0
BBX 8 9 2 0
BITMAP
0C
78
10
20
5E
E1
81
01
1E
ENDCHAR
STARTCHAR 308E
ENCODING 12430
SWIDTH 1000 0
DWIDTH 12 0
BBX 8 7 2 0
BITMAP
20
20
EE
31
61
E2
2C
ENDCHAR
STARTCHAR 308F
ENCODING 12431
SWIDTH 1000 0
DWIDTH 12 0
BBX 10 9 1 0
BITMAP
1000
2000
F780
2880
3040
6040
6080
E180
2600
ENDCHAR
STARTCHAR 3090
ENCODING 12432
SWIDTH 1000 0
DWIDTH 12 0
BBX 10 9 1 0
BITMAP
3C00
0400
0800
0F00
3880
5040
9040
A680
C700
ENDCHAR
STARTCHAR 3091
ENCODING 12433
SWIDTH 1000 0
DWIDTH 12 0
BBX 10 9 1 0
BITMAP
3E00
0C00
1F00
2100
5900
1E00
1000
7380
CC40
ENDCHAR
STARTCHAR 3092
ENCODING 12434
SWIDTH 1000 0
DWIDTH 12 0
BBX 8 9 2 0
BITMAP
10
EC
30
71
4E
98
28
48
3F
ENDCHAR
STARTCHAR 3093
ENCODING 12435
SWIDTH 1000 0
DWIDTH 12 0
BBX 10 9 1 0
BITMAP
0800
0800
1000
1000
2000
3840
4440
4480
8700
ENDCHAR
STARTCHAR 3094
ENCODING 12436
SWIDTH 1000 0
DWIDTH 12 0
BBX 8 10 3 0
BITMAP
3D
42
38
C4
04
04
04
08
10
20
ENDCHAR
STARTCHAR 3095
ENCODING 12437
SWIDTH 1000 0
DWIDTH 12 0
BBX 8 7 2 0
BITMAP
10
20
FB
49
49
48
90
ENDCHAR
STARTCHAR 3096
ENCODING 12438
SWIDTH 1000 0
DWIDTH 12 0
BBX 7 9 3 -1
BITMAP
08
88
8A
BC
88
88
88
88
10
ENDCHAR
STARTCHAR 3099
ENCODING 12441
SWIDTH 1000 0
DWIDTH 12 0
BBX 2 2 9 8
BITMAP
40
C0
ENDCHAR
STARTCHAR 309A
ENCODING 12442
SWIDTH 1000 0
DWIDTH 12 0
BBX 2 2 9 8
BITMAP
C0
C0
ENDCHAR
STARTCHAR 309B
ENCODING 12443
SWIDTH 1000 0
DWIDTH 12 0
BBX 2 2 1 8
BITMAP
40
C0
ENDCHAR
STARTCHAR 309C
ENCODING 12444
SWIDTH 1000 0
DWIDTH 12 0
BBX 2 2 1 8
BITMAP
C0
C0
ENDCHAR
STARTCHAR 309D
ENCODING 12445
SWIDTH 1000 0
DWIDTH 12 0
BBX 4 6 4 1
BITMAP
80
80
40
20
10
70
ENDCHAR
STARTCHAR 309E
ENCODING 12446
SWIDTH 1000 0
DWIDTH 12 0
BBX 6 7 4 1
BITMAP
0C
90
80
60
30
30
C0
ENDCHAR
STARTCHAR 309F
ENCODING 12447
SWIDTH 1000 0
DWIDTH 12 0
BBX 8 10 2 0
BITMAP
10
1F
20
20
5C
64
84
44
48
30
ENDCHAR
STARTCHAR 30A0
ENCODING 12448
SWIDTH 1000 0
DWIDTH 12 0
BBX 6 3 3 3
BITMAP
FC
00
FC
ENDCHAR
STARTCHAR 30A1
ENCODING 12449
SWIDTH 1000 0
DWIDTH 12 0
BBX 7 7 3 0
BITMAP
CE
34
38
20
20
20
40
ENDCHAR
STARTCHAR 30A2
ENCODING 12450
SWIDTH 1000 0
DWIDTH 12 0
BBX 8 9 2 0
BITMAP
03
FD
06
08
08
10
10
20
60
ENDCHAR
STARTCHAR 30A3
ENCODING 12451
SWIDTH 1000 0
DWIDTH 12 0
BBX 5 7 3 0
BITMAP
08
18
30
D0
10
10
10
ENDCHAR
STARTCHAR 30A4
ENCODING 12452
SWIDTH 1000 0
DWIDTH 12 0
BBX 7 9 2 0
BITMAP
02
04
08
38
48
88
08
08
08
ENDCHAR
STARTCHAR 30A5
ENCODING 12453
SWIDTH 1000 0
DWIDTH 12 0
BBX 6 7 3 0
BITMAP
20
FC
84
84
08
10
20
ENDCHAR
STARTCHAR 30A6
ENCODING 12454
SWIDTH 1000 0
DWIDTH 12 0
BBX 8 9 2 0
BITMAP
10
93
6D
42
42
02
04
08
10
ENDCHAR
STARTCHAR 30A7
ENCODING 12455
SWIDTH 1000 0
DWIDTH 12 0
BBX 8 5 2 1
BITMAP
7E
10
10
10
FF
ENDCHAR
STARTCHAR 30A8
ENCODING 12456
SWIDTH 1000 0
DWIDTH 12 0
BBX 10 7 1 1
BITMAP
4180
3E00
0800
0800
0800
8BC0
7400
ENDCHAR
STARTCHAR 30A9
ENCODING 12457
SWIDTH 1000 0
DWIDTH 12 0
BBX 8 7 2 0
BITMAP
08
0B
7C
18
28
48
88
ENDCHAR
STARTCHAR 30AA
ENCODING 12458
SWIDTH 1000 0
DWIDTH 12 0
BBX 9 9 2 0
BITMAP
0400
0400
FF80
0C00
1400
2400
4400
9400
0C00
ENDCHAR
STARTCHAR 30AB
ENCODING 12459
SWIDTH 1000 0
DWIDTH 12 0
BBX 8 9 2 0
BITMAP
08
10
FF
11
11
22
22
4A
84
ENDCHAR
STARTCHAR 30AC
ENCODING 12460
SWIDTH 1000 0
DWIDTH 12 0
BBX 10 10 2 0
BITMAP
00C0
0980
1000
EF00
1100
1100
2200
2200
4A00
8400
ENDCHAR
STARTCHAR 30AD
ENCODING 12461
SWIDTH 1000 0
DWIDTH 12 0
BBX 9 9 2 0
BITMAP
1000
1200
FC00
1000
1380
EC00
0800
0800
0400
ENDCHAR
STARTCHAR 30AE
ENCODING 12462
SWIDTH 1000 0
DWIDTH 12 0
BBX 9 10 2 0
BITMAP
0080
1100
1200
FC00
1000
1380
EC00
0800
0800
0800
ENDCHAR
STARTCHAR 30AF
ENCODING 12463
SWIDTH 1000 0
DWIDTH 12 0
BBX 8 9 2 0
BITMAP
08
17
2A
42
84
04
08
10
60
ENDCHAR
STARTCHAR 30B0
ENCODING 12464
SWIDTH 1000 0
DWIDTH 12 0
BBX 10 10 2 0
BITMAP
00C0
1180
1200
2E00
4200
8400
0800
0800
3000
4000
ENDCHAR
STARTCHAR 30B1
ENCODING 12465
SWIDTH 1000 0
DWIDTH 12 0
BBX 10 9 1 0
BITMAP
1000
1000
3FC0
4400
8400
0400
0400
0800
1000
ENDCHAR
STARTCHAR 30B2
ENCODING 12466
SWIDTH 1000 0
DWIDTH 12 0
BBX 11 10 1 0
BITMAP
0060
10C0
1000
3FC0
4400
8400
0400
0800
0800
1000
ENDCHAR
STARTCHAR 30B3
ENCODING 12467
SWIDTH 1000 0
DWIDTH 12 0
BBX 7 7 2 1
BITMAP
82
7E
02
02
02
82
7C
ENDCHAR
STARTCHAR 30B4
ENCODING 12468
SWIDTH 1000 0
DWIDTH 12 0
BBX 9 9 3 1
BITMAP
0100
0280
0500
FC00
0400
0400
0400
0400
FC00
ENDCHAR
STARTCHAR 30B5
ENCODING 12469
SWIDTH 1000 0
DWIDTH 12 0
BBX 10 9 1 0
BITMAP
3200
1200
12C0
FF00
1200
1200
0200
0400
0800
ENDCHAR
STARTCHAR 30B6
ENCODING 12470
SWIDTH 1000 0
DWIDTH 12 0
BBX 11 10 1 0
BITMAP
0060
22C0
1200
12C0
FF00
1200
1200
0200
0400
0800
ENDCHAR
STARTCHAR 30B7
ENCODING 12471
SWIDTH 1000 0
DWIDTH 12 0
BBX 9 9 2 0
BITMAP
6000
1000
0080
C100
4200
0200
0C00
9000
6000
ENDCHAR
STARTCHAR 30B8
ENCODING 12472
SWIDTH 1000 0
DWIDTH 12 0
BBX 9 10 2 0
BITMAP
0080
4180
3100
0080
C100
4200
0200
0C00
1000
6000
ENDCHAR
STARTCHAR 30B9
ENCODING 12473
SWIDTH 1000 0
DWIDTH 12 0
BBX 8 7 2 0
BITMAP
7E
04
04
08
14
23
C1
ENDCHAR
STARTCHAR 30BA
ENCODING 12474
SWIDTH 1000 0
DWIDTH 12 0
BBX 10 10 1 0
BITMAP
0040
0080
3F00
0200
0200
0400
0A00
1180
2080
C000
ENDCHAR
STARTCHAR 30BB
ENCODING 12475
SWIDTH 1000 0
DWIDTH 12 0
BBX 9 8 1 1
BITMAP
1000
1000
1180
1F00
F100
1200
1000
0F00
ENDCHAR
STARTCHAR 30BC
ENCODING 12476
SWIDTH 1000 0
DWIDTH 12 0
BBX 11 10 1 0
BITMAP
0040
10A0
1000
1180
1F00
F200
1000
1000
1000
0F80
ENDCHAR
STARTCHAR 30BD
ENCODING 12477
SWIDTH 1000 0
DWIDTH 12 0
BBX 8 9 2 0
BITMAP
01
C1
42
22
04
04
08
10
20
ENDCHAR
STARTCHAR 30BE
ENCODING 12478
SWIDTH 1000 0
DWIDTH 12 0
BBX 10 10 2 -1
BITMAP
01C0
0080
8300
4200
4200
0400
0400
0800
1000
2000
ENDCHAR
STARTCHAR 30BF
ENCODING 12479
SWIDTH 1000 0
DWIDTH 12 0
BBX 8 9 2 0
BITMAP
10
1F
22
42
8C
04
1A
20
40
ENDCHAR
STARTCHAR 30C0
ENCODING 12480
SWIDTH 1000 0
DWIDTH 12 0
BBX 10 10 2 0
BITMAP
00C0
1180
1F00
2200
4200
9400
0C00
1C00
2200
4000
ENDCHAR
STARTCHAR 30C1
ENCODING 12481
SWIDTH 1000 0
DWIDTH 12 0
BBX 10 9 1 0
BITMAP
0300
1C00
2400
85C0
7E00
0800
0800
1000
2000
ENDCHAR
STARTCHAR 30C2
ENCODING 12482
SWIDTH 1000 0
DWIDTH 12 0
BBX 10 10 2 0
BITMAP
00C0
0380
3C00
4800
0980
FE00
1000
1000
1000
2000
ENDCHAR
STARTCHAR 30C3
ENCODING 12483
SWIDTH 1000 0
DWIDTH 12 0
BBX 6 7 3 0
BITMAP
04
A4
A4
08
08
10
60
ENDCHAR
STARTCHAR 30C4
ENCODING 12484
SWIDTH 1000 0
DWIDTH 12 0
BBX 8 8 2 1
BITMAP
11
91
42
02
04
08
10
20
ENDCHAR
STARTCHAR 30C5
ENCODING 12485
SWIDTH 1000 0
DWIDTH 12 0
BBX 10 10 2 1
BITMAP
01C0
0080
2100
9100
5200
0200
0400
0800
1000
2000
ENDCHAR
STARTCHAR 30C6
ENCODING 12486
SWIDTH 1000 0
DWIDTH 12 0
BBX 9 9 2 0
BITMAP
7E00
0000
0000
FF80
0800
0800
1000
1000
2000
ENDCHAR
STARTCHAR 30C7
ENCODING 12487
SWIDTH 1000 0
DWIDTH 12 0
BBX 11 10 1 0
BITMAP
0060
03C0
3C00
0000
FFC0
0400
0800
0800
0800
1000
ENDCHAR
STARTCHAR 30C8
ENCODING 12488
SWIDTH 1000 0
DWIDTH 12 0
BBX 5 9 4 0
BITMAP
C0
80
80
60
98
88
80
80
40
ENDCHAR
STARTCHAR 30C9
ENCODING 12489
SWIDTH 1000 0
DWIDTH 12 0
BBX 6 9 4 0
BITMAP
84
88
80
60
90
88
80
80
80
ENDCHAR
STARTCHAR 30CA
ENCODING 12490
SWIDTH 1000 0
DWIDTH 12 0
BBX 8 9 2 0
BITMAP
08
08
08
FF
08
10
10
20
40
ENDCHAR
STARTCHAR 30CB
ENCODING 12491
SWIDTH 1000 0
DWIDTH 12 0
BBX 10 5 1 2
BITMAP
3F00
0000
0000
0000
FFC0
ENDCHAR
STARTCHAR 30CC
ENCODING 12492
SWIDTH 1000 0
DWIDTH 12 0
BBX 7 9 2 0
BITMAP
02
7E
04
24
18
0E
12
20
C0
ENDCHAR
STARTCHAR 30CD
ENCODING 12493
SWIDTH 1000 0
DWIDTH 12 0
BBX 9 11 1 -1
BITMAP
0800
0400
0000
3F00
0200
0400
1B00
2480
C400
0400
0400
ENDCHAR
STARTCHAR 30CE
ENCODING 12494
SWIDTH 1000 0
DWIDTH 12 0
BBX 7 9 2 0
BITMAP
04
02
04
04
08
08
10
60
80
ENDCHAR
STARTCHAR 30CF
ENCODING 12495
SWIDTH 1000 0
DWIDTH 12 0
BBX 10 6 1 1
BITMAP
1200
1100
2080
2080
4040
8000
ENDCHAR
STARTCHAR 30D0
ENCODING 12496
SWIDTH 1000 0
DWIDTH 12 0
BBX 10 8 1 1
BITMAP
0040
01C0
1200
1100
2080
2080
4040
8000
ENDCHAR
STARTCHAR 30D1
ENCODING 12497
SWIDTH 1000 0
DWIDTH 12 0
BBX 10 8 1 1
BITMAP
00C0
00C0
1200
1100
2080
2080
4040
8000
ENDCHAR
STARTCHAR 30D2
ENCODING 12498
SWIDTH 1000 0
DWIDTH 12 0
BBX 8 9 2 0
BITMAP
80
40
42
4C
70
40
40
40
3F
ENDCHAR
STARTCHAR 30D3
ENCODING 12499
SWIDTH 1000 0
DWIDTH 12 0
BBX 9 10 2 0
BITMAP
0080
8180
4100
4200
4C00
7000
4000
4000
4000
3F00
ENDCHAR
STARTCHAR 30D4
ENCODING 12500
SWIDTH 1000 0
DWIDTH 12 0
BBX 9 10 2 0
BITMAP
0180
8280
4180
4200
4C00
7000
4000
4000
4000
3F00
ENDCHAR
STARTCHAR 30D5
ENCODING 12501
SWIDTH 1000 0
DWIDTH 12 0
BBX 8 8 2 0
BITMAP
FF
01
02
02
04
08
10
60
ENDCHAR
STARTCHAR 30D6
ENCODING 12502
SWIDTH 1000 0
DWIDTH 12 0
BBX 10 10 2 0
BITMAP
00C0
0180
FF00
0200
0200
0400
0400
0800
1000
6000
ENDCHAR
STARTCHAR 30D7
ENCODING 12503
SWIDTH 1000 0
DWIDTH 12 0
BBX 10 10 2 0
BITMAP
00C0
00C0
FF00
0100
0200
0200
0400
0800
1000
2000
ENDCHAR
STARTCHAR 30D8
ENCODING 12504
SWIDTH 1000 0
DWIDTH 12 0
BBX 10 5 1 2
BITMAP
1800
2400
6200
C180
0040
ENDCHAR
STARTCHAR 30D9
ENCODING 12505
SWIDTH 1000 0
DWIDTH 12 0
BBX 10 7 1 2
BITMAP
0080
0140
1900
2400
6200
C180
0040
ENDCHAR
STARTCHAR 30DA
ENCODING 12506
SWIDTH 1000 0
DWIDTH 12 0
BBX 10 7 1 2
BITMAP
0180
0280
1980
2400
6200
C180
0040
ENDCHAR
STARTCHAR 30DB
ENCODING 12507
SWIDTH 1000 0
DWIDTH 12 0
BBX 9 9 2 0
BITMAP
1800
1000
F700
1800
1200
5100
9100
A880
1000
ENDCHAR
STARTCHAR 30DC
ENCODING 12508
SWIDTH 1000 0
DWIDTH 12 0
BBX 10 10 2 0
BITMAP
0080
1940
1100
1300
FC00
1200
5100
9100
A880
1000
ENDCHAR
STARTCHAR 30DD
ENCODING 12509
SWIDTH 1000 0
DWIDTH 12 0
BBX 9 10 2 0
BITMAP
0180
1A80
1180
1700
F800
1200
9100
9100
B080
1000
ENDCHAR
STARTCHAR 30DE
ENCODING 12510
SWIDTH 1000 0
DWIDTH 12 0
BBX 8 7 2 1
BITMAP
01
FF
02
04
38
08
04
ENDCHAR
STARTCHAR 30DF
ENCODING 12511
SWIDTH 1000 0
DWIDTH 12 0
BBX 6 9 3 0
BITMAP
60
18
00
60
18
00
E0
18
04
ENDCHAR
STARTCHAR 30E0
ENCODING 12512
SWIDTH 1000 0
DWIDTH 12 0
BBX 9 9 1 0
BITMAP
0800
0800
0800
1000
1200
2100
2080
FF80
0080
ENDCHAR
STARTCHAR 30E1
ENCODING 12513
SWIDTH 1000 0
DWIDTH 12 0
BBX 7 9 2 0
BITMAP
02
02
04
34
08
16
22
40
80
ENDCHAR
STARTCHAR 30E2
ENCODING 12514
SWIDTH 1000 0
DWIDTH 12 0
BBX 9 8 1 0
BITMAP
7F00
1000
1000
FF80
1000
1000
0800
0F80
ENDCHAR
STARTCHAR 30E3
ENCODING 12515
SWIDTH 1000 0
DWIDTH 12 0
BBX 8 8 2 -1
BITMAP
20
23
FE
14
10
10
10
08
ENDCHAR
STARTCHAR 30E4
ENCODING 12516
SWIDTH 1000 0
DWIDTH 12 0
BBX 8 9 2 0
BITMAP
20
20
2F
F1
16
10
10
10
08
ENDCHAR
STARTCHAR 30E5
ENCODING 12517
SWIDTH 1000 0
DWIDTH 12 0
BBX 8 5 2 1
BITMAP
7C
04
04
04
FF
ENDCHAR
STARTCHAR 30E6
ENCODING 12518
SWIDTH 1000 0
DWIDTH 12 0
BBX 9 7 2 1
BITMAP
0200
7E00
0400
0400
0400
0780
F800
ENDCHAR
STARTCHAR 30E7
ENCODING 12519
SWIDTH 1000 0
DWIDTH 12 0
BBX 6 6 3 0
BITMAP
7C
04
78
08
08
F0
ENDCHAR
STARTCHAR 30E8
ENCODING 12520
SWIDTH 1000 0
DWIDTH 12 0
BBX 6 7 3 1
BITMAP
FC
04
04
FC
04
04
FC
ENDCHAR
STARTCHAR 30E9
ENCODING 12521
SWIDTH 1000 0
DWIDTH 12 0
BBX 8 9 2 0
BITMAP
7E
00
03
FE
02
04
04
08
30
ENDCHAR
STARTCHAR 30EA
ENCODING 12522
SWIDTH 1000 0
DWIDTH 12 0
BBX 6 9 3 0
BITMAP
8C
88
88
88
88
88
08
10
20
ENDCHAR
STARTCHAR 30EB
ENCODING 12523
SWIDTH 1000 0
DWIDTH 12 0
BBX 10 9 1 0
BITMAP
0C00
2400
1400
2400
2440
2480
4500
4600
8000
ENDCHAR
STARTCHAR 30EC
ENCODING 12524
SWIDTH 1000 0
DWIDTH 12 0
BBX 7 9 3 0
BITMAP
80
80
80
82
84
8C
90
E0
C0
ENDCHAR
STARTCHAR 30ED
ENCODING 12525
SWIDTH 1000 0
DWIDTH 12 0
BBX 8 7 2 1
BITMAP
83
FE
82
82
42
42
7C
ENDCHAR
STARTCHAR 30EE
ENCODING 12526
SWIDTH 1000 0
DWIDTH 12 0
BBX 6 7 3 0
BITMAP
04
FC
84
88
08
10
20
ENDCHAR
STARTCHAR 30EF
ENCODING 12527
SWIDTH 1000 0
DWIDTH 12 0
BBX 8 9 2 0
BITMAP
01
FF
82
82
82
04
08
08
30
ENDCHAR
STARTCHAR 30F0
ENCODING 12528
SWIDTH 1000 0
DWIDTH 12 0
BBX 10 9 1 0
BITMAP
0400
0400
7F00
2400
2400
FFC0
0400
0400
0400
ENDCHAR
STARTCHAR 30F1
ENCODING 12529
SWIDTH 1000 0
DWIDTH 12 0
BBX 9 7 2 1
BITMAP
FE00
0600
1800
1000
1000
1180
EE00
ENDCHAR
STARTCHAR 30F2
ENCODING 12530
SWIDTH 1000 0
DWIDTH 12 0
BBX 7 9 3 0
BITMAP
02
FE
04
FC
04
08
10
20
40
ENDCHAR
STARTCHAR 30F3
ENCODING 12531
SWIDTH 1000 0
DWIDTH 12 0
BBX 9 8 2 0
BITMAP
C000
2080
0100
0200
0400
0800
9000
6000
ENDCHAR
STARTCHAR 30F4
ENCODING 12532
SWIDTH 1000 0
DWIDTH 12 0
BBX 10 10 2 0
BITMAP
0080
1140
1200
ED00
8200
8200
8200
0400
0800
1000
ENDCHAR
STARTCHAR 30F5
ENCODING 12533
SWIDTH 1000 0
DWIDTH 12 0
BBX 6 7 3 0
BITMAP
10
20
FC
24
44
48
98
ENDCHAR
STARTCHAR 30F6
ENCODING 12534
SWIDTH 1000 0
DWIDTH 12 0
BBX 8 7 2 0
BITMAP
20
27
58
88
08
10
20
ENDCHAR
STARTCHAR 30F7
ENCODING 12535
SWIDTH 1000 0
DWIDTH 12 0
BBX 10 10 2 0
BITMAP
00C0
0180
FF00
8200
8200
8200
0400
0400
0800
3000
ENDCHAR
STARTCHAR 30F8
ENCODING 12536
SWIDTH 1000 0
DWIDTH 12 0
BBX 11 11 1 -1
BITMAP
0060
0480
0400
7F80
2400
2400
E780
1C00
0400
0400
0400
ENDCHAR
STARTCHAR 30F9
ENCODING 12537
SWIDTH 1000 0
DWIDTH 12 0
BBX 11 9 1 1
BITMAP
0060
00C0
7F00
0100
0E00
0800
0800
0800
F780
ENDCHAR
STARTCHAR 30FA
ENCODING 12538
SWIDTH 1000 0
DWIDTH 12 0
BBX 10 10 2 0
BITMAP
01C0
0080
7F00
0200
8600
7C00
0400
0800
1000
2000
ENDCHAR
STARTCHAR 30FB
ENCODING 12539
SWIDTH 1000 0
DWIDTH 12 0
BBX 2 2 5 4
BITMAP
C0
C0
ENDCHAR
STARTCHAR 30FC
ENCODING 12540
SWIDTH 1000 0
DWIDTH 12 0
BBX 10 1 1 4
BITMAP
FFC0
ENDCHAR
STARTCHAR 30FD
ENCODING 12541
SWIDTH 1000 0
DWIDTH 12 0
BBX 4 5 4 2
BITMAP
80
40
20
10
10
ENDCHAR
STARTCHAR 30FE
ENCODING 12542
SWIDTH 1000 0
DWIDTH 12 0
BBX 6 6 4 2
BITMAP
0C
10
C0
20
20
10
ENDCHAR
STARTCHAR 30FF
ENCODING 12543
SWIDTH 1000 0
DWIDTH 12 0
BBX 7 9 2 0
BITMAP
02
FE
02
02
02
02
02
02
02
ENDCHAR
STARTCHAR 31F0
ENCODING 12784
SWIDTH 1000 0
DWIDTH 12 0
BBX 6 7 3 0
BITMAP
20
3C
44
88
10
20
40
ENDCHAR
STARTCHAR 31F1
ENCODING 12785
SWIDTH 1000 0
DWIDTH 12 0
BBX 7 7 3 0
BITMAP
40
20
86
44
08
30
C0
ENDCHAR
STARTCHAR 31F2
ENCODING 12786
SWIDTH 1000 0
DWIDTH 12 0
BBX 8 6 2 0
BITMAP
3C
08
08
14
22
C1
ENDCHAR
STARTCHAR 31F3
ENCODING 12787
SWIDTH 1000 0
DWIDTH 12 0
BBX 4 7 5 0
BITMAP
80
80
80
E0
90
80
80
ENDCHAR
STARTCHAR 31F4
ENCODING 12788
SWIDTH 1000 0
DWIDTH 12 0
BBX 6 7 3 0
BITMAP
FC
08
08
30
28
24
C0
ENDCHAR
STARTCHAR 31F5
ENCODING 12789
SWIDTH 1000 0
DWIDTH 12 0
BBX 8 4 2 1
BITMAP
24
22
41
81
ENDCHAR
STARTCHAR 31F6
ENCODING 12790
SWIDTH 1000 0
DWIDTH 12 0
BBX 6 7 3 0
BITMAP
80
88
98
60
80
80
7C
ENDCHAR
STARTCHAR 31F7
ENCODING 12791
SWIDTH 1000 0
DWIDTH 12 0
BBX 6 6 3 0
BITMAP
FC
04
08
08
10
60
ENDCHAR
STARTCHAR 31F8
ENCODING 12792
SWIDTH 1000 0
DWIDTH 12 0
BBX 8 4 2 1
BITMAP
30
68
C6
01
ENDCHAR
STARTCHAR 31F9
ENCODING 12793
SWIDTH 1000 0
DWIDTH 12 0
BBX 7 7 3 0
BITMAP
10
20
FC
20
A4
A2
20
ENDCHAR
STARTCHAR 31FA
ENCODING 12794
SWIDTH 1000 0
DWIDTH 12 0
BBX 6 7 3 0
BITMAP
20
20
20
48
44
9C
E4
ENDCHAR
STARTCHAR 31FB
ENCODING 12795
SWIDTH 1000 0
DWIDTH 12 0
BBX 6 7 3 0
BITMAP
78
00
FC
04
08
10
20
ENDCHAR
STARTCHAR 31FC
ENCODING 12796
SWIDTH 1000 0
DWIDTH 12 0
BBX 4 7 4 0
BITMAP
90
90
90
90
10
20
40
ENDCHAR
STARTCHAR 31FD
ENCODING 12797
SWIDTH 1000 0
DWIDTH 12 0
BBX 8 7 2 0
BITMAP
18
28
28
29
4A
4C
88
ENDCHAR
STARTCHAR 31FE
ENCODING 12798
SWIDTH 1000 0
DWIDTH 12 0
BBX 7 7 3 0
BITMAP
80
40
82
84
88
90
60
ENDCHAR
STARTCHAR 31FF
ENCODING 12799
SWIDTH 1000 0
DWIDTH 12 0
BBX 6 6 3 0
BITMAP
FC
84
84
84
84
F8
ENDCHAR
STARTCHAR 3220
ENCODING 12832
SWIDTH 1000 0
DWIDTH 12 0
BBX 10 9 1 1
BITMAP
8040
8040
8040
8040
BF40
8040
8040
8040
8000
ENDCHAR
STARTCHAR 3221
ENCODING 12833
SWIDTH 1000 0
DWIDTH 12 0
BBX 10 9 1 0
BITMAP
8040
8140
9E40
8040
8040
8040
8040
FFC0
8040
ENDCHAR
STARTCHAR 3222
ENCODING 12834
SWIDTH 1000 0
DWIDTH 12 0
BBX 10 9 1 0
BITMAP
8140
BF40
8040
8040
BF40
8040
8040
8040
BF40
ENDCHAR
STARTCHAR 3223
ENCODING 12835
SWIDTH 1000 0
DWIDTH 12 0
BBX 10 9 1 0
BITMAP
8040
FF40
D540
D540
D540
D740
A140
C140
9E40
ENDCHAR
STARTCHAR 3224
ENCODING 12836
SWIDTH 1000 0
DWIDTH 12 0
BBX 10 9 1 1
BITMAP
8040
BF40
8840
8840
9640
9240
9240
92C0
AD00
ENDCHAR
STARTCHAR 3225
ENCODING 12837
SWIDTH 1000 0
DWIDTH 12 0
BBX 10 9 1 0
BITMAP
8040
8840
8840
B740
9040
9240
A140
A140
C0C0
ENDCHAR
STARTCHAR 3226
ENCODING 12838
SWIDTH 1000 0
DWIDTH 12 0
BBX 10 9 1 0
BITMAP
9040
9040
90C0
9F40
B040
9040
9040
9140
9F40
ENDCHAR
STARTCHAR 3227
ENCODING 12839
SWIDTH 1000 0
DWIDTH 12 0
BBX 10 9 1 0
BITMAP
8040
8440
9440
9240
9240
A240
A140
C0C0
C0C0
ENDCHAR
STARTCHAR 3228
ENCODING 12840
SWIDTH 1000 0
DWIDTH 12 0
BBX 10 9 1 0
BITMAP
8840
8840
8A40
B640
9240
9240
9240
A340
C3C0
ENDCHAR
STARTCHAR 3229
ENCODING 12841
SWIDTH 1000 0
DWIDTH 12 0
BBX 10 9 1 0
BITMAP
8440
8840
8840
88C0
BF40
8840
8840
8840
8040
ENDCHAR
STARTCHAR 322A
ENCODING 12842
SWIDTH 1000 0
DWIDTH 12 0
BBX 10 9 1 0
BITMAP
8140
BF40
A140
BF40
A140
BF40
A140
A140
8340
ENDCHAR
STARTCHAR 322B
ENCODING 12843
SWIDTH 1000 0
DWIDTH 12 0
BBX 10 9 1 0
BITMAP
8840
8840
8940
AA40
AC40
CC40
8A40
9140
A0C0
ENDCHAR
STARTCHAR 322C
ENCODING 12844
SWIDTH 1000 0
DWIDTH 12 0
BBX 10 9 1 0
BITMAP
8440
8840
84C0
BD40
9A40
AA40
A940
C8C0
8840
ENDCHAR
STARTCHAR 322D
ENCODING 12845
SWIDTH 1000 0
DWIDTH 12 0
BBX 10 9 1 0
BITMAP
8440
8840
88C0
BF40
9C40
9A40
A940
C8C0
8840
ENDCHAR
STARTCHAR 322E
ENCODING 12846
SWIDTH 1000 0
DWIDTH 12 0
BBX 10 9 1 0
BITMAP
8C40
9440
9240
BF40
88C0
BE40
AA40
9840
FFC0
ENDCHAR
STARTCHAR 322F
ENCODING 12847
SWIDTH 1000 0
DWIDTH 12 0
BBX 10 9 1 0
BITMAP
8840
8840
8840
BF40
8840
8840
8840
8840
B740
ENDCHAR
STARTCHAR 3230
ENCODING 12848
SWIDTH 1000 0
DWIDTH 12 0
BBX 10 9 1 0
BITMAP
8140
BF40
A140
A140
BF40
A140
A140
A140
BF40
ENDCHAR
STARTCHAR 3231
ENCODING 12849
SWIDTH 1000 0
DWIDTH 12 0
BBX 10 9 1 1
BITMAP
A640
AAC0
AF40
A2C0
BF40
E740
AAC0
A240
A200
ENDCHAR
STARTCHAR 3232
ENCODING 12850
SWIDTH 1000 0
DWIDTH 12 0
BBX 10 9 1 -1
BITMAP
8840
90C0
BF40
9F40
B140
DF40
DF40
9140
9740
ENDCHAR
STARTCHAR 3233
ENCODING 12851
SWIDTH 1000 0
DWIDTH 12 0
BBX 10 10 1 0
BITMAP
A240
A240
9240
9FC0
A240
FA40
A240
A240
AFC0
2000
ENDCHAR
STARTCHAR 3234
ENCODING 12852
SWIDTH 1000 0
DWIDTH 12 0
BBX 10 9 1 1
BITMAP
8840
9640
B440
CC40
8840
B740
9140
9140
9F40
ENDCHAR
STARTCHAR 3235
ENCODING 12853
SWIDTH 1000 0
DWIDTH 12 0
BBX 10 10 1 -1
BITMAP
2200
E240
EFC0
E2C0
AFC0
A140
E740
A540
A140
A340
ENDCHAR
STARTCHAR 3236
ENCODING 12854
SWIDTH 1000 0
DWIDTH 12 0
BBX 10 9 1 -1
BITMAP
8140
F940
BFC0
C940
FB40
CD40
B940
A940
CB40
ENDCHAR
STARTCHAR 3237
ENCODING 12855
SWIDTH 1000 0
DWIDTH 12 0
BBX 10 9 1 -1
BITMAP
A040
AF40
9940
A940
AE40
F640
A640
AB40
A9C0
ENDCHAR
STARTCHAR 3238
ENCODING 12856
SWIDTH 1000 0
DWIDTH 12 0
BBX 10 9 1 0
BITMAP
8140
AA40
9A40
EDC0
C840
BF40
8940
9140
A240
ENDCHAR
STARTCHAR 3239
ENCODING 12857
SWIDTH 1000 0
DWIDTH 12 0
BBX 10 9 1 0
BITMAP
9440
A540
A4C0
AF40
E440
A240
A2C0
A2C0
A1C0
ENDCHAR
STARTCHAR 323A
ENCODING 12858
SWIDTH 1000 0
DWIDTH 12 0
BBX 10 9 1 0
BITMAP
81C0
F640
DAC0
D740
D240
D740
F240
8240
8640
ENDCHAR
STARTCHAR 323B
ENCODING 12859
SWIDTH 1000 0
DWIDTH 12 0
BBX 10 9 1 0
BITMAP
A940
9A40
E5C0
FE40
8240
8CC0
BF40
8840
8840
ENDCHAR
STARTCHAR 323C
ENCODING 12860
SWIDTH 1000 0
DWIDTH 12 0
BBX 10 10 1 0
BITMAP
FA40
D4C0
EF40
F840
D940
E040
BF40
B540
B5C0
0A00
ENDCHAR
STARTCHAR 323D
ENCODING 12861
SWIDTH 1000 0
DWIDTH 12 0
BBX 10 9 1 0
BITMAP
8C40
9440
9740
A8C0
9840
A740
A840
A840
FFC0
ENDCHAR
STARTCHAR 323E
ENCODING 12862
SWIDTH 1000 0
DWIDTH 12 0
BBX 10 9 1 0
BITMAP
C840
8740
9640
E9C0
BF40
BF40
BF40
9E40
B1C0
ENDCHAR
STARTCHAR 323F
ENCODING 12863
SWIDTH 1000 0
DWIDTH 12 0
BBX 10 9 1 0
BITMAP
C440
CF40
E540
CB40
C040
D6C0
DFC0
D6C0
DFC0
ENDCHAR
STARTCHAR 3240
ENCODING 12864
SWIDTH 1000 0
DWIDTH 12 0
BBX 10 9 1 0
BITMAP
A440
BF40
D240
B140
ACC0
C140
9E40
A940
D8C0
ENDCHAR
STARTCHAR 3241
ENCODING 12865
SWIDTH 1000 0
DWIDTH 12 0
BBX 10 9 1 0
BITMAP
9240
A440
A4C0
AF40
E640
AD40
AD40
B4C0
A440
ENDCHAR
STARTCHAR 3242
ENCODING 12866
SWIDTH 1000 0
DWIDTH 12 0
BBX 10 9 1 -1
BITMAP
8440
8840
B740
A140
BF40
A140
BF40
A140
BF40
ENDCHAR
STARTCHAR 3243
ENCODING 12867
SWIDTH 1000 0
DWIDTH 12 0
BBX 10 9 1 0
BITMAP
8040
BF40
9240
BF40
84C0
8940
9E40
8840
FFC0
ENDCHAR
STARTCHAR 3251
ENCODING 12881
SWIDTH 1000 0
DWIDTH 12 0
BBX 10 11 1 -1
BITMAP
3F00
4180
B240
AA40
9240
9240
A240
CA40
7B80
6080
1F00
ENDCHAR
STARTCHAR 3252
ENCODING 12882
SWIDTH 1000 0
DWIDTH 12 0
BBX 10 11 1 -1
BITMAP
3F00
4180
B340
CCC0
9140
9140
A240
CCC0
7F80
6080
1F00
ENDCHAR
STARTCHAR 3253
ENCODING 12883
SWIDTH 1000 0
DWIDTH 12 0
BBX 10 11 1 -1
BITMAP
3F00
4180
B340
EEC0
9140
9140
A0C0
CCC0
7B80
6080
1F00
ENDCHAR
STARTCHAR 3254
ENCODING 12884
SWIDTH 1000 0
DWIDTH 12 0
BBX 10 11 1 -1
BITMAP
1E00
2100
F180
C940
9340
9540
A540
C7C0
F940
6080
1F00
ENDCHAR
STARTCHAR 3255
ENCODING 12885
SWIDTH 1000 0
DWIDTH 12 0
BBX 10 11 1 -1
BITMAP
1E00
6180
B380
CC40
9440
9340
A0C0
CCC0
FB80
6080
1F00
ENDCHAR
STARTCHAR 3256
ENCODING 12886
SWIDTH 1000 0
DWIDTH 12 0
BBX 10 11 1 -1
BITMAP
3F00
4180
B340
CC40
9740
94C0
A4C0
CD40
7B80
6080
1F00
ENDCHAR
STARTCHAR 3257
ENCODING 12887
SWIDTH 1000 0
DWIDTH 12 0
BBX 10 11 1 -1
BITMAP
1E00
6180
B780
CD40
9140
9240
A240
CA40
FA80
6080
1F00
ENDCHAR
STARTCHAR 3258
ENCODING 12888
SWIDTH 1000 0
DWIDTH 12 0
BBX 10 11 1 -1
BITMAP
3F00
4180
B340
CCC0
9340
9540
A4C0
CCC0
7B80
6080
1F00
ENDCHAR
STARTCHAR 3259
ENCODING 12889
SWIDTH 1000 0
DWIDTH 12 0
BBX 10 11 1 -1
BITMAP
3F00
4180
B340
CCC0
94C0
93C0
A0C0
CD40
7B80
6080
1F00
ENDCHAR
STARTCHAR 325A
ENCODING 12890
SWIDTH 1000 0
DWIDTH 12 0
BBX 10 11 1 -1
BITMAP
1E00
6180
B340
CD40
94C0
94C0
8CC0
CD40
B380
6080
1F00
ENDCHAR
STARTCHAR 325B
ENCODING 12891
SWIDTH 1000 0
DWIDTH 12 0
BBX 10 11 1 -1
BITMAP
1E00
6180
B280
EA40
8A40
B240
8A40
CA40
B240
6080
1F00
ENDCHAR
STARTCHAR 325C
ENCODING 12892
SWIDTH 1000 0
DWIDTH 12 0
BBX 10 11 1 -1
BITMAP
3F00
4180
B340
CD40
9140
9140
8A40
CCC0
B780
6080
1F00
ENDCHAR
STARTCHAR 325D
ENCODING 12893
SWIDTH 1000 0
DWIDTH 12 0
BBX 10 11 1 -1
BITMAP
1E00
6180
B340
CCC0
9140
9140
88C0
CCC0
B380
6080
1F00
ENDCHAR
STARTCHAR 325E
ENCODING 12894
SWIDTH 1000 0
DWIDTH 12 0
BBX 10 11 1 -1
BITMAP
1E00
2100
F180
C940
9340
9540
8D40
8FC0
F140
4080
3F00
ENDCHAR
STARTCHAR 325F
ENCODING 12895
SWIDTH 1000 0
DWIDTH 12 0
BBX 10 11 1 -1
BITMAP
1E00
6180
B380
CC40
9440
B340
88C0
CCC0
B380
4080
3F00
ENDCHAR
STARTCHAR 3280
ENCODING 12928
SWIDTH 1000 0
DWIDTH 12 0
BBX 10 10 1 0
BITMAP
1E00
6180
8040
8040
8040
BF40
8040
8040
4080
3F00
ENDCHAR
STARTCHAR 3281
ENCODING 12929
SWIDTH 1000 0
DWIDTH 12 0
BBX 10 11 1 -1
BITMAP
1E00
6180
8080
9E40
8040
8040
8040
8040
BF80
6080
1F00
ENDCHAR
STARTCHAR 3282
ENCODING 12930
SWIDTH 1000 0
DWIDTH 12 0
BBX 10 10 1 0
BITMAP
1E00
2100
C180
9E40
8040
9E40
8040
8040
7F80
3F00
ENDCHAR
STARTCHAR 3283
ENCODING 12931
SWIDTH 1000 0
DWIDTH 12 0
BBX 10 11 1 -1
BITMAP
3F00
C180
BFC0
D540
D540
D540
E740
C140
9E80
6080
1F00
ENDCHAR
STARTCHAR 3284
ENCODING 12932
SWIDTH 1000 0
DWIDTH 12 0
BBX 10 11 1 -1
BITMAP
3F00
C180
BF40
8840
8840
9640
9240
9240
BF80
6080
1F00
ENDCHAR
STARTCHAR 3285
ENCODING 12933
SWIDTH 1000 0
DWIDTH 12 0
BBX 10 11 1 -1
BITMAP
3F00
C980
8840
FFC0
8040
9040
9240
A140
4080
4080
3F00
ENDCHAR
STARTCHAR 3286
ENCODING 12934
SWIDTH 1000 0
DWIDTH 12 0
BBX 10 11 1 -1
BITMAP
1E00
6180
9040
9040
9F40
B040
9140
9140
9F80
6080
1F00
ENDCHAR
STARTCHAR 3287
ENCODING 12935
SWIDTH 1000 0
DWIDTH 12 0
BBX 10 11 1 -1
BITMAP
1E00
6180
8480
9440
9240
A240
A140
C0C0
8040
6080
1F00
ENDCHAR
STARTCHAR 3288
ENCODING 12936
SWIDTH 1000 0
DWIDTH 12 0
BBX 10 11 1 -1
BITMAP
3F00
D180
9040
FE40
9240
9240
9240
A340
8380
4080
3F00
ENDCHAR
STARTCHAR 3289
ENCODING 12937
SWIDTH 1000 0
DWIDTH 12 0
BBX 10 11 1 -1
BITMAP
1E00
6180
8880
8840
8840
BF40
8840
8840
8840
6080
1F00
ENDCHAR
STARTCHAR 328A
ENCODING 12938
SWIDTH 1000 0
DWIDTH 12 0
BBX 10 11 1 -1
BITMAP
1E00
6180
BF40
A140
BF40
A140
BF40
A140
8380
6080
1F00
ENDCHAR
STARTCHAR 328B
ENCODING 12939
SWIDTH 1000 0
DWIDTH 12 0
BBX 10 11 1 -1
BITMAP
1E00
6580
8840
8940
A640
AC40
8A40
9140
A080
6080
1F00
ENDCHAR
STARTCHAR 328C
ENCODING 12940
SWIDTH 1000 0
DWIDTH 12 0
BBX 10 11 1 -1
BITMAP
1E00
6100
8880
84C0
BD40
9A40
A940
C8C0
9840
6080
1F00
ENDCHAR
STARTCHAR 328D
ENCODING 12941
SWIDTH 1000 0
DWIDTH 12 0
BBX 10 11 1 -1
BITMAP
1E00
6100
8880
8840
BF40
9A40
9940
E8C0
8840
6080
1F00
ENDCHAR
STARTCHAR 328E
ENCODING 12942
SWIDTH 1000 0
DWIDTH 12 0
BBX 10 11 1 -1
BITMAP
1E00
6D80
8C40
9340
ACC0
8940
9F40
9A40
BF80
6080
1F00
ENDCHAR
STARTCHAR 328F
ENCODING 12943
SWIDTH 1000 0
DWIDTH 12 0
BBX 10 10 1 0
BITMAP
1E00
6580
8840
8840
9E40
8840
8840
8840
7780
3F00
ENDCHAR
STARTCHAR 3290
ENCODING 12944
SWIDTH 1000 0
DWIDTH 12 0
BBX 10 11 1 -1
BITMAP
1E00
6180
BF40
A140
A140
BF40
A140
A140
BF80
6180
1E00
ENDCHAR
STARTCHAR 3291
ENCODING 12945
SWIDTH 1000 0
DWIDTH 12 0
BBX 10 11 1 -1
BITMAP
3F00
E380
AA40
F7C0
AA40
BFC0
B240
E740
AA80
6280
1F00
ENDCHAR
STARTCHAR 3292
ENCODING 12946
SWIDTH 1000 0
DWIDTH 12 0
BBX 10 11 1 -1
BITMAP
1E00
6180
8840
B740
9F40
B140
DF40
9F40
9780
6080
1F00
ENDCHAR
STARTCHAR 3293
ENCODING 12947
SWIDTH 1000 0
DWIDTH 12 0
BBX 10 11 1 -1
BITMAP
1E00
6180
A240
9240
9340
B640
EA40
A240
A280
4580
3F00
ENDCHAR
STARTCHAR 3294
ENCODING 12948
SWIDTH 1000 0
DWIDTH 12 0
BBX 10 11 1 -1
BITMAP
3F00
D180
9E40
A240
D440
8840
B740
9140
9F80
7180
1E00
ENDCHAR
STARTCHAR 3295
ENCODING 12949
SWIDTH 1000 0
DWIDTH 12 0
BBX 10 11 1 -1
BITMAP
1E00
6100
A280
F740
EFC0
E140
F740
A540
A340
6080
1F00
ENDCHAR
STARTCHAR 3296
ENCODING 12950
SWIDTH 1000 0
DWIDTH 12 0
BBX 10 11 1 -1
BITMAP
1E00
6180
F940
C9C0
FB40
FB40
CD40
B140
A980
6080
1F00
ENDCHAR
STARTCHAR 3297
ENCODING 12951
SWIDTH 1000 0
DWIDTH 12 0
BBX 10 11 1 -1
BITMAP
1E00
6180
BF40
9940
A940
AE40
F640
A640
AB80
7080
1F00
ENDCHAR
STARTCHAR 3298
ENCODING 12952
SWIDTH 1000 0
DWIDTH 12 0
BBX 10 11 1 -1
BITMAP
1E00
6100
AA80
9A40
ED40
C940
9F40
9140
A640
6080
1F00
ENDCHAR
STARTCHAR 3299
ENCODING 12953
SWIDTH 1000 0
DWIDTH 12 0
BBX 10 11 1 -1
BITMAP
1E00
6100
B280
A140
B540
B6C0
ACC0
A440
AB40
6080
1F00
ENDCHAR
STARTCHAR 329A
ENCODING 12954
SWIDTH 1000 0
DWIDTH 12 0
BBX 10 11 1 -1
BITMAP
1E00
6180
BF40
BF40
A940
9E40
BF40
8940
9180
4280
3F00
ENDCHAR
STARTCHAR 329B
ENCODING 12955
SWIDTH 1000 0
DWIDTH 12 0
BBX 10 11 1 -1
BITMAP
3F00
C980
90C0
FFC0
9240
A240
B440
8E40
8980
5080
3F00
ENDCHAR
STARTCHAR 329C
ENCODING 12956
SWIDTH 1000 0
DWIDTH 12 0
BBX 10 11 1 -1
BITMAP
3F00
C580
BFC0
A040
9F40
B740
BB40
B340
5F80
6080
1F00
ENDCHAR
STARTCHAR 329D
ENCODING 12957
SWIDTH 1000 0
DWIDTH 12 0
BBX 10 11 1 -1
BITMAP
1E00
6180
AF80
CF40
C9C0
E740
D740
DA40
CD40
6080
1F00
ENDCHAR
STARTCHAR 329E
ENCODING 12958
SWIDTH 1000 0
DWIDTH 12 0
BBX 10 11 1 -1
BITMAP
1E00
2100
C880
F740
C540
F540
C540
BF40
C540
4480
3F00
ENDCHAR
STARTCHAR 329F
ENCODING 12959
SWIDTH 1000 0
DWIDTH 12 0
BBX 10 11 1 -1
BITMAP
1E00
2100
E480
9440
E740
A440
A640
C440
A440
4B80
3F00
ENDCHAR
STARTCHAR 32A0
ENCODING 12960
SWIDTH 1000 0
DWIDTH 12 0
BBX 10 10 1 0
BITMAP
1E00
6180
9640
AF40
A940
AF40
BF40
8640
5980
3E00
ENDCHAR
STARTCHAR 32A1
ENCODING 12961
SWIDTH 1000 0
DWIDTH 12 0
BBX 10 11 1 -1
BITMAP
1E00
6100
A480
A4C0
AF40
E640
AD40
B4C0
A440
6080
1F00
ENDCHAR
STARTCHAR 32A2
ENCODING 12962
SWIDTH 1000 0
DWIDTH 12 0
BBX 10 10 1 0
BITMAP
3F00
C180
BFC0
D140
9E40
A040
9E40
BF40
5D80
3E00
ENDCHAR
STARTCHAR 32A3
ENCODING 12963
SWIDTH 1000 0
DWIDTH 12 0
BBX 10 11 1 -1
BITMAP
3F00
C180
BF40
8840
9840
AE40
A840
A840
7F80
6080
1F00
ENDCHAR
STARTCHAR 32A4
ENCODING 12964
SWIDTH 1000 0
DWIDTH 12 0
BBX 10 10 1 0
BITMAP
3F00
C980
8840
8940
8F40
8840
8840
8840
7780
3F00
ENDCHAR
STARTCHAR 32A5
ENCODING 12965
SWIDTH 1000 0
DWIDTH 12 0
BBX 10 11 1 -1
BITMAP
1E00
2100
C880
8840
FF40
C940
BF40
8840
8840
4080
3F00
ENDCHAR
STARTCHAR 32A6
ENCODING 12966
SWIDTH 1000 0
DWIDTH 12 0
BBX 10 11 1 -1
BITMAP
1E00
6100
8080
BF40
8C40
8A40
8940
8840
8840
6080
1F00
ENDCHAR
STARTCHAR 32A7
ENCODING 12967
SWIDTH 1000 0
DWIDTH 12 0
BBX 10 11 1 -1
BITMAP
1E00
6980
9040
BF40
9140
9F40
A440
C440
BF80
6080
1F00
ENDCHAR
STARTCHAR 32A8
ENCODING 12968
SWIDTH 1000 0
DWIDTH 12 0
BBX 10 10 1 0
BITMAP
1E00
6980
9040
BF40
9040
BF40
B140
D140
5F80
3E00
ENDCHAR
STARTCHAR 32A9
ENCODING 12969
SWIDTH 1000 0
DWIDTH 12 0
BBX 10 11 1 -1
BITMAP
1E00
6180
FE40
D040
DE40
DF40
C440
DB40
BF80
6080
1F00
ENDCHAR
STARTCHAR 32AA
ENCODING 12970
SWIDTH 1000 0
DWIDTH 12 0
BBX 10 11 1 -1
BITMAP
1E00
6100
8880
F740
9C40
8140
BE40
A940
C940
4880
3F00
ENDCHAR
STARTCHAR 32AB
ENCODING 12971
SWIDTH 1000 0
DWIDTH 12 0
BBX 10 11 1 -1
BITMAP
3F00
E980
9A40
BFC0
C140
9E40
8CC0
BF40
8880
6880
1F00
ENDCHAR
STARTCHAR 32AC
ENCODING 12972
SWIDTH 1000 0
DWIDTH 12 0
BBX 10 11 1 -1
BITMAP
1E00
6180
F4C0
BF40
D840
F940
B740
B540
B580
6A80
1F00
ENDCHAR
STARTCHAR 32AD
ENCODING 12973
SWIDTH 1000 0
DWIDTH 12 0
BBX 10 11 1 -1
BITMAP
1E00
6100
8C80
9240
A9C0
9840
AE40
A840
BF40
6080
1F00
ENDCHAR
STARTCHAR 32AE
ENCODING 12974
SWIDTH 1000 0
DWIDTH 12 0
BBX 10 11 1 -1
BITMAP
3F00
4180
AF40
8540
EBC0
B740
BF40
BF40
9F80
7080
1F00
ENDCHAR
STARTCHAR 32AF
ENCODING 12975
SWIDTH 1000 0
DWIDTH 12 0
BBX 10 11 1 -1
BITMAP
1E00
6100
A480
AF40
A940
A940
B6C0
B6C0
BF40
6080
1F00
ENDCHAR
STARTCHAR 32B0
ENCODING 12976
SWIDTH 1000 0
DWIDTH 12 0
BBX 10 11 1 -1
BITMAP
1E00
6100
8880
B740
A740
AD40
BE40
E640
A740
7880
1F00
ENDCHAR
STARTCHAR 32B1
ENCODING 12977
SWIDTH 1000 0
DWIDTH 12 0
BBX 10 11 1 -1
BITMAP
1E00
6180
B340
CD40
9440
9740
8CC0
CCC0
B380
6080
1F00
ENDCHAR
STARTCHAR 32B2
ENCODING 12978
SWIDTH 1000 0
DWIDTH 12 0
BBX 10 11 1 -1
BITMAP
1E00
6180
B780
CD40
9140
B240
8A40
CA40
B280
4080
3F00
ENDCHAR
STARTCHAR 32B3
ENCODING 12979
SWIDTH 1000 0
DWIDTH 12 0
BBX 10 11 1 -1
BITMAP
1E00
6180
B340
CCC0
9340
9340
8CC0
CCC0
B380
6080
1F00
ENDCHAR
STARTCHAR 32B4
ENCODING 12980
SWIDTH 1000 0
DWIDTH 12 0
BBX 10 11 1 -1
BITMAP
1E00
6180
B340
CCC0
94C0
93C0
88C0
CD40
B380
6080
1F00
ENDCHAR
STARTCHAR 32B5
ENCODING 12981
SWIDTH 1000 0
DWIDTH 12 0
BBX 10 11 1 -1
BITMAP
1E00
2100
D380
9540
B4C0
D4C0
D4C0
FD40
9340
4080
3F00
ENDCHAR
STARTCHAR 32B6
ENCODING 12982
SWIDTH 1000 0
DWIDTH 12 0
BBX 10 11 1 -1
BITMAP
1E00
2100
D080
9240
B240
D240
D240
FA40
9240
4080
3F00
ENDCHAR
STARTCHAR 32B7
ENCODING 12983
SWIDTH 1000 0
DWIDTH 12 0
BBX 10 11 1 -1
BITMAP
1E00
2100
D380
9540
B140
D140
D240
FC40
97C0
6080
1F00
ENDCHAR
STARTCHAR 32B8
ENCODING 12984
SWIDTH 1000 0
DWIDTH 12 0
BBX 10 11 1 -1
BITMAP
1E00
2100
D380
94C0
F0C0
D140
D0C0
F8C0
9740
4080
3F00
ENDCHAR
STARTCHAR 32B9
ENCODING 12985
SWIDTH 1000 0
DWIDTH 12 0
BBX 10 11 1 -1
BITMAP
1E00
2100
D180
B140
D340
D540
9540
FFC0
9140
4080
3F00
ENDCHAR
STARTCHAR 32BA
ENCODING 12986
SWIDTH 1000 0
DWIDTH 12 0
BBX 10 11 1 -1
BITMAP
1E00
6180
9380
B440
D440
D740
D0C0
F8C0
9780
4080
3F00
ENDCHAR
STARTCHAR 32BB
ENCODING 12987
SWIDTH 1000 0
DWIDTH 12 0
BBX 10 11 1 -1
BITMAP
1E00
2100
D380
9340
B440
D740
D4C0
FCC0
9340
4080
3F00
ENDCHAR
STARTCHAR 32BC
ENCODING 12988
SWIDTH 1000 0
DWIDTH 12 0
BBX 10 11 1 -1
BITMAP
1E00
6180
9780
9540
B540
D240
D240
FA40
9280
4080
3F00
ENDCHAR
STARTCHAR 32BD
ENCODING 12989
SWIDTH 1000 0
DWIDTH 12 0
BBX 10 11 1 -1
BITMAP
1E00
2100
D380
9540
B540
D240
D540
FCC0
9740
4080
3F00
ENDCHAR
STARTCHAR 32BE
ENCODING 12990
SWIDTH 1000 0
DWIDTH 12 0
BBX 10 11 1 -1
BITMAP
1E00
2100
D380
94C0
B4C0
D4C0
D3C0
F8C0
9740
4080
3F00
ENDCHAR
STARTCHAR 32BF
ENCODING 12991
SWIDTH 1000 0
DWIDTH 12 0
BBX 10 11 1 -1
BITMAP
1E00
6180
B380
C540
C4C0
B4C0
8CC0
CD40
B380
4080
3F00
ENDCHAR
STARTCHAR 32D0
ENCODING 13008
SWIDTH 1000 0
DWIDTH 12 0
BBX 10 11 1 -1
BITMAP
1E00
6180
81C0
BF40
8A40
8440
8840
8840
9080
6080
1F00
ENDCHAR
STARTCHAR 32D1
ENCODING 13009
SWIDTH 1000 0
DWIDTH 12 0
BBX 10 11 1 -1
BITMAP
1E00
6180
8240
8440
8840
B840
8840
8440
8480
6080
1F00
ENDCHAR
STARTCHAR 32D2
ENCODING 13010
SWIDTH 1000 0
DWIDTH 12 0
BBX 10 11 1 -1
BITMAP
1E00
6180
8840
BF40
A140
A140
8240
8240
8480
6080
1F00
ENDCHAR
STARTCHAR 32D3
ENCODING 13011
SWIDTH 1000 0
DWIDTH 12 0
BBX 10 11 1 -1
BITMAP
1E00
6180
8040
BE40
8840
8840
8840
FFC0
8080
6080
1F00
ENDCHAR
STARTCHAR 32D4
ENCODING 13012
SWIDTH 1000 0
DWIDTH 12 0
BBX 10 11 1 -1
BITMAP
1E00
6580
8440
BDC0
8640
8C40
9440
A240
8680
6080
1F00
ENDCHAR
STARTCHAR 32D5
ENCODING 13013
SWIDTH 1000 0
DWIDTH 12 0
BBX 10 11 1 -1
BITMAP
1E00
6980
8440
BB40
8D40
8940
9140
9640
A280
6080
1F00
ENDCHAR
STARTCHAR 32D6
ENCODING 13014
SWIDTH 1000 0
DWIDTH 12 0
BBX 10 11 1 -1
BITMAP
1E00
6180
8840
8B40
BC40
8BC0
B440
8440
8480
6480
1F00
ENDCHAR
STARTCHAR 32D7
ENCODING 13015
SWIDTH 1000 0
DWIDTH 12 0
BBX 10 11 1 -1
BITMAP
1E00
6980
8440
8F40
9140
A240
8440
8840
9080
6080
1F00
ENDCHAR
STARTCHAR 32D8
ENCODING 13016
SWIDTH 1000 0
DWIDTH 12 0
BBX 10 11 1 -1
BITMAP
1E00
6180
9040
93C0
AC40
C440
8440
8840
8880
6080
1F00
ENDCHAR
STARTCHAR 32D9
ENCODING 13017
SWIDTH 1000 0
DWIDTH 12 0
BBX 10 11 1 -1
BITMAP
1E00
6180
8040
BF40
8140
8140
8240
BF40
8080
6080
1F00
ENDCHAR
STARTCHAR 32DA
ENCODING 13018
SWIDTH 1000 0
DWIDTH 12 0
BBX 10 11 1 -1
BITMAP
1E00
6180
9240
9240
FFC0
9240
9240
8440
8480
7880
1F00
ENDCHAR
STARTCHAR 32DB
ENCODING 13019
SWIDTH 1000 0
DWIDTH 12 0
BBX 10 11 1 -1
BITMAP
1E00
6180
9040
8840
A0C0
9140
8240
8C40
B080
6080
1F00
ENDCHAR
STARTCHAR 32DC
ENCODING 13020
SWIDTH 1000 0
DWIDTH 12 0
BBX 10 11 1 -1
BITMAP
1E00
6180
BE40
8240
8440
8440
8B40
B0C0
8080
6080
1F00
ENDCHAR
STARTCHAR 32DD
ENCODING 13021
SWIDTH 1000 0
DWIDTH 12 0
BBX 10 11 1 -1
BITMAP
1E00
6180
9040
9140
9F40
F240
9040
9040
8F80
6080
1F00
ENDCHAR
STARTCHAR 32DE
ENCODING 13022
SWIDTH 1000 0
DWIDTH 12 0
BBX 10 11 1 -1
BITMAP
1E00
6180
8140
B140
9140
8240
8240
8440
8880
6080
1F00
ENDCHAR
STARTCHAR 32DF
ENCODING 13023
SWIDTH 1000 0
DWIDTH 12 0
BBX 10 11 1 -1
BITMAP
1E00
6180
8940
8F40
9240
AA40
8640
8940
9080
6080
1F00
ENDCHAR
STARTCHAR 32E0
ENCODING 13024
SWIDTH 1000 0
DWIDTH 12 0
BBX 10 11 1 -1
BITMAP
1E00
6180
8240
BC40
84C0
BF40
8440
8840
9080
6080
1F00
ENDCHAR
STARTCHAR 32E1
ENCODING 13025
SWIDTH 1000 0
DWIDTH 12 0
BBX 10 11 1 -1
BITMAP
1E00
6180
8140
A8C0
A940
8140
8240
8440
8880
6080
1F00
ENDCHAR
STARTCHAR 32E2
ENCODING 13026
SWIDTH 1000 0
DWIDTH 12 0
BBX 10 11 1 -1
BITMAP
1E00
6180
9F40
8040
FFC0
8440
8440
8840
8880
6080
1F00
ENDCHAR
STARTCHAR 32E3
ENCODING 13027
SWIDTH 1000 0
DWIDTH 12 0
BBX 10 11 1 -1
BITMAP
1E00
6180
8840
8840
8840
8F40
8940
8840
8880
6080
1F00
ENDCHAR
STARTCHAR 32E4
ENCODING 13028
SWIDTH 1000 0
DWIDTH 12 0
BBX 10 11 1 -1
BITMAP
1E00
6180
8440
8440
BFC0
8440
8840
8840
9080
6080
1F00
ENDCHAR
STARTCHAR 32E5
ENCODING 13029
SWIDTH 1000 0
DWIDTH 12 0
BBX 10 11 1 -1
BITMAP
1E00
6180
8040
BF40
8040
8040
8040
FF40
8080
6080
1F00
ENDCHAR
STARTCHAR 32E6
ENCODING 13030
SWIDTH 1000 0
DWIDTH 12 0
BBX 10 11 1 -1
BITMAP
1E00
6180
BF40
8240
9240
8C40
8A40
9140
A080
6080
1F00
ENDCHAR
STARTCHAR 32E7
ENCODING 13031
SWIDTH 1000 0
DWIDTH 12 0
BBX 10 11 1 -1
BITMAP
1E00
6980
8440
BE40
8440
8440
9D40
E540
8480
6480
1F00
ENDCHAR
STARTCHAR 32E8
ENCODING 13032
SWIDTH 1000 0
DWIDTH 12 0
BBX 10 11 1 -1
BITMAP
1E00
6180
8140
8240
8240
8440
8840
9040
A080
6080
1F00
ENDCHAR
STARTCHAR 32E9
ENCODING 13033
SWIDTH 1000 0
DWIDTH 12 0
BBX 10 11 1 -1
BITMAP
1E00
6180
8040
9240
9140
A0C0
A0C0
C040
8080
6080
1F00
ENDCHAR
STARTCHAR 32EA
ENCODING 13034
SWIDTH 1000 0
DWIDTH 12 0
BBX 10 11 1 -1
BITMAP
1E00
6180
A040
A140
A640
9840
A040
A040
9F80
6080
1F00
ENDCHAR
STARTCHAR 32EB
ENCODING 13035
SWIDTH 1000 0
DWIDTH 12 0
BBX 10 11 1 -1
BITMAP
1E00
6180
8040
BF40
8140
8240
8240
8440
9880
6080
1F00
ENDCHAR
STARTCHAR 32EC
ENCODING 13036
SWIDTH 1000 0
DWIDTH 12 0
BBX 10 11 1 -1
BITMAP
1E00
6180
8040
9840
9440
E240
81C0
8040
8080
6080
1F00
ENDCHAR
STARTCHAR 32ED
ENCODING 13037
SWIDTH 1000 0
DWIDTH 12 0
BBX 10 11 1 -1
BITMAP
1E00
6180
8840
89C0
BE40
8840
A940
C8C0
8880
6080
1F00
ENDCHAR
STARTCHAR 32EE
ENCODING 13038
SWIDTH 1000 0
DWIDTH 12 0
BBX 10 11 1 -1
BITMAP
1E00
6180
8040
FFC0
8140
8240
8C40
8440
8480
6080
1F00
ENDCHAR
STARTCHAR 32EF
ENCODING 13039
SWIDTH 1000 0
DWIDTH 12 0
BBX 10 11 1 -1
BITMAP
1E00
6180
8E40
8040
9840
8440
8040
9C40
8280
6080
1F00
ENDCHAR
STARTCHAR 32F0
ENCODING 13040
SWIDTH 1000 0
DWIDTH 12 0
BBX 10 11 1 -1
BITMAP
1E00
6980
8840
8840
9040
9240
A140
FEC0
8080
6080
1F00
ENDCHAR
STARTCHAR 32F1
ENCODING 13041
SWIDTH 1000 0
DWIDTH 12 0
BBX 10 11 1 -1
BITMAP
1E00
6180
8240
8240
8C40
8640
8940
9040
A080
6080
1F00
ENDCHAR
STARTCHAR 32F2
ENCODING 13042
SWIDTH 1000 0
DWIDTH 12 0
BBX 10 11 1 -1
BITMAP
1E00
6180
BF40
8840
8840
FF40
8840
8840
8F80
6080
1F00
ENDCHAR
STARTCHAR 32F3
ENCODING 13043
SWIDTH 1000 0
DWIDTH 12 0
BBX 10 11 1 -1
BITMAP
1E00
6180
9040
91C0
FF40
8A40
8840
8840
8880
6480
1F00
ENDCHAR
STARTCHAR 32F4
ENCODING 13044
SWIDTH 1000 0
DWIDTH 12 0
BBX 10 11 1 -1
BITMAP
1E00
6180
8040
BE40
8240
8240
8240
FD40
8080
6080
1F00
ENDCHAR
STARTCHAR 32F5
ENCODING 13045
SWIDTH 1000 0
DWIDTH 12 0
BBX 10 11 1 -1
BITMAP
1E00
6180
8140
BE40
8240
9E40
8240
8240
BC80
6080
1F00
ENDCHAR
STARTCHAR 32F6
ENCODING 13046
SWIDTH 1000 0
DWIDTH 12 0
BBX 10 11 1 -1
BITMAP
1E00
6180
9E40
8040
BF40
8140
8240
8440
8880
6080
1F00
ENDCHAR
STARTCHAR 32F7
ENCODING 13047
SWIDTH 1000 0
DWIDTH 12 0
BBX 10 11 1 -1
BITMAP
1E00
6180
9240
9240
9240
9240
9240
8240
8480
6080
1F00
ENDCHAR
STARTCHAR 32F8
ENCODING 13048
SWIDTH 1000 0
DWIDTH 12 0
BBX 10 11 1 -1
BITMAP
1E00
6180
8440
9440
9440
94C0
9540
A640
8080
6080
1F00
ENDCHAR
STARTCHAR 32F9
ENCODING 13049
SWIDTH 1000 0
DWIDTH 12 0
BBX 10 11 1 -1
BITMAP
1E00
6180
9040
9040
9040
9140
9240
9440
9880
6080
1F00
ENDCHAR
STARTCHAR 32FA
ENCODING 13050
SWIDTH 1000 0
DWIDTH 12 0
BBX 10 11 1 -1
BITMAP
1E00
6180
8040
BF40
A140
A140
A140
AF40
B080
6080
1F00
ENDCHAR
STARTCHAR 32FB
ENCODING 13051
SWIDTH 1000 0
DWIDTH 12 0
BBX 10 11 1 -1
BITMAP
1E00
6180
8140
BF40
A140
A240
8240
8440
8880
6080
1F00
ENDCHAR
STARTCHAR 32FC
ENCODING 13052
SWIDTH 1000 0
DWIDTH 12 0
BBX 10 11 1 -1
BITMAP
1E00
6180
8440
BF40
9440
9440
FFC0
8440
8480
6480
1F00
ENDCHAR
STARTCHAR 32FD
ENCODING 13053
SWIDTH 1000 0
DWIDTH 12 0
BBX 10 11 1 -1
BITMAP
1E00
6180
8140
BE40
8C40
8840
8840
FFC0
8080
6080
1F00
ENDCHAR
STARTCHAR 32FE
ENCODING 13054
SWIDTH 1000 0
DWIDTH 12 0
BBX 10 11 1 -1
BITMAP
1E00
6180
8140
9F40
8140
9E40
8240
8440
8880
7080
1F00
ENDCHAR
STARTCHAR 32FF
ENCODING 13055
SWIDTH 1000 0
DWIDTH 12 0
BBX 10 11 1 -1
BITMAP
4000
2200
63C0
9340
0B40
0340
7340
5740
5340
5200
0200
ENDCHAR
STARTCHAR 3300
ENCODING 13056
SWIDTH 1000 0
DWIDTH 12 0
BBX 10 11 1 -1
BITMAP
F8C0
1280
6240
4440
4800
0000
0000
E100
12C0
0100
0100
ENDCHAR
STARTCHAR 3301
ENCODING 13057
SWIDTH 1000 0
DWIDTH 12 0
BBX 10 11 1 -1
BITMAP
F900
1300
2340
4340
4480
0000
F000
1380
2100
4100
0200
ENDCHAR
STARTCHAR 3302
ENCODING 13058
SWIDTH 1000 0
DWIDTH 12 0
BBX 10 11 1 -1
BITMAP
F800
1200
20C0
4100
4200
0000
1FC0
6180
9100
0900
0200
ENDCHAR
STARTCHAR 3303
ENCODING 13059
SWIDTH 1000 0
DWIDTH 12 0
BBX 10 11 1 -1
BITMAP
F800
1000
27C0
4000
4000
0000
2000
6000
A800
B000
8000
ENDCHAR
STARTCHAR 3304
ENCODING 13060
SWIDTH 1000 0
DWIDTH 12 0
BBX 10 11 1 -1
BITMAP
1000
2380
6000
27C0
2000
0000
82C0
4380
1100
2200
C400
ENDCHAR
STARTCHAR 3305
ENCODING 13061
SWIDTH 1000 0
DWIDTH 12 0
BBX 10 10 1 -1
BITMAP
1000
2200
6040
2180
2200
0000
3000
E000
3000
4000
ENDCHAR
STARTCHAR 3306
ENCODING 13062
SWIDTH 1000 0
DWIDTH 12 0
BBX 10 11 1 -1
BITMAP
2000
F880
93C0
1180
2280
0000
8000
4800
1000
2000
C000
ENDCHAR
STARTCHAR 3307
ENCODING 13063
SWIDTH 1000 0
DWIDTH 12 0
BBX 10 10 1 -1
BITMAP
6380
3080
2100
FA80
0440
4100
6100
AE80
4140
4100
ENDCHAR
STARTCHAR 3308
ENCODING 13064
SWIDTH 1000 0
DWIDTH 12 0
BBX 10 10 1 0
BITMAP
6000
3000
27C0
F800
0000
0000
E000
5780
5000
3000
ENDCHAR
STARTCHAR 3309
ENCODING 13065
SWIDTH 1000 0
DWIDTH 12 0
BBX 10 10 1 -1
BITMAP
2000
EA00
3040
6180
A200
0000
7000
2000
2000
5800
ENDCHAR
STARTCHAR 330A
ENCODING 13066
SWIDTH 1000 0
DWIDTH 12 0
BBX 10 11 1 -1
BITMAP
2000
9800
67C0
6000
2000
0000
2000
4000
5000
9800
E800
ENDCHAR
STARTCHAR 330B
ENCODING 13067
SWIDTH 1000 0
DWIDTH 12 0
BBX 10 11 1 -1
BITMAP
2040
F880
4980
5080
9080
0000
5000
5000
5000
1000
4000
ENDCHAR
STARTCHAR 330C
ENCODING 13068
SWIDTH 1000 0
DWIDTH 12 0
BBX 10 11 1 -1
BITMAP
2380
FB80
5040
5080
9100
0000
0100
3100
11C0
2100
4100
ENDCHAR
STARTCHAR 330D
ENCODING 13069
SWIDTH 1000 0
DWIDTH 12 0
BBX 10 11 1 -1
BITMAP
2000
D3C0
7440
5480
9300
0000
9000
9780
9000
2000
4000
ENDCHAR
STARTCHAR 330E
ENCODING 13070
SWIDTH 1000 0
DWIDTH 12 0
BBX 10 11 1 -1
BITMAP
2C00
F3C0
5240
5240
93C0
0000
8000
4800
1000
2000
C000
ENDCHAR
STARTCHAR 330F
ENCODING 13071
SWIDTH 1000 0
DWIDTH 12 0
BBX 10 9 1 1
BITMAP
4A00
F040
5080
B300
0000
F800
1000
6000
2000
ENDCHAR
STARTCHAR 3310
ENCODING 13072
SWIDTH 1000 0
DWIDTH 12 0
BBX 10 11 1 -1
BITMAP
4C00
3800
E000
F000
2000
2040
0680
0380
0280
0480
0900
ENDCHAR
STARTCHAR 3311
ENCODING 13073
SWIDTH 1000 0
DWIDTH 12 0
BBX 10 8 1 2
BITMAP
0B00
E080
F000
27C0
2000
0000
0000
F800
ENDCHAR
STARTCHAR 3312
ENCODING 13074
SWIDTH 1000 0
DWIDTH 12 0
BBX 10 11 1 -1
BITMAP
4000
E000
5B80
A080
27C0
0000
5000
5000
5780
2000
4000
ENDCHAR
STARTCHAR 3313
ENCODING 13075
SWIDTH 1000 0
DWIDTH 12 0
BBX 10 11 1 -1
BITMAP
4100
F300
5B40
A540
2480
0800
4800
7000
A780
6000
8000
ENDCHAR
STARTCHAR 3314
ENCODING 13076
SWIDTH 1000 0
DWIDTH 12 0
BBX 10 11 1 -1
BITMAP
6000
3800
E000
F800
2000
1000
07C0
0440
0480
05C0
0600
ENDCHAR
STARTCHAR 3315
ENCODING 13077
SWIDTH 1000 0
DWIDTH 12 0
BBX 11 11 1 -1
BITMAP
4000
E7C0
5C40
A280
2300
1000
A680
EE80
4340
8540
01A0
ENDCHAR
STARTCHAR 3316
ENCODING 13078
SWIDTH 1000 0
DWIDTH 12 0
BBX 10 11 1 -1
BITMAP
4040
EE40
7A40
CAC0
0D00
0000
0080
C980
16C0
0A80
0800
ENDCHAR
STARTCHAR 3317
ENCODING 13079
SWIDTH 1000 0
DWIDTH 12 0
BBX 11 11 1 -1
BITMAP
4000
F7C0
3C40
E280
2300
0000
F080
A680
AAE0
4480
0080
ENDCHAR
STARTCHAR 3318
ENCODING 13080
SWIDTH 1000 0
DWIDTH 12 0
BBX 10 11 1 -1
BITMAP
0F80
3380
D040
2080
4100
0000
2000
4000
5000
9800
E800
ENDCHAR
STARTCHAR 3319
ENCODING 13081
SWIDTH 1000 0
DWIDTH 12 0
BBX 11 11 1 -1
BITMAP
0680
6C80
A280
4340
85A0
0000
4600
4040
7180
4200
4000
ENDCHAR
STARTCHAR 331A
ENCODING 13082
SWIDTH 1000 0
DWIDTH 12 0
BBX 10 11 1 -1
BITMAP
2100
5300
9340
2580
4500
0000
8240
B5C0
ED40
6540
0580
ENDCHAR
STARTCHAR 331B
ENCODING 13083
SWIDTH 1000 0
DWIDTH 12 0
BBX 10 11 1 -1
BITMAP
2000
57C0
9480
2480
4700
0100
0300
E080
1180
0340
0100
ENDCHAR
STARTCHAR 331C
ENCODING 13084
SWIDTH 1000 0
DWIDTH 12 0
BBX 9 11 1 -1
BITMAP
4000
5800
A000
2780
4000
0000
F000
2000
2000
5000
0800
ENDCHAR
STARTCHAR 331D
ENCODING 13085
SWIDTH 1000 0
DWIDTH 12 0
BBX 10 11 1 -1
BITMAP
0100
F300
1340
F540
0480
0000
2000
F800
2000
4000
8000
ENDCHAR
STARTCHAR 331E
ENCODING 13086
SWIDTH 1000 0
DWIDTH 12 0
BBX 10 10 1 -1
BITMAP
F000
17C0
F000
0000
1800
2800
F000
2000
A800
2000
ENDCHAR
STARTCHAR 331F
ENCODING 13087
SWIDTH 1000 0
DWIDTH 12 0
BBX 10 11 1 -1
BITMAP
5000
D880
7300
5100
2100
0000
5100
7300
A340
2580
C000
ENDCHAR
STARTCHAR 3320
ENCODING 13088
SWIDTH 1000 0
DWIDTH 12 0
BBX 11 11 1 -1
BITMAP
5000
DA00
7040
6180
2200
0000
6080
CC80
6140
4140
81A0
ENDCHAR
STARTCHAR 3321
ENCODING 13089
SWIDTH 1000 0
DWIDTH 12 0
BBX 9 11 1 -1
BITMAP
4280
0280
DA80
2080
4100
0000
8180
4A80
1480
2100
4200
ENDCHAR
STARTCHAR 3322
ENCODING 13090
SWIDTH 1000 0
DWIDTH 12 0
BBX 10 10 1 -1
BITMAP
4000
5A00
F040
4180
3A00
0000
3000
E000
3000
4000
ENDCHAR
STARTCHAR 3323
ENCODING 13091
SWIDTH 1000 0
DWIDTH 12 0
BBX 10 11 1 -1
BITMAP
4000
5A00
F0C0
4180
3A00
0000
0000
4000
7000
4000
4000
ENDCHAR
STARTCHAR 3324
ENCODING 13092
SWIDTH 1000 0
DWIDTH 12 0
BBX 9 11 1 -1
BITMAP
0C00
3000
D000
2780
5000
0000
7000
2000
2000
5000
0800
ENDCHAR
STARTCHAR 3325
ENCODING 13093
SWIDTH 1000 0
DWIDTH 12 0
BBX 10 10 1 0
BITMAP
0400
7800
FC00
2000
2000
4000
0200
04C0
0100
0600
ENDCHAR
STARTCHAR 3326
ENCODING 13094
SWIDTH 1000 0
DWIDTH 12 0
BBX 9 10 2 -1
BITMAP
9000
A000
C000
A000
8000
8400
0C00
0C80
0D00
1200
ENDCHAR
STARTCHAR 3327
ENCODING 13095
SWIDTH 1000 0
DWIDTH 12 0
BBX 9 11 2 -1
BITMAP
8000
8000
8000
E000
8000
8000
0880
0100
0100
0600
0800
ENDCHAR
STARTCHAR 3328
ENCODING 13096
SWIDTH 1000 0
DWIDTH 12 0
BBX 9 9 1 1
BITMAP
1000
FC00
1000
2000
2080
0100
0100
0200
0400
ENDCHAR
STARTCHAR 3329
ENCODING 13097
SWIDTH 1000 0
DWIDTH 12 0
BBX 9 11 1 -1
BITMAP
1000
1000
2380
4080
8100
0000
2000
2000
3800
2000
2000
ENDCHAR
STARTCHAR 332A
ENCODING 13098
SWIDTH 1000 0
DWIDTH 12 0
BBX 10 11 1 -1
BITMAP
0040
5080
5180
8880
0080
0000
0800
D000
1000
2000
8000
ENDCHAR
STARTCHAR 332B
ENCODING 13099
SWIDTH 1000 0
DWIDTH 12 0
BBX 11 11 1 -1
BITMAP
1800
5000
57C0
8800
0000
0000
0080
F280
A2E0
6C80
0080
ENDCHAR
STARTCHAR 332D
ENCODING 13101
SWIDTH 1000 0
DWIDTH 12 0
BBX 10 9 1 1
BITMAP
4000
57C0
8800
0000
0000
0200
9340
A540
4480
ENDCHAR
STARTCHAR 332E
ENCODING 13102
SWIDTH 1000 0
DWIDTH 12 0
BBX 10 11 1 -1
BITMAP
1BC0
9080
E100
8100
7100
0000
E880
4980
4DC0
AA80
0800
ENDCHAR
STARTCHAR 332F
ENCODING 13103
SWIDTH 1000 0
DWIDTH 12 0
BBX 10 11 1 -1
BITMAP
1900
11C0
A280
C080
7100
0000
2000
6000
6800
9000
A000
ENDCHAR
STARTCHAR 3330
ENCODING 13104
SWIDTH 1000 0
DWIDTH 12 0
BBX 10 10 1 0
BITMAP
0C00
8000
9000
E000
8000
7800
07C0
0080
0080
0780
ENDCHAR
STARTCHAR 3331
ENCODING 13105
SWIDTH 1000 0
DWIDTH 12 0
BBX 9 11 1 -1
BITMAP
0400
8800
B000
C000
8000
7800
0500
0500
0580
0900
0800
ENDCHAR
STARTCHAR 3332
ENCODING 13106
SWIDTH 1000 0
DWIDTH 12 0
BBX 10 11 1 -1
BITMAP
F800
13C0
1100
2100
4000
C000
0100
EE80
2340
4500
0800
ENDCHAR
STARTCHAR 3333
ENCODING 13107
SWIDTH 1000 0
DWIDTH 12 0
BBX 10 11 1 -1
BITMAP
F800
1080
1100
2100
4100
0000
0200
F100
02C0
0200
0200
ENDCHAR
STARTCHAR 3334
ENCODING 13108
SWIDTH 1000 0
DWIDTH 12 0
BBX 10 11 1 -1
BITMAP
0C00
F800
1340
2080
4100
0000
8080
8D80
29C0
5A80
8200
ENDCHAR
STARTCHAR 3335
ENCODING 13109
SWIDTH 1000 0
DWIDTH 12 0
BBX 10 10 1 0
BITMAP
0380
FB80
1040
2080
4100
0000
C000
1000
2000
C000
ENDCHAR
STARTCHAR 3336
ENCODING 13110
SWIDTH 1000 0
DWIDTH 12 0
BBX 11 10 0 0
BITMAP
30E0
4940
0440
0080
0000
3040
5C40
A160
5140
8000
ENDCHAR
STARTCHAR 3337
ENCODING 13111
SWIDTH 1000 0
DWIDTH 12 0
BBX 10 10 1 -1
BITMAP
1800
2800
5000
8C00
0000
0440
0240
0080
0080
0100
ENDCHAR
STARTCHAR 3338
ENCODING 13112
SWIDTH 1000 0
DWIDTH 12 0
BBX 10 10 1 0
BITMAP
1000
53C0
B000
8B80
0000
8000
9000
A000
C000
7000
ENDCHAR
STARTCHAR 3339
ENCODING 13113
SWIDTH 1000 0
DWIDTH 12 0
BBX 10 10 1 -1
BITMAP
0100
4300
B340
0B40
0480
0000
4800
D000
2000
2000
ENDCHAR
STARTCHAR 333A
ENCODING 13114
SWIDTH 1000 0
DWIDTH 12 0
BBX 10 9 1 0
BITMAP
7A00
B040
9880
0300
0000
7000
2000
6000
9800
ENDCHAR
STARTCHAR 333B
ENCODING 13115
SWIDTH 1000 0
DWIDTH 12 0
BBX 10 11 1 -1
BITMAP
1800
7800
93C0
0800
0000
0800
4000
8800
1000
2000
C000
ENDCHAR
STARTCHAR 333C
ENCODING 13116
SWIDTH 1000 0
DWIDTH 12 0
BBX 10 9 1 1
BITMAP
7800
B7C0
8800
0000
4000
7000
5000
2000
5000
ENDCHAR
STARTCHAR 333D
ENCODING 13117
SWIDTH 1000 0
DWIDTH 12 0
BBX 10 11 1 -1
BITMAP
3840
E080
3100
2B00
E900
0000
0100
4900
11C0
2100
4100
ENDCHAR
STARTCHAR 333E
ENCODING 13118
SWIDTH 1000 0
DWIDTH 12 0
BBX 10 11 1 -1
BITMAP
2000
E300
3340
3340
EC80
0000
0000
4000
7000
4000
4000
ENDCHAR
STARTCHAR 333F
ENCODING 13119
SWIDTH 1000 0
DWIDTH 12 0
BBX 10 11 1 -1
BITMAP
2000
E000
3000
2800
A800
2000
0600
0040
0080
0100
0600
ENDCHAR
STARTCHAR 3340
ENCODING 13120
SWIDTH 1000 0
DWIDTH 12 0
BBX 10 11 1 -1
BITMAP
3800
FA00
2040
2980
EA00
0000
0800
4000
7000
4000
4000
ENDCHAR
STARTCHAR 3341
ENCODING 13121
SWIDTH 1000 0
DWIDTH 12 0
BBX 10 11 1 -1
BITMAP
2000
E000
37C0
3000
E800
0000
2000
6000
A800
B000
8000
ENDCHAR
STARTCHAR 3342
ENCODING 13122
SWIDTH 1000 0
DWIDTH 12 0
BBX 10 11 1 -1
BITMAP
2000
E000
37C0
3000
E800
0000
8000
4000
1000
2000
C000
ENDCHAR
STARTCHAR 3343
ENCODING 13123
SWIDTH 1000 0
DWIDTH 12 0
BBX 10 10 1 -1
BITMAP
0040
F880
5300
2100
2100
0000
30C0
D740
2480
43C0
ENDCHAR
STARTCHAR 3344
ENCODING 13124
SWIDTH 1000 0
DWIDTH 12 0
BBX 9 9 1 0
BITMAP
F880
1100
2300
2100
0000
2000
6000
6800
9000
ENDCHAR
STARTCHAR 3345
ENCODING 13125
SWIDTH 1000 0
DWIDTH 12 0
BBX 10 9 1 0
BITMAP
F800
1340
2080
1100
0000
1000
4800
4800
8800
ENDCHAR
STARTCHAR 3346
ENCODING 13126
SWIDTH 1000 0
DWIDTH 12 0
BBX 10 10 1 0
BITMAP
0100
FB00
1340
6540
2480
0000
7000
9000
2000
4000
ENDCHAR
STARTCHAR 3347
ENCODING 13127
SWIDTH 1000 0
DWIDTH 12 0
BBX 10 10 1 -1
BITMAP
FA00
1040
2180
2200
0000
8100
8C40
2C80
4500
8800
ENDCHAR
STARTCHAR 3348
ENCODING 13128
SWIDTH 1000 0
DWIDTH 12 0
BBX 10 11 1 -1
BITMAP
4100
31C0
6280
0080
7300
0000
9000
F240
9080
B100
4200
ENDCHAR
STARTCHAR 3349
ENCODING 13129
SWIDTH 1000 0
DWIDTH 12 0
BBX 8 11 2 -1
BITMAP
80
60
C0
00
C0
21
09
09
09
02
04
ENDCHAR
STARTCHAR 334A
ENCODING 13130
SWIDTH 1000 0
DWIDTH 12 0
BBX 11 10 0 -1
BITMAP
3040
0140
3140
0040
3880
0000
0840
16C0
50E0
8940
ENDCHAR
STARTCHAR 334B
ENCODING 13131
SWIDTH 1000 0
DWIDTH 12 0
BBX 10 11 1 -1
BITMAP
1000
1000
3000
3000
4800
8240
0E80
0380
0480
0480
0100
ENDCHAR
STARTCHAR 334C
ENCODING 13132
SWIDTH 1000 0
DWIDTH 12 0
BBX 9 10 1 0
BITMAP
2680
2380
5280
8580
0000
4600
4080
7100
4600
4000
ENDCHAR
STARTCHAR 334D
ENCODING 13133
SWIDTH 1000 0
DWIDTH 12 0
BBX 10 10 1 0
BITMAP
2000
27C0
5000
8000
0000
4100
4300
7340
4580
4000
ENDCHAR
STARTCHAR 334E
ENCODING 13134
SWIDTH 1000 0
DWIDTH 12 0
BBX 10 11 1 -1
BITMAP
4000
D800
77C0
4000
2000
0000
5800
4000
7000
4000
4000
ENDCHAR
STARTCHAR 334F
ENCODING 13135
SWIDTH 1000 0
DWIDTH 12 0
BBX 10 11 1 -1
BITMAP
4000
5800
F7C0
4000
2000
0000
2000
6000
6800
B000
A000
ENDCHAR
STARTCHAR 3350
ENCODING 13136
SWIDTH 1000 0
DWIDTH 12 0
BBX 10 10 1 0
BITMAP
03C0
7080
1100
1100
E200
0000
C000
1000
2000
C000
ENDCHAR
STARTCHAR 3351
ENCODING 13137
SWIDTH 1000 0
DWIDTH 12 0
BBX 10 11 1 -1
BITMAP
1000
9000
9380
2080
2100
0000
4100
4300
7340
4480
4000
ENDCHAR
STARTCHAR 3352
ENCODING 13138
SWIDTH 1000 0
DWIDTH 12 0
BBX 9 11 2 -1
BITMAP
2000
A000
A000
A000
4000
8700
0000
0F80
0100
0200
0400
ENDCHAR
STARTCHAR 3353
ENCODING 13139
SWIDTH 1000 0
DWIDTH 12 0
BBX 11 9 1 1
BITMAP
0060
2260
6280
AB00
B380
0000
0000
0000
F000
ENDCHAR
STARTCHAR 3354
ENCODING 13140
SWIDTH 1000 0
DWIDTH 12 0
BBX 10 10 1 -1
BITMAP
2000
6000
ABC0
B000
A000
0800
F100
1300
2340
4480
ENDCHAR
STARTCHAR 3355
ENCODING 13141
SWIDTH 1000 0
DWIDTH 12 0
BBX 9 9 2 0
BITMAP
8000
9000
A000
C000
8400
0400
0800
0900
1E80
ENDCHAR
STARTCHAR 3356
ENCODING 13142
SWIDTH 1000 0
DWIDTH 12 0
BBX 10 11 1 -1
BITMAP
0400
8240
9080
A100
4200
0200
8100
9C40
E840
8980
8000
ENDCHAR
STARTCHAR 3357
ENCODING 13143
SWIDTH 1000 0
DWIDTH 12 0
BBX 10 11 1 -1
BITMAP
9800
F000
9340
2080
4100
0000
0000
4000
7000
4000
4000
ENDCHAR
STARTCHAR 3371
ENCODING 13169
SWIDTH 1000 0
DWIDTH 12 0
BBX 11 8 1 1
BITMAP
8E00
8A00
CAC0
AB40
AC40
A9C0
A940
A9E0
ENDCHAR
STARTCHAR 337B
ENCODING 13179
SWIDTH 1000 0
DWIDTH 12 0
BBX 12 10 0 0
BITMAP
38A0
6BE0
6A80
72A0
23A0
FF40
2340
2540
24E0
2430
ENDCHAR
STARTCHAR 337C
ENCODING 13180
SWIDTH 1000 0
DWIDTH 12 0
BBX 10 10 1 -1
BITMAP
5B00
EAC0
EAC0
EBC0
C2C0
FBC0
EEC0
EAC0
6AC0
3A00
ENDCHAR
STARTCHAR 337D
ENCODING 13181
SWIDTH 1000 0
DWIDTH 12 0
BBX 10 10 1 0
BITMAP
4040
47C0
4100
7300
2540
2580
6500
6500
9500
0FC0
ENDCHAR
STARTCHAR 337E
ENCODING 13182
SWIDTH 1000 0
DWIDTH 12 0
BBX 11 11 1 -1
BITMAP
2880
FA80
EB00
FF40
EBA0
EC00
FDC0
ED40
4D40
4D40
05C0
ENDCHAR
STARTCHAR 337F
ENCODING 13183
SWIDTH 1000 0
DWIDTH 12 0
BBX 10 10 1 0
BITMAP
A040
FFC0
A080
F280
AE40
8000
2280
D280
2280
7280
ENDCHAR
STARTCHAR 3385
ENCODING 13189
SWIDTH 1000 0
DWIDTH 12 0
BBX 10 8 1 1
BITMAP
9380
A240
A240
C280
A340
A240
9240
9380
ENDCHAR
STARTCHAR 3386
ENCODING 13190
SWIDTH 1000 0
DWIDTH 12 0
BBX 10 8 1 1
BITMAP
8B80
9A40
EA40
EA80
EB40
AA40
AA40
8BC0
ENDCHAR
STARTCHAR 3387
ENCODING 13191
SWIDTH 1000 0
DWIDTH 12 0
BBX 10 8 1 1
BITMAP
7380
9240
8240
8380
92C0
9240
9240
7380
ENDCHAR
STARTCHAR 3388
ENCODING 13192
SWIDTH 1000 0
DWIDTH 12 0
BBX 10 9 1 0
BITMAP
0040
00C0
6540
AB40
9580
9580
9500
D940
D480
ENDCHAR
STARTCHAR 3389
ENCODING 13193
SWIDTH 1000 0
DWIDTH 12 0
BBX 12 8 0 1
BITMAP
8030
8030
8060
ADE0
CB60
6B40
AB40
AFE0
ENDCHAR
STARTCHAR 338D
ENCODING 13197
SWIDTH 1000 0
DWIDTH 12 0
BBX 12 8 0 -1
BITMAP
00F0
2550
4920
49C0
4900
48E0
B720
81E0
ENDCHAR
STARTCHAR 338E
ENCODING 13198
SWIDTH 1000 0
DWIDTH 12 0
BBX 11 8 1 -1
BITMAP
FBE0
AA80
AA80
AB80
AA00
ADC0
0440
03C0
ENDCHAR
STARTCHAR 338F
ENCODING 13199
SWIDTH 1000 0
DWIDTH 12 0
BBX 10 10 1 -1
BITMAP
8000
8000
8000
93C0
A480
E380
A400
97C0
0440
03C0
ENDCHAR
STARTCHAR 3390
ENCODING 13200
SWIDTH 1000 0
DWIDTH 12 0
BBX 11 8 0 1
BITMAP
4400
4400
4400
45E0
7D40
4480
4500
E7E0
ENDCHAR
STARTCHAR 3396
ENCODING 13206
SWIDTH 1000 0
DWIDTH 12 0
BBX 10 9 1 1
BITMAP
00C0
0140
0140
FA40
AA80
AA80
AB00
AA40
A980
ENDCHAR
STARTCHAR 3397
ENCODING 13207
SWIDTH 1000 0
DWIDTH 12 0
BBX 10 9 1 0
BITMAP
00C0
1140
7240
5280
9280
9300
9200
5240
6980
ENDCHAR
STARTCHAR 3398
ENCODING 13208
SWIDTH 1000 0
DWIDTH 12 0
BBX 10 8 1 1
BITMAP
80C0
8140
8240
9280
A280
6300
9240
8B80
ENDCHAR
STARTCHAR 339B
ENCODING 13211
SWIDTH 1000 0
DWIDTH 12 0
BBX 11 8 0 -1
BITMAP
2BE0
4AA0
52A0
92A0
56A0
6AA0
8000
8000
ENDCHAR
STARTCHAR 339C
ENCODING 13212
SWIDTH 1000 0
DWIDTH 12 0
BBX 11 6 0 1
BITMAP
EBE0
5AA0
5AA0
5AA0
5AA0
5AA0
ENDCHAR
STARTCHAR 339D
ENCODING 13213
SWIDTH 1000 0
DWIDTH 12 0
BBX 10 6 1 1
BITMAP
6FC0
9540
8540
8540
9540
6540
ENDCHAR
STARTCHAR 339E
ENCODING 13214
SWIDTH 1000 0
DWIDTH 12 0
BBX 10 8 1 1
BITMAP
8000
8000
8000
A7C0
C540
A540
A540
9540
ENDCHAR
STARTCHAR 339F
ENCODING 13215
SWIDTH 1000 0
DWIDTH 12 0
BBX 11 9 1 1
BITMAP
00A0
0040
00A0
D1C0
B740
B540
B540
B540
B540
ENDCHAR
STARTCHAR 33A0
ENCODING 13216
SWIDTH 1000 0
DWIDTH 12 0
BBX 11 9 1 1
BITMAP
00A0
0040
00A0
66C0
9540
8540
8540
8540
6540
ENDCHAR
STARTCHAR 33A1
ENCODING 13217
SWIDTH 1000 0
DWIDTH 12 0
BBX 9 9 2 1
BITMAP
0380
0100
0280
3700
C900
8900
8900
8900
8900
ENDCHAR
STARTCHAR 33A2
ENCODING 13218
SWIDTH 1000 0
DWIDTH 12 0
BBX 11 9 1 1
BITMAP
00A0
8040
80A0
8040
A7C0
C540
A540
A540
9540
ENDCHAR
STARTCHAR 33A3
ENCODING 13219
SWIDTH 1000 0
DWIDTH 12 0
BBX 12 9 0 1
BITMAP
0050
0010
0050
EBE0
5AA0
5AA0
5AA0
5AA0
5AA0
ENDCHAR
STARTCHAR 33A4
ENCODING 13220
SWIDTH 1000 0
DWIDTH 12 0
BBX 11 9 1 1
BITMAP
00A0
0020
00A0
6FC0
9540
8540
8540
9540
6540
ENDCHAR
STARTCHAR 33A5
ENCODING 13221
SWIDTH 1000 0
DWIDTH 12 0
BBX 10 9 1 1
BITMAP
00C0
0040
0140
DB00
6480
4480
4480
4480
4480
ENDCHAR
STARTCHAR 33A6
ENCODING 13222
SWIDTH 1000 0
DWIDTH 12 0
BBX 11 9 1 1
BITMAP
0040
8020
80A0
8040
A7C0
C540
A540
A540
9540
ENDCHAR
STARTCHAR 33B0
ENCODING 13232
SWIDTH 1000 0
DWIDTH 12 0
BBX 10 8 1 -1
BITMAP
F380
8A40
8A00
8980
8840
F3C0
8000
8000
ENDCHAR
STARTCHAR 33B1
ENCODING 13233
SWIDTH 1000 0
DWIDTH 12 0
BBX 10 6 1 1
BITMAP
B1C0
CA40
8A00
8980
8A40
8BC0
ENDCHAR
STARTCHAR 33B2
ENCODING 13234
SWIDTH 1000 0
DWIDTH 12 0
BBX 11 8 0 -1
BITMAP
20C0
2520
4500
48C0
4920
DB20
B4E0
8000
ENDCHAR
STARTCHAR 33B3
ENCODING 13235
SWIDTH 1000 0
DWIDTH 12 0
BBX 10 6 1 1
BITMAP
F9C0
AA40
AA00
A980
AA40
ABC0
ENDCHAR
STARTCHAR 33C2
ENCODING 13250
SWIDTH 1000 0
DWIDTH 12 0
BBX 11 6 1 1
BITMAP
C680
A580
2580
E580
A580
EDA0
ENDCHAR
STARTCHAR 33C4
ENCODING 13252
SWIDTH 1000 0
DWIDTH 12 0
BBX 9 7 1 0
BITMAP
7380
5280
8400
8400
8400
5280
7380
ENDCHAR
STARTCHAR 33C8
ENCODING 13256
SWIDTH 1000 0
DWIDTH 12 0
BBX 10 8 1 1
BITMAP
1380
1240
7240
9280
9340
9240
9240
F380
ENDCHAR
STARTCHAR 33CB
ENCODING 13259
SWIDTH 1000 0
DWIDTH 12 0
BBX 9 8 2 1
BITMAP
8F00
8880
8880
8880
FF00
8800
8800
8800
ENDCHAR
STARTCHAR 33CD
ENCODING 13261
SWIDTH 1000 0
DWIDTH 12 0
BBX 11 8 1 1
BITMAP
A280
A500
C500
C500
C300
A500
A480
AAA0
ENDCHAR
STARTCHAR 33D4
ENCODING 13268
SWIDTH 1000 0
DWIDTH 12 0
BBX 10 9 1 1
BITMAP
0200
0200
0200
FB80
AA40
AA40
AA40
AA40
AB80
ENDCHAR
STARTCHAR 33D7
ENCODING 13271
SWIDTH 1000 0
DWIDTH 12 0
BBX 10 10 1 -1
BITMAP
0440
0440
0440
E440
97C0
9440
9440
E440
8000
8000
ENDCHAR
STARTCHAR 33D8
ENCODING 13272
SWIDTH 1000 0
DWIDTH 12 0
BBX 11 8 1 -1
BITMAP
E680
9580
9580
9580
9580
EDA0
8000
8000
ENDCHAR
STARTCHAR 33DA
ENCODING 13274
SWIDTH 1000 0
DWIDTH 12 0
BBX 10 8 1 1
BITMAP
F380
8C40
8C40
9480
E700
8480
8480
8240
ENDCHAR
STARTCHAR 3402
ENCODING 13314
SWIDTH 1000 0
DWIDTH 12 0
BBX 9 11 2 -1
BITMAP
2000
4100
7E00
C200
3E00
0000
9480
E700
9480
9480
F380
ENDCHAR
STARTCHAR 3406
ENCODING 13318
SWIDTH 1000 0
DWIDTH 12 0
BBX 7 11 2 -1
BITMAP
0E
70
7E
42
7E
7E
40
7E
42
82
8C
ENDCHAR
STARTCHAR 342C
ENCODING 13356
SWIDTH 1000 0
DWIDTH 12 0
BBX 9 10 2 -1
BITMAP
0800
1080
FF00
2200
FD00
0100
9200
9200
9280
9380
ENDCHAR
STARTCHAR 342E
ENCODING 13358
SWIDTH 1000 0
DWIDTH 12 0
BBX 10 11 1 -1
BITMAP
0800
FFC0
1200
F3C0
7F80
7F80
1240
7D80
7380
9580
6840
ENDCHAR
STARTCHAR 3468
ENCODING 13416
SWIDTH 1000 0
DWIDTH 12 0
BBX 12 11 0 -1
BITMAP
1000
2FC0
2840
27C0
6400
6BC0
A120
2FE0
2300
2280
2C70
ENDCHAR
STARTCHAR 346A
ENCODING 13418
SWIDTH 1000 0
DWIDTH 12 0
BBX 10 11 1 -1
BITMAP
0200
2240
4D80
4600
4580
F8C0
4F80
4880
4F80
5080
6080
ENDCHAR
STARTCHAR 3492
ENCODING 13458
SWIDTH 1000 0
DWIDTH 12 0
BBX 10 11 1 -1
BITMAP
2500
3580
4DC0
4300
4540
CA80
4FC0
5FC0
4600
4B80
5240
ENDCHAR
STARTCHAR 34B5
ENCODING 13493
SWIDTH 1000 0
DWIDTH 12 0
BBX 10 11 1 -1
BITMAP
0C00
0880
7780
4080
7F80
4080
7F80
4080
1300
2080
C040
ENDCHAR
STARTCHAR 34BC
ENCODING 13500
SWIDTH 1000 0
DWIDTH 12 0
BBX 10 11 1 -1
BITMAP
1240
FFC0
1200
1E00
7FC0
8880
8880
9980
BB80
8880
0180
ENDCHAR
STARTCHAR 34C1
ENCODING 13505
SWIDTH 1000 0
DWIDTH 12 0
BBX 10 5 1 3
BITMAP
FFC0
9480
2440
43C0
8000
ENDCHAR
STARTCHAR 34C7
ENCODING 13511
SWIDTH 1000 0
DWIDTH 12 0
BBX 10 10 1 -1
BITMAP
8380
5E00
2200
4240
4F80
8600
8500
8880
9040
2000
ENDCHAR
STARTCHAR 34DB
ENCODING 13531
SWIDTH 1000 0
DWIDTH 12 0
BBX 10 9 1 1
BITMAP
1FC0
6240
4240
4440
4440
4440
6480
8880
1380
ENDCHAR
STARTCHAR 351F
ENCODING 13599
SWIDTH 1000 0
DWIDTH 12 0
BBX 10 11 1 -1
BITMAP
2000
6200
B380
2280
7380
3440
C800
FFC0
0880
1080
E300
ENDCHAR
STARTCHAR 355D
ENCODING 13661
SWIDTH 1000 0
DWIDTH 12 0
BBX 10 10 1 0
BITMAP
0840
7F80
7F80
4080
7F80
0000
3F00
1E00
1A00
E1C0
ENDCHAR
STARTCHAR 355E
ENCODING 13662
SWIDTH 1000 0
DWIDTH 12 0
BBX 12 9 0 1
BITMAP
7DE0
4520
7940
4940
7CC0
6C40
6CC0
AD20
0A30
ENDCHAR
STARTCHAR 3563
ENCODING 13667
SWIDTH 1000 0
DWIDTH 12 0
BBX 10 11 1 -1
BITMAP
0200
1600
2100
2080
4040
8000
7F00
4100
4100
4100
3E00
ENDCHAR
STARTCHAR 356E
ENCODING 13678
SWIDTH 1000 0
DWIDTH 12 0
BBX 10 9 1 0
BITMAP
0400
E880
A840
B1C0
A500
A600
E300
0480
0840
ENDCHAR
STARTCHAR 35A6
ENCODING 13734
SWIDTH 1000 0
DWIDTH 12 0
BBX 10 11 1 -1
BITMAP
0200
0240
FF80
AFC0
AA80
AF80
AF80
E300
8E80
0240
0200
ENDCHAR
STARTCHAR 35A8
ENCODING 13736
SWIDTH 1000 0
DWIDTH 12 0
BBX 10 11 1 -1
BITMAP
0400
A780
E880
A700
9FC0
A200
AFC0
C680
9A40
0200
0200
ENDCHAR
STARTCHAR 35C5
ENCODING 13765
SWIDTH 1000 0
DWIDTH 12 0
BBX 10 11 1 -1
BITMAP
0400
29C0
EB40
AD40
A9C0
B940
B5C0
F540
9640
1A40
0040
ENDCHAR
ENDFONT
